<?xml version="1.0" encoding="UTF-8" standalone="no"?>
<!-- Generator: Adobe Illustrator 9.0, SVG Export Plug-In  -->

<svg
   xmlns:dc="http://purl.org/dc/elements/1.1/"
   xmlns:cc="http://creativecommons.org/ns#"
   xmlns:rdf="http://www.w3.org/1999/02/22-rdf-syntax-ns#"
   xmlns:svg="http://www.w3.org/2000/svg"
   xmlns="http://www.w3.org/2000/svg"
   xmlns:xlink="http://www.w3.org/1999/xlink"
   xmlns:sodipodi="http://sodipodi.sourceforge.net/DTD/sodipodi-0.dtd"
   xmlns:inkscape="http://www.inkscape.org/namespaces/inkscape"
   sodipodi:docname="tango-application-certificate.svg"
   inkscape:version="0.92.4 (5da689c313, 2019-01-14)"
   sodipodi:version="0.32"
   id="svg5105"
   xml:space="preserve"
   viewBox="0 0 64 64"
   height="64"
   width="64"
   inkscape:output_extension="org.inkscape.output.svg.inkscape"
   version="1.1"
   inkscape:export-filename="/home/frode/openretro/git/fs-uae-master/fs-uae-launcher/src/icons/system/utilities/checksum/tango-application-certificate.png"
   inkscape:export-xdpi="90"
   inkscape:export-ydpi="90"><metadata
   id="metadata5189">
  <rdf:RDF>
    <cc:Work
   rdf:about="">
      <dc:format>image/svg+xml</dc:format>


      <dc:type
   rdf:resource="http://purl.org/dc/dcmitype/StillImage" />


    <dc:title></dc:title><dc:creator><cc:Agent><dc:title>Jakub Steiner</dc:title></cc:Agent></dc:creator><dc:subject><rdf:Bag><rdf:li>certificate</rdf:li></rdf:Bag></dc:subject><cc:license
   rdf:resource="http://creativecommons.org/publicdomain/zero/1.0/" /></cc:Work>


  <cc:License
   rdf:about="http://creativecommons.org/publicdomain/zero/1.0/"><cc:permits
     rdf:resource="http://creativecommons.org/ns#Reproduction" /><cc:permits
     rdf:resource="http://creativecommons.org/ns#Distribution" /><cc:permits
     rdf:resource="http://creativecommons.org/ns#DerivativeWorks" /></cc:License></rdf:RDF>


</metadata>


<defs
   id="defs5187"><inkscape:perspective
   sodipodi:type="inkscape:persp3d"
   inkscape:vp_x="0 : 24 : 1"
   inkscape:vp_y="0 : 1000 : 0"
   inkscape:vp_z="48 : 24 : 1"
   inkscape:persp3d-origin="24 : 16 : 1"
   id="perspective54" /><linearGradient
   id="linearGradient6684">
  <stop
   id="stop6686"
   offset="0.0000000"
   style="stop-color:#d5dbff;stop-opacity:1.0000000;" />
  <stop
   id="stop6688"
   offset="1"
   style="stop-color:#6579ff;stop-opacity:0;" />
</linearGradient>
<linearGradient
   id="linearGradient6665">
  <stop
   style="stop-color:#000000;stop-opacity:1.0000000;"
   offset="0.0000000"
   id="stop6667" />
  <stop
   style="stop-color:#000000;stop-opacity:0.0000000;"
   offset="1.0000000"
   id="stop6669" />
</linearGradient>
<linearGradient
   id="linearGradient6625">
  <stop
   id="stop6627"
   offset="0.0000000"
   style="stop-color:#1d2349;stop-opacity:1.0000000;" />
  <stop
   style="stop-color:#4c5279;stop-opacity:1.0000000;"
   offset="0.35315102"
   id="stop6637" />
  <stop
   style="stop-color:#b3bdff;stop-opacity:1.0000000;"
   offset="0.46551725"
   id="stop6633" />
  <stop
   id="stop6635"
   offset="0.64982164"
   style="stop-color:#727cbe;stop-opacity:1.0000000;" />
  <stop
   id="stop6629"
   offset="1.0000000"
   style="stop-color:#323c7e;stop-opacity:1.0000000;" />
</linearGradient>
<linearGradient
   id="linearGradient6617">
  <stop
   id="stop6619"
   offset="0.0000000"
   style="stop-color:#ffffff;stop-opacity:0.24742268;" />
  <stop
   id="stop6621"
   offset="1"
   style="stop-color:#ffffff;stop-opacity:0;" />
</linearGradient>
<linearGradient
   id="linearGradient6604">
  <stop
   id="stop6606"
   offset="0.0000000"
   style="stop-color:#ffa196;stop-opacity:1.0000000;" />
  <stop
   id="stop6608"
   offset="1"
   style="stop-color:#ff1f06;stop-opacity:0;" />
</linearGradient>
<radialGradient
   r="13.2807"
   fy="20.971201"
   fx="28.789101"
   cy="20.971201"
   cx="28.789101"
   gradientUnits="userSpaceOnUse"
   id="radialGradient5199"
   xlink:href="#aigrd1"
   inkscape:collect="always" />


<radialGradient
   r="14.6944"
   fy="13.5444"
   fx="19.292"
   cy="13.5444"
   cx="19.292"
   gradientUnits="userSpaceOnUse"
   id="radialGradient5201"
   xlink:href="#aigrd2"
   inkscape:collect="always" />


<linearGradient
   y2="16.723101"
   x2="23.412001"
   y1="11.5991"
   x1="18.229"
   gradientUnits="userSpaceOnUse"
   id="linearGradient5203"
   xlink:href="#aigrd3"
   inkscape:collect="always" />



		
	
			
			
			<radialGradient
   gradientUnits="userSpaceOnUse"
   fy="20.971201"
   fx="28.789101"
   r="13.2807"
   cy="20.971201"
   cx="28.789101"
   id="aigrd1">
				<stop
   id="stop5115"
   style="stop-color:#E41E08"
   offset="0" />



				<stop
   id="stop5117"
   style="stop-color:#901505"
   offset="1" />



			</radialGradient>



			
			<radialGradient
   gradientUnits="userSpaceOnUse"
   fy="13.5444"
   fx="19.292"
   r="14.6944"
   cy="13.5444"
   cx="19.292"
   id="aigrd2">
				<stop
   id="stop5122"
   style="stop-color:#E41E08"
   offset="0" />



				<stop
   id="stop5124"
   style="stop-color:#901505"
   offset="1" />



			</radialGradient>



			
			
			
			
			
			<linearGradient
   y2="16.723101"
   x2="23.412001"
   y1="11.5991"
   x1="18.229"
   gradientUnits="userSpaceOnUse"
   id="aigrd3">
				<stop
   id="stop5137"
   style="stop-color:#FFFFFF"
   offset="0" />



				<stop
   id="stop5139"
   style="stop-color:#901505"
   offset="1" />



			</linearGradient>



			
			
			
		<linearGradient
   gradientTransform="matrix(1.135551,0,0,1.135551,-3.259995,-3.266773)"
   y2="16.723101"
   x2="23.412001"
   y1="11.5991"
   x1="18.229"
   gradientUnits="userSpaceOnUse"
   id="linearGradient5274"
   xlink:href="#aigrd3"
   inkscape:collect="always" />


<radialGradient
   gradientTransform="matrix(1.135551,0,0,1.135551,-4.540325,-2.077433)"
   r="14.6944"
   fy="13.5444"
   fx="19.292"
   cy="13.5444"
   cx="19.292"
   gradientUnits="userSpaceOnUse"
   id="radialGradient5281"
   xlink:href="#aigrd2"
   inkscape:collect="always" />


<radialGradient
   gradientTransform="matrix(1.310386,0,0,1.310386,-8.642682,11.624023)"
   r="13.2807"
   fy="20.971201"
   fx="28.789101"
   cy="20.971201"
   cx="28.789101"
   gradientUnits="userSpaceOnUse"
   id="radialGradient5284"
   xlink:href="#aigrd1"
   inkscape:collect="always" />



				
			<linearGradient
   gradientUnits="userSpaceOnUse"
   y2="49.895073"
   x2="43.14098"
   y1="5.9244628"
   x1="15.338736"
   gradientTransform="matrix(0.975728,0,0,0.931033,-0.132002,17.978392)"
   id="linearGradient6610"
   xlink:href="#linearGradient6604"
   inkscape:collect="always" />
<linearGradient
   gradientUnits="userSpaceOnUse"
   y2="22.783224"
   x2="29.957399"
   y1="9.4436626"
   x1="18.570419"
   gradientTransform="matrix(1.02867,0,0,0.972129,-1.28033,17.18934)"
   id="linearGradient6623"
   xlink:href="#linearGradient6617"
   inkscape:collect="always" />
<linearGradient
   gradientUnits="userSpaceOnUse"
   y2="35.01786"
   x2="38.250904"
   y1="22.886259"
   x1="38.506161"
   gradientTransform="matrix(0.843938,0,0,1.184922,-1.28033,17.68934)"
   id="linearGradient6631"
   xlink:href="#linearGradient6625"
   inkscape:collect="always" />
<radialGradient
   gradientUnits="userSpaceOnUse"
   r="33.156136"
   fy="19.818913"
   fx="24.452202"
   cy="19.818913"
   cx="24.452202"
   gradientTransform="matrix(1.024478,0,0,0.976107,0.939339,15.469671)"
   id="radialGradient6663"
   xlink:href="#linearGradient6665"
   inkscape:collect="always" />
<radialGradient
   r="33.156136"
   fy="19.818913"
   fx="24.452202"
   cy="19.818913"
   cx="24.452202"
   gradientTransform="matrix(1.024478,0,0,0.976107,1.646447,15.646448)"
   gradientUnits="userSpaceOnUse"
   id="radialGradient6675"
   xlink:href="#linearGradient6665"
   inkscape:collect="always" />
<radialGradient
   r="14.6944"
   fy="20.479359"
   fx="26.887432"
   cy="20.479359"
   cx="26.887432"
   gradientTransform="matrix(1.135551,0,0,1.135551,-4.540325,13.922567)"
   gradientUnits="userSpaceOnUse"
   id="radialGradient6678"
   xlink:href="#aigrd2"
   inkscape:collect="always" />
<linearGradient
   gradientUnits="userSpaceOnUse"
   y2="27.403761"
   x2="36.499001"
   y1="35.458244"
   x1="37.502811"
   gradientTransform="matrix(0.843938,0,0,1.184922,0,16)"
   id="linearGradient6690"
   xlink:href="#linearGradient6684"
   inkscape:collect="always" />
<radialGradient
   id="radialGradient2965"
   cx="102"
   cy="112.3"
   r="139.56"
   gradientTransform="matrix(0.36171,0,0,-0.39078,0.85099,49.517)"
   gradientUnits="userSpaceOnUse"><stop
     id="stop41"
     style="stop-color:#b7b8b9"
     offset="0" /><stop
     id="stop47"
     style="stop-color:#ececec"
     offset=".18851" /><stop
     id="stop49"
     style="stop-color:#fafafa;stop-opacity:0"
     offset=".25718" /><stop
     id="stop51"
     style="stop-color:#fff;stop-opacity:0"
     offset=".30111" /><stop
     id="stop53"
     style="stop-color:#fafafa;stop-opacity:0"
     offset=".5313" /><stop
     id="stop55"
     style="stop-color:#ebecec;stop-opacity:0"
     offset=".8449" /><stop
     id="stop57"
     style="stop-color:#e1e2e3;stop-opacity:0"
     offset="1" /></radialGradient><filter
   id="filter3248"
   x="-0.14846"
   y="-0.16434"
   width="1.2969"
   height="1.3286999"
   style="color-interpolation-filters:sRGB"><feGaussianBlur
     id="feGaussianBlur3250"
     stdDeviation="0.77391625" /></filter><linearGradient
   id="linearGradient2633"
   x1="32.891998"
   x2="36.358002"
   y1="8.059"
   y2="5.4565001"
   gradientTransform="matrix(0.99771,0,0,1.0407,0.16372,0.8942)"
   gradientUnits="userSpaceOnUse"><stop
     id="stop8591-1"
     style="stop-color:#fefefe"
     offset="0" /><stop
     id="stop8593-2"
     style="stop-color:#cbcbcb"
     offset="1" /></linearGradient><linearGradient
   id="linearGradient2890"
   x1="24"
   x2="24"
   y1="2"
   y2="46.016998"
   gradientTransform="matrix(1.1845494,0,0,1.1582287,3.5207489,4.5715621)"
   gradientUnits="userSpaceOnUse"><stop
     id="stop3213"
     style="stop-color:#fff"
     offset="0" /><stop
     id="stop3215"
     style="stop-color:#fff;stop-opacity:0"
     offset="1" /></linearGradient><linearGradient
   id="linearGradient3524"><stop
     id="stop5270"
     style="stop-color:#729fcf;stop-opacity:0"
     offset="0" /><stop
     id="stop5272"
     style="stop-color:#729fcf;stop-opacity:0"
     offset=".85" /><stop
     id="stop3528"
     style="stop-color:#729fcf"
     offset="1" /></linearGradient><linearGradient
   id="linearGradient4457"><stop
     id="stop4459"
     style="stop-color:#c00"
     offset="0" /><stop
     id="stop4461"
     style="stop-color:#ef2929"
     offset="1" /></linearGradient><linearGradient
   id="linearGradient4498"
   x1="28.976"
   x2="29"
   y1="31.07"
   y2="40.005001"
   gradientTransform="translate(-502.68,-258.25)"
   gradientUnits="userSpaceOnUse"
   xlink:href="#linearGradient4457" /><radialGradient
   id="radialGradient4348"
   cx="9.375"
   cy="9.375"
   r="9.375"
   gradientUnits="userSpaceOnUse"
   xlink:href="#linearGradient3524" /><linearGradient
   id="linearGradient3436"
   x1="28.976"
   x2="29"
   y1="31.07"
   y2="40.005001"
   gradientTransform="translate(-371.69,-280.57)"
   gradientUnits="userSpaceOnUse"
   xlink:href="#linearGradient4457" /><linearGradient
   id="linearGradient3584"
   x1="302.85999"
   x2="302.85999"
   y1="366.64999"
   y2="609.51001"
   gradientTransform="matrix(0.070414,0,0,0.015375,-1.4497,38.629)"
   gradientUnits="userSpaceOnUse"><stop
     id="stop5050"
     style="stop-opacity:0"
     offset="0" /><stop
     id="stop5056"
     offset=".5" /><stop
     id="stop5052"
     style="stop-opacity:0"
     offset="1" /></linearGradient><radialGradient
   id="radialGradient3586"
   cx="605.71002"
   cy="486.64999"
   r="117.14"
   gradientTransform="matrix(-0.024097,0,0,0.015375,21.522,38.629)"
   gradientUnits="userSpaceOnUse"
   xlink:href="#linearGradient6665" /><radialGradient
   id="radialGradient3588"
   cx="605.71002"
   cy="486.64999"
   r="117.14"
   gradientTransform="matrix(0.024097,0,0,0.015375,26.478,38.629)"
   gradientUnits="userSpaceOnUse"
   xlink:href="#linearGradient6665" /><linearGradient
   id="linearGradient3601"
   x1="25.132"
   x2="25.132"
   y1="6.7287002"
   y2="47.013"
   gradientTransform="translate(-0.008002)"
   gradientUnits="userSpaceOnUse"><stop
     id="stop3602"
     style="stop-color:#f4f4f4"
     offset="0" /><stop
     id="stop3604"
     style="stop-color:#dbdbdb"
     offset="1" /></linearGradient><linearGradient
   id="linearGradient3603"
   x1="-51.785999"
   x2="-51.785999"
   y1="50.785999"
   y2="2.9061999"
   gradientTransform="matrix(0.8075,0,0,0.93585,59.402,-1.1145)"
   gradientUnits="userSpaceOnUse"><stop
     id="stop3106"
     style="stop-color:#aaa"
     offset="0" /><stop
     id="stop3108"
     style="stop-color:#d2d2d2"
     offset="1" /></linearGradient></defs>


<sodipodi:namedview
   inkscape:current-layer="svg5105"
   inkscape:window-y="56"
   inkscape:window-x="997"
   inkscape:cy="30.392013"
   inkscape:cx="59.781581"
   inkscape:zoom="4"
   id="base"
   pagecolor="#ffffff"
   bordercolor="#666666"
   borderopacity="0.16470588"
   inkscape:pageopacity="0.0"
   inkscape:pageshadow="2"
   inkscape:window-width="879"
   inkscape:window-height="818"
   inkscape:showpageshadow="false"
   showgrid="false"
   inkscape:window-maximized="0" />



	




























	


<g
   id="g1641"
   transform="matrix(0.56657329,0,0,0.56776474,36.612946,12.494237)"
   style="stroke-width:1.76314378"><path
     inkscape:connector-curvature="0"
     id="path6671"
     d="m 25.38911,35.305038 c 0,0 -5.904865,8.175967 -5.904865,11.923286 0,3.747318 6.813306,1.703326 9.538628,4.428649 2.725322,2.725322 -6.359086,9.765738 -6.359086,9.765738 l 9.084408,-2.498212 3.633764,3.860873 c 0,-4.655759 5.337089,-8.403077 2.611767,-11.241954 -2.838878,-2.838878 -10.90129,-2.498213 -11.35551,-6.245531 -0.454221,-3.747318 -1.135551,-9.879294 -1.135551,-9.879294 z"
     style="color:#000000;display:inline;overflow:visible;visibility:visible;opacity:0.48044691;fill:url(#radialGradient6675);fill-opacity:1;fill-rule:nonzero;stroke:none;stroke-width:1.76314378;stroke-linecap:round;stroke-linejoin:round;stroke-miterlimit:4;stroke-dashoffset:0;stroke-opacity:1;marker:none;marker-start:none;marker-mid:none;marker-end:none" /><path
     inkscape:connector-curvature="0"
     sodipodi:nodetypes="csssssssssssss"
     id="path6639"
     d="m 36.91616,25.394652 c 1.321528,3.057376 3.643133,2.901818 3.700549,6.982515 0.03274,2.275762 1.832456,3.470743 1.832456,5.795517 0,2.324773 -4.015015,3.473472 -5.382529,4.840984 -1.367515,1.367516 0.107885,4.874427 -3.60203,5.904959 -3.674662,1.02074 -5.470058,-0.410252 -7.794832,-0.410252 -2.324776,0 -7.887818,4.482688 -9.939091,2.431415 -2.051272,-2.051271 -2.095036,-6.533959 -3.872804,-8.311727 -1.9145211,-1.914521 -4.9394355,-4.5894 -4.9394355,-8.008186 0,-3.418785 1.9742054,-5.223586 4.8026845,-8.401985 2.918275,-3.279305 3.008531,-8.205087 6.427317,-8.205087 3.418785,0 4.729182,0.93781 7.638964,0.864272 4.638337,-0.117224 5.20674,-2.323322 8.618072,-0.5935 3.007702,1.525149 1.476157,4.717693 2.510679,7.111075 z"
     style="opacity:0.48044691;fill:url(#radialGradient6663);fill-opacity:1;fill-rule:nonzero;stroke:none;stroke-width:1.76314378;stroke-linecap:round;stroke-linejoin:round;stroke-miterlimit:4;stroke-opacity:1" /><path
     inkscape:connector-curvature="0"
     style="fill:url(#linearGradient6631);fill-opacity:1;fill-rule:nonzero;stroke:#1f254f;stroke-width:1.76314378;stroke-miterlimit:6.5999999;stroke-opacity:1"
     d="m 23.62134,34.067599 c 0,0 -5.904865,8.175967 -5.904865,11.923286 0,3.747318 6.813306,1.703326 9.538628,4.428649 2.725322,2.725322 -6.359086,9.765738 -6.359086,9.765738 l 9.084408,-2.498212 3.633764,3.860873 c 0,-4.655759 5.337089,-8.403077 2.611767,-11.241954 -2.838878,-2.838878 -10.90129,-2.498213 -11.35551,-6.245531 -0.454221,-3.747318 -1.135551,-9.879294 -1.135551,-9.879294 z"
     id="path5112" /><path
     inkscape:connector-curvature="0"
     id="path6680"
     d="m 20.803213,47.602421 c 4.552,0.448384 7.429014,1.235525 7.806622,3.989107 0.330114,2.407239 -4.232143,6.732959 -4.232143,6.732959 l 5.843888,-1.624746 2.84137,2.96095 c 0.662912,-3.71094 4.364808,-6.222004 2.678906,-8.504604 -2.114688,-2.863148 -8.966049,-2.243467 -9.293599,-4.945752 -0.32755,-2.702286 -8.334061,1.124615 -5.645044,1.392086 z"
     style="fill:none;fill-opacity:1;fill-rule:nonzero;stroke:url(#linearGradient6690);stroke-width:1.27144742;stroke-miterlimit:6.5999999;stroke-opacity:1"
     sodipodi:nodetypes="cscccsss" /><path
     inkscape:connector-curvature="0"
     style="fill:url(#radialGradient5284);fill-rule:nonzero;stroke:#4c0901;stroke-width:1.76314378;stroke-linecap:round;stroke-linejoin:round;stroke-miterlimit:4;stroke-opacity:1"
     d="m 34.935485,25.246809 c 1.266321,2.929654 3.490941,2.780595 3.545959,6.690821 0.03138,2.180692 1.755905,3.325753 1.755905,5.553409 0,2.227656 -3.847288,3.328368 -5.157674,4.638753 -1.310387,1.310388 0.103378,4.670798 -3.451556,5.658279 -3.521153,0.978099 -5.241546,-0.393114 -7.469203,-0.393114 -2.227658,0 -7.558305,4.295424 -9.523886,2.329843 -1.96558,-1.965579 -2.007516,-6.261003 -3.711018,-7.964505 -1.8345421,-1.834542 -4.7330913,-4.397678 -4.7330913,-7.673644 0,-3.275966 1.8917331,-5.005371 4.6020533,-8.050993 2.796364,-3.142311 2.88285,-7.862319 6.158816,-7.862319 3.275966,0 4.531621,0.898633 7.319847,0.828167 4.444571,-0.112326 4.989229,-2.226265 8.258052,-0.568707 2.882056,1.461437 1.414491,4.520612 2.405796,6.81401 z"
     id="path5119"
     sodipodi:nodetypes="csssssssssssss" /><path
     inkscape:connector-curvature="0"
     style="fill:url(#radialGradient6678);fill-rule:nonzero;stroke:none;stroke-width:1.76314378;stroke-miterlimit:4"
     d="m 34.97685,33.567599 c 0,6.245531 -5.10998,11.35551 -11.35551,11.35551 -6.245531,0 -11.35551,-5.109979 -11.35551,-11.35551 0,-6.24553 5.109979,-11.35551 11.35551,-11.35551 6.24553,0 11.35551,5.10998 11.35551,11.35551 z"
     id="path5126" /><path
     inkscape:connector-curvature="0"
     sodipodi:nodetypes="csssssssssssss"
     id="path6600"
     d="m 33.888971,26.030124 c 1.153261,2.668087 3.179261,2.532336 3.229367,6.093447 0.02857,1.985994 1.599132,3.028821 1.599132,5.057586 0,2.028765 -3.503791,3.031202 -4.697182,4.224592 -1.193393,1.193394 0.09415,4.253777 -3.143392,5.153093 -3.206775,0.890771 -4.773567,-0.358015 -6.802333,-0.358015 -2.028766,0 -6.883479,3.911917 -8.673568,2.121828 -1.790087,-1.790087 -1.828279,-5.702004 -3.379688,-7.253413 -1.670749,-1.670749 -4.3105081,-4.005041 -4.3105081,-6.98852 0,-2.983479 1.7228345,-4.558479 4.1911691,-7.332179 2.546698,-2.861757 2.625462,-7.16035 5.608941,-7.16035 2.983479,0 4.127026,0.8184 6.666312,0.754226 4.047747,-0.102298 4.543777,-2.027499 7.52075,-0.517931 2.624739,1.330955 1.288202,4.116999 2.191,6.205636 z"
     style="fill:none;fill-rule:nonzero;stroke:url(#linearGradient6610);stroke-width:1.76314378;stroke-linecap:round;stroke-linejoin:round;stroke-miterlimit:4;stroke-opacity:1" /><path
     inkscape:connector-curvature="0"
     style="color:#000000;display:inline;overflow:visible;visibility:visible;opacity:1;fill:url(#linearGradient6623);fill-opacity:1;fill-rule:nonzero;stroke:none;stroke-width:1.76314378;stroke-linecap:round;stroke-linejoin:round;stroke-miterlimit:4;stroke-dashoffset:0;stroke-opacity:1;marker:none;marker-start:none;marker-mid:none;marker-end:none"
     d="m 23.66325,23.05246 c -5.867816,0 -10.646262,4.742232 -10.646262,10.61005 0,3.670993 1.983705,6.780628 4.816166,8.690826 C 25.073625,38.456374 23.786958,31.548148 33.44043,29.606789 31.841424,25.757687 28.088842,23.05246 23.66325,23.05246 Z"
     id="path6612" /></g></svg>