<?xml version="1.0" encoding="UTF-8"?>
<!-- Created with Inkscape (http://www.inkscape.org/) -->
<svg id="svg2" width="24" height="24" version="1.0" xmlns="http://www.w3.org/2000/svg" xmlns:xlink="http://www.w3.org/1999/xlink">
 <defs id="defs4">
  <linearGradient id="linearGradient2531" x1="21.875" x2="21.875" y1="48.001" y2="40" gradientUnits="userSpaceOnUse">
   <stop id="stop2806" style="stop-opacity:0" offset="0"/>
   <stop id="stop2812" offset=".5"/>
   <stop id="stop2808" style="stop-opacity:0" offset="1"/>
  </linearGradient>
  <radialGradient id="radialGradient2529" cx="1" cy="44" r="5" gradientTransform="matrix(2 0 0 .8 36 8.8)" gradientUnits="userSpaceOnUse" xlink:href="#linearGradient2781"/>
  <linearGradient id="linearGradient2781">
   <stop id="stop2783" offset="0"/>
   <stop id="stop2785" style="stop-opacity:0" offset="1"/>
  </linearGradient>
  <radialGradient id="radialGradient2527" cx="1" cy="44" r="5" gradientTransform="matrix(2 0 0 .8 -13 -79.2)" gradientUnits="userSpaceOnUse" xlink:href="#linearGradient2781"/>
  <linearGradient id="linearGradient2521" x1="3.6262" x2="41.968" y1="2.5845" y2="40.926" gradientTransform="matrix(-.49997 0 0 -.49997 23.249 24.249)" gradientUnits="userSpaceOnUse">
   <stop id="stop6377" style="stop-color:#040404" offset="0"/>
   <stop id="stop6379" style="stop-color:#606060" offset="1"/>
  </linearGradient>
  <linearGradient id="linearGradient2518" x1="33.349" x2="35.974" y1="28.693" y2="33.049" gradientTransform="matrix(-.50074 0 0 -.46151 23.278 22.653)" gradientUnits="userSpaceOnUse">
   <stop id="stop2390" style="stop-color:#010306" offset="0"/>
   <stop id="stop2392" style="stop-color:#010306;stop-opacity:.39608" offset="1"/>
  </linearGradient>
  <linearGradient id="linearGradient3311" x1="10" x2="31" y1="27.996" y2="42" gradientTransform="matrix(-.5 0 0 -.46141 23.75 22.649)" gradientUnits="userSpaceOnUse">
   <stop id="stop4237" style="stop-color:#d4d4dc" offset="0"/>
   <stop id="stop4239" style="stop-color:#848489" offset="1"/>
  </linearGradient>
  <linearGradient id="linearGradient2505" x1="20.485" x2="27.375" y1="35" y2="42.125" gradientTransform="matrix(-.4437 0 0 -.36364 22.589 19.227)" gradientUnits="userSpaceOnUse">
   <stop id="stop2321" style="stop-color:#fff" offset="0"/>
   <stop id="stop2323" style="stop-color:#fff;stop-opacity:0" offset="1"/>
  </linearGradient>
  <linearGradient id="linearGradient2502" x1="37.625" x2="37.625" y1="7.625" y2="3.483" gradientTransform="matrix(.5 0 0 -.49991 .75 24.248)" gradientUnits="userSpaceOnUse">
   <stop id="stop2251" style="stop-color:#010306" offset="0"/>
   <stop id="stop2253" style="stop-color:#010306;stop-opacity:0" offset="1"/>
  </linearGradient>
  <linearGradient id="linearGradient2499" x1="21.875" x2="21.875" y1="7.6059" y2="18.514" gradientTransform="matrix(.46416 0 0 .47608 1.5563 -24.164)" gradientUnits="userSpaceOnUse">
   <stop id="stop2270" style="stop-color:#eeeeec" offset="0"/>
   <stop id="stop2272" style="stop-color:#fff" offset="1"/>
  </linearGradient>
  <linearGradient id="linearGradient3308" x1="10" x2="31" y1="27.996" y2="42" gradientTransform="matrix(-.5 0 0 -.46141 23.75 22.649)" gradientUnits="userSpaceOnUse">
   <stop id="stop2557" style="stop-color:#fff" offset="0"/>
   <stop id="stop2561" style="stop-color:#e6e6e6" offset=".5"/>
   <stop id="stop2563" style="stop-color:#fff" offset=".75"/>
   <stop id="stop2565" style="stop-color:#e1e1e1" offset=".84167"/>
   <stop id="stop2559" style="stop-color:#fff" offset="1"/>
  </linearGradient>
 </defs>
 <g id="layer1">
  <g id="g2822" transform="matrix(.51063 0 0 .5 -.51041 0)" style="opacity:.3">
   <rect id="rect1892" transform="scale(-1)" x="-11" y="-48" width="10" height="8" style="fill:url(#radialGradient2527)"/>
   <rect id="rect2789" x="38" y="40" width="10" height="8" style="fill:url(#radialGradient2529)"/>
   <rect id="rect2793" x="11" y="40" width="27" height="8" style="fill:url(#linearGradient2531)"/>
  </g>
  <path id="rect1314" d="m21.115 22.499h-18.229c-0.4162 0-0.38492 0.03128-0.38492-0.38491v-18.229c0-0.4162-0.031282-0.38491 0.38492-0.38491h16.864l1.7499 1.7499v16.864c0 0.4162 0.03128 0.38491-0.38491 0.38491z" style="fill:url(#linearGradient2521);stroke-linecap:round;stroke-linejoin:round;stroke:#121212"/>
  <path id="rect2194" d="m16.735 9.4996h-11.452c-0.43417 0-0.7837-0.32215-0.7837-0.72231v-5.2773h13.019v5.2773c0 0.40016-0.34953 0.72231-0.7837 0.72231z" style="fill:none;opacity:.2619;stroke-linecap:round;stroke-linejoin:round;stroke:url(#linearGradient2518)"/>
  <path id="rect2192" d="m17.844 9.4984c0.4153-0.035311 0.71856-0.44123 0.65625-0.84858 0-1.7166 1e-6 -3.4332 1e-6 -5.1498h-10c0.00256 1.7924-0.00513 3.5851 0.00385 5.3773 0.041987 0.44887 0.52129 0.67487 0.92869 0.62105h8.4112zm-1.5625-0.92283c-0.66667-2e-7 -1.8623 0-2.529 0-0.34245-0.013202-0.27882-0.38896-0.28125-0.62462v-3.1981c0.04828-0.34868 0.45024-0.243 0.69848-0.25955 0.53701 0.01058 1.6069-0.021507 2.1414 0.01666 0.28847 0.12093 0.1607 0.46923 0.18913 0.71227 0 0.90094 1e-6 2.1929 1e-6 3.0938-0.0025 0.12494-0.10509 0.22529-0.21875 0.25955z" style="fill:url(#linearGradient3311);stroke-linecap:round;stroke-linejoin:round;stroke:#555753"/>
  <path id="rect2316" d="m17.265 8.5h-7.5294c-0.13036 0-0.23531-0.086011-0.23531-0.19285v-3.8072h8v3.8072c0 0.10684-0.10494 0.19285-0.2353 0.19285z" style="fill:none;opacity:.60674;stroke-linecap:round;stroke-linejoin:round;stroke:url(#linearGradient2505)"/>
  <path id="rect2247" d="m19.5 22.498v-10.241c0-0.41965-0.33791-0.7575-0.75764-0.7575h-13.485c-0.41973 0-0.75764 0.33784-0.75764 0.7575v10.241h15z" style="fill:none;opacity:.6;stroke-linecap:round;stroke-linejoin:round;stroke:url(#linearGradient2502)"/>
  <rect id="rect2257" transform="scale(1,-1)" x="5.5017" y="-22.498" width="12.997" height="9.9977" rx=".087624" ry=".089874" style="fill:url(#linearGradient2499);stroke-linecap:round;stroke-linejoin:round;stroke:#e2e2df"/>
  <path id="path2264" d="m5.518 22.5h12.964" style="fill-opacity:.75;fill-rule:evenodd;fill:#3f6cff;stroke-linecap:round;stroke-linejoin:round;stroke:#575757"/>
  <path id="path2329" d="m5.5 18.5h13" style="fill:none;stroke-linecap:round;stroke-linejoin:round;stroke:#d3d7cf"/>
  <path id="path2331" d="m5.5 15.5h13" style="fill:none;stroke-linecap:round;stroke-linejoin:round;stroke:#d3d7cf"/>
  <path id="path7255" d="m17.844 9.4984c0.4153-0.035311 0.71856-0.44123 0.65625-0.84858 0-1.7166 1e-6 -3.4332 1e-6 -5.1498h-10c0.00256 1.7924-0.00513 3.5851 0.00385 5.3773 0.041987 0.44887 0.52129 0.67487 0.92869 0.62105h8.4112zm-1.5625-0.99168c-0.66667-2e-7 -1.8393 0-2.506 0-0.34245-0.013202-0.27882-0.38896-0.28125-0.62462v-3.1063c0.04828-0.34868 0.45024-0.243 0.69848-0.25955 0.53701 0.01058 1.5839-0.021507 2.1184 0.01666 0.28847 0.12093 0.1607 0.46923 0.18913 0.71227 0 0.90094 1e-6 2.101 1e-6 3.002-0.0025 0.12494-0.10509 0.22529-0.21875 0.25955z" style="fill:url(#linearGradient3308);opacity:.5;stroke-linecap:round;stroke-linejoin:round;stroke:#555753"/>
 </g>
</svg>
