<?xml version="1.0" encoding="UTF-8"?>
<!-- Created with Inkscape (http://www.inkscape.org/) -->
<svg id="svg3486" width="64" height="64" version="1.0" xmlns="http://www.w3.org/2000/svg" xmlns:xlink="http://www.w3.org/1999/xlink">
 <defs id="defs3488">
  <linearGradient id="linearGradient3434">
   <stop id="stop3436" style="stop-color:#fff;stop-opacity:0" offset="0"/>
   <stop id="stop3438" style="stop-color:#fff" offset="1"/>
  </linearGradient>
  <linearGradient id="linearGradient3463">
   <stop id="stop3465" offset="0"/>
   <stop id="stop3467" style="stop-opacity:0" offset="1"/>
  </linearGradient>
  <linearGradient id="linearGradient3260" x1="15" x2="15" y1="17" y2="33.434" gradientTransform="matrix(1.75 0 0 1.7586 .875 -18.759)" gradientUnits="userSpaceOnUse" xlink:href="#linearGradient3434"/>
  <linearGradient id="linearGradient3263" x1="14.499" x2="14.499" y1="44.179" y2="15.875" gradientTransform="matrix(1.8667 0 0 1.7682 -.6125 -18.813)" gradientUnits="userSpaceOnUse" xlink:href="#linearGradient3434"/>
  <linearGradient id="linearGradient3266" x1="22.056" x2="22.056" y1="15.834" y2="45.497" gradientTransform="matrix(1.7272 0 0 1.7787 .23472 -20.544)" gradientUnits="userSpaceOnUse">
   <stop id="stop9938" style="stop-color:#575757" offset="0"/>
   <stop id="stop9940" style="stop-color:#333" offset="1"/>
  </linearGradient>
  <radialGradient id="radialGradient3272" cx="-6.1603" cy="36.686" r="14.098" gradientTransform="matrix(.51735 0 0 .39006 11.481 43.19)" gradientUnits="userSpaceOnUse" xlink:href="#linearGradient3463"/>
  <radialGradient id="radialGradient3275" cx="-6.1603" cy="36.686" r="14.098" gradientTransform="matrix(1.6932 0 0 .38542 35.3 43.426)" gradientUnits="userSpaceOnUse" xlink:href="#linearGradient3463"/>
  <radialGradient id="radialGradient3278" cx="-6.1603" cy="36.686" r="14.098" gradientTransform="matrix(1.411 0 0 .39006 50.801 43.19)" gradientUnits="userSpaceOnUse" xlink:href="#linearGradient3463"/>
  <linearGradient id="linearGradient3281" x1="143.92" x2="143.92" y1="75.221" y2="103.13" gradientTransform="matrix(2.0013 0 0 1.964 -245.52 -128.22)" gradientUnits="userSpaceOnUse">
   <stop id="stop3244" style="stop-color:#f8b17e" offset="0"/>
   <stop id="stop3246" style="stop-color:#e35d4f" offset=".3121"/>
   <stop id="stop3248" style="stop-color:#c6262e" offset=".57054"/>
   <stop id="stop3250" style="stop-color:#690b54" offset="1"/>
  </linearGradient>
  <linearGradient id="linearGradient3283" x1="153.41" x2="153.41" y1="98.785" y2="75.221" gradientTransform="matrix(2.0013 0 0 1.964 -245.52 -128.22)" gradientUnits="userSpaceOnUse">
   <stop id="stop2492" style="stop-color:#791235" offset="0"/>
   <stop id="stop2494" style="stop-color:#dd3b27" offset="1"/>
  </linearGradient>
  <radialGradient id="radialGradient3286" cx="-6.1603" cy="36.686" r="14.098" gradientTransform="matrix(.51735 0 0 .39006 44.633 43.19)" gradientUnits="userSpaceOnUse" xlink:href="#linearGradient3463"/>
  <linearGradient id="linearGradient3294" x1="153.41" x2="153.41" y1="98.785" y2="75.221" gradientTransform="matrix(2.0013 0 0 1.964 -245.52 -128.22)" gradientUnits="userSpaceOnUse" xlink:href="#linearGradient3434"/>
 </defs>
 <path id="path3478" d="m48.739 57.5c7.58e-4 3.0374-3.2649 5.5-7.2935 5.5s-7.2942-2.4626-7.2935-5.5c-7.59e-4 -3.0374 3.2649-5.5 7.2935-5.5s7.2942 2.4626 7.2935 5.5z" style="fill-rule:evenodd;fill:url(#radialGradient3286);opacity:.2"/>
 <path id="text2400" d="m58.627 23.029c-0.97572-2.2296-3.3568-1.996-4.9904-2.3502-5.4083-0.6276-10.807 0.37332-15.34 3.4442-4.375 2.9895-8.3338 7.0342-11.115 12.254-2.4171 4.6495-3.5025 10.861-1.9775 16.778 1.2003 3.9831 4.8135 6.4434 7.8608 5.78 4.6651-0.78471 7.9894-5.152 10.732-9.4125 1.2401-1.757 2.0019-4.084 3.4657-5.5606-0.20832 3.7865-0.30161 7.7194 0.55161 11.564 0.48494 2.2672 2.2589 4.0545 4.0568 3.9718 1.8291-0.2117 3.2214-1.8129 4.7377-2.8579 1.3638-1.2184 2.9259-2.2661 3.8916-4.0276-0.16635-2.9181-2.7528-1.0858-3.6556-0.084212-1.2621 2.0033-3.8695 0.41149-3.3118-2.3147 0.29201-6.2271 1.7316-12.075 2.9491-17.946 0.68447-3.095 1.405-6.172 2.1451-9.2385h-3e-6zm-7.5552 3.8857c-2.3169 7.3815-4.8197 14.894-9.1016 20.617-2.0202 2.611-4.9823 4.9787-8.2482 3.7227-2.2569-1.0094-2.7798-4.3282-2.8287-6.8248-0.29127-7.3723 3.238-13.478 7.6501-17.161 3.0755-2.4694 7.0508-3.5871 10.933-2.3812 0.73302 0.27528 1.5281 0.98786 1.5949 2.027v-3e-6z" style="fill-rule:evenodd;fill:url(#linearGradient3281);stroke:url(#linearGradient3283)"/>
 <path id="path3461" d="m62 57.5c0.002069 3.0374-8.9042 5.5-19.891 5.5-10.987 0-19.893-2.4626-19.891-5.5-0.002068-3.0374 8.9042-5.5 19.891-5.5 10.987 0 19.893 2.4626 19.891 5.5z" style="fill-rule:evenodd;fill:url(#radialGradient3278);opacity:.2"/>
 <path id="path3482" d="m48.739 57.565c0.002483 3.0013-10.685 5.4346-23.87 5.4346-13.185 0-23.872-2.4333-23.87-5.4346-0.0024821-3.0013 10.685-5.4346 23.87-5.4346 13.185 0 23.872 2.4333 23.87 5.4346z" style="fill-rule:evenodd;fill:url(#radialGradient3275);opacity:.05"/>
 <path id="path3474" d="m15.587 57.5c7.58e-4 3.0374-3.2649 5.5-7.2935 5.5-4.0286 0-7.2942-2.4626-7.2935-5.5-7.5843e-4 -3.0374 3.2649-5.5 7.2935-5.5 4.0286 0 7.2942 2.4626 7.2935 5.5z" style="fill-rule:evenodd;fill:url(#radialGradient3272);opacity:.2"/>
 <path id="path3292" d="m49.625 21.562c-3.8485 0.15412-7.5527 1.219-10.781 3.4062-4.2573 2.909-8.054 6.8148-10.75 11.875-2.3031 4.4301-3.3282 10.424-1.875 16.062 1.0718 3.5568 4.2509 5.5481 6.625 5.0312 0.020828-6.4e-4 0.041672-6.4e-4 0.0625 0 4.1351-0.69556 7.3196-4.7559 10.031-8.9688-1.6e-4 -0.010416-1.6e-4 -0.020834 0-0.03125 1.1096-1.5722 1.8784-3.9571 3.5938-5.6875 0.30032-0.28743 0.74535-0.3631 1.1238-0.19108s0.61405 0.55707 0.59496 0.97233c-0.20701 3.7626-0.25598 7.5927 0.5625 11.281 0.39712 1.8566 1.9062 3.1772 3 3.1562 1.2427-0.18089 2.503-1.472 4.0938-2.5938 0.040958-0.036593 0.084082-0.057695 0.125-0.09375 1.3196-1.1627 2.5627-2.1226 3.375-3.4375-0.031676-0.081807-0.082283-0.32831-0.0625-0.3125 0.041903 0.033491 0.084681 0.004432-0.125 0.0625-0.41936 0.11614-1.2916 0.75513-1.625 1.125l-0.03125-0.03125c-0.4258 0.58977-0.98536 1.0793-1.625 1.2188-0.70262 0.15317-1.4324-0.03217-2-0.40625-1.098-0.72366-1.6827-2.2055-1.4062-3.8438 9.95e-4 -0.021217-0.001021-0.041293 0-0.0625 0.006111-0.033384-0.006859-0.060224 0-0.09375h0.03125c0.31472-6.2902 1.704-12.14 2.9062-17.938 0.65442-2.9592 1.3572-5.9163 2.0625-8.8438-0.34469-0.60876-0.77479-0.90511-1.4375-1.0938-0.72986-0.20776-1.663-0.24711-2.5938-0.4375-0.031457-0.00365-0.062308 0.003533-0.09375 0-1.2695-0.14265-2.5287-0.17516-3.7812-0.125zm-3.0312 1.8125c1.0471 0.028395 2.1196 0.19957 3.1875 0.53125 0.010642 0.010189 0.021061 0.020608 0.03125 0.03125 1.0506 0.39455 2.1521 1.3823 2.25 2.9062 0.013006 0.12586 0.002408 0.25303-0.03125 0.375-2.3203 7.3923-4.8256 14.993-9.25 20.906 1.6e-4 0.010416 1.6e-4 0.020834 0 0.03125-1.0665 1.3784-2.4118 2.7323-4 3.5938s-3.5089 1.1792-5.4375 0.4375c-0.010416 1.6e-4 -0.020834 1.6e-4 -0.03125 0-1.4803-0.66204-2.3155-2.049-2.7812-3.4688s-0.63066-2.9417-0.65625-4.25c-0.30484-7.7158 3.3671-14.101 8-17.969 0.010416-1.6e-4 0.020834-1.6e-4 0.03125 0 2.4691-1.9825 5.5122-3.2111 8.6875-3.125z" style="fill:none;opacity:.4;stroke:url(#linearGradient3294)"/>
 <path id="text2396" d="m39.09 59.5-4.7785-15h-19.572l-4.8975 15h-6.3422c6.0386-17 12.077-34 18.116-51h5.7349c6.0498 17 12.1 34 18.149 51h-6.4096zm-6.7154-21-7.875-22.086-7.875 22.086h15.75z" style="fill:url(#linearGradient3266);stroke-width:1px;stroke:#333"/>
 <path id="path3422" d="m44.099 58.554-17.448-49.054h-4.3285l-17.465 49.217" style="fill:none;opacity:.3;stroke-width:1px;stroke:url(#linearGradient3263)"/>
 <path id="path3447" d="m24.5 13.5 9.3128 26h-18.626l9.3128-26z" style="fill:none;opacity:.2;stroke-linejoin:round;stroke-width:1px;stroke:url(#linearGradient3260)"/>
</svg>
