<?xml version="1.0" encoding="UTF-8"?>
<!-- Created with Inkscape (http://www.inkscape.org/) -->
<svg id="svg11300" width="48" height="48" version="1.1" xmlns="http://www.w3.org/2000/svg" xmlns:xlink="http://www.w3.org/1999/xlink">
 <defs id="defs3">
  <linearGradient id="linearGradient4909">
   <stop id="stop4911" style="stop-color:#747474" offset="0"/>
   <stop id="stop4913" style="stop-color:#b0b0b0" offset=".47842"/>
   <stop id="stop4915" style="stop-color:#3f3f3f" offset="1"/>
  </linearGradient>
  <linearGradient id="linearGradient4877">
   <stop id="stop4879" style="stop-color:#747474" offset="0"/>
   <stop id="stop4881" style="stop-color:#fff" offset=".45349"/>
   <stop id="stop4883" style="stop-color:#3f3f3f" offset="1"/>
  </linearGradient>
  <linearGradient id="linearGradient6215">
   <stop id="stop6217" style="stop-color:#cfb900" offset="0"/>
   <stop id="stop6219" style="stop-color:#e2d44d" offset=".21"/>
   <stop id="stop6221" style="stop-color:#9a8b00" offset=".84"/>
   <stop id="stop6223" style="stop-color:#cfb900" offset="1"/>
  </linearGradient>
  <linearGradient id="linearGradient2372-9">
   <stop id="stop2374-9" style="stop-color:#fff" offset="0"/>
   <stop id="stop2376-4" style="stop-color:#fff;stop-opacity:.34483" offset="1"/>
  </linearGradient>
  <radialGradient id="radialGradient3290" cx="17.059" cy="41.059" r="5.7385" fx="14.688" fy="37.456" gradientTransform="matrix(.68315 -.12186 .023986 .64784 14.799 .82992)" gradientUnits="userSpaceOnUse">
   <stop id="stop7069-9" style="stop-color:#fff" offset="0"/>
   <stop id="stop7071-3" style="stop-color:#fff;stop-opacity:0" offset="1"/>
  </radialGradient>
  <linearGradient id="linearGradient3293" x1="28.503" x2="26.257" y1="137.54" y2="125.39" gradientTransform="matrix(.23013 0 0 .23039 24.75 -23.779)" gradientUnits="userSpaceOnUse" xlink:href="#linearGradient2372-9"/>
  <radialGradient id="radialGradient3296" cx="17.059" cy="41.059" r="5.7385" fx="14.758" fy="37.841" gradientTransform="matrix(.71931 -.11624 .0157 .67008 27.048 -2.1362)" gradientUnits="userSpaceOnUse">
   <stop id="stop3670-7" style="stop-color:#fff" offset="0"/>
   <stop id="stop3672-4" style="stop-color:#fff;stop-opacity:0" offset="1"/>
  </radialGradient>
  <linearGradient id="linearGradient3299" x1="28.739" x2="26.257" y1="144.12" y2="125.39" gradientTransform="matrix(.31764 0 0 .23039 35.626 -25.882)" gradientUnits="userSpaceOnUse" xlink:href="#linearGradient2372-9"/>
  <radialGradient id="radialGradient2951" cx="24.454" cy="46.87" r="19.614" gradientTransform="matrix(.81573 0 0 .12746 3.0519 38.526)" gradientUnits="userSpaceOnUse">
   <stop id="stop3439" offset="0"/>
   <stop id="stop3441" style="stop-opacity:0" offset="1"/>
  </radialGradient>
  <linearGradient id="linearGradient2957" x1="35.934" x2="51.449" y1="22.75" y2="22.75" gradientTransform="translate(0,3)" gradientUnits="userSpaceOnUse" xlink:href="#linearGradient4877"/>
  <linearGradient id="linearGradient2960" x1="39" x2="47.5" y1="22.75" y2="22.75" gradientTransform="translate(0,3)" gradientUnits="userSpaceOnUse">
   <stop id="stop14975" style="stop-color:#747474" offset="0"/>
   <stop id="stop14977" style="stop-color:#b0b0b0" offset=".62069"/>
   <stop id="stop14979" style="stop-color:#3f3f3f" offset="1"/>
  </linearGradient>
  <radialGradient id="radialGradient2966" cx="4" cy="9.1705" r="19" gradientTransform="matrix(1.9989 .083289 -.052631 1.2631 -3.5131 4.0833)" gradientUnits="userSpaceOnUse">
   <stop id="stop7624" style="stop-color:#fff" offset="0"/>
   <stop id="stop7626" style="stop-color:#fff;stop-opacity:0" offset="1"/>
  </radialGradient>
  <linearGradient id="linearGradient2985" x1="12.647" x2="4.7127" y1="11.5" y2="11.5" gradientTransform="matrix(0 .66667 -1 0 29 20.667)" gradientUnits="userSpaceOnUse" xlink:href="#linearGradient6215"/>
  <linearGradient id="linearGradient3010" x1="8" x2="4.3284" y1="19.5" y2="19.5" gradientTransform="matrix(0 .66667 -1 0 29 11.667)" gradientUnits="userSpaceOnUse" xlink:href="#linearGradient6215"/>
  <linearGradient id="linearGradient3019" x1="24" x2="27" y1="19.5" y2="19.5" gradientTransform="matrix(-.66667 0 0 1 41 -1)" gradientUnits="userSpaceOnUse" xlink:href="#linearGradient6215"/>
  <linearGradient id="linearGradient3030" x1="8" x2="4.3284" y1="19.5" y2="19.5" gradientTransform="matrix(.66667 0 0 1 2.6667 -1)" gradientUnits="userSpaceOnUse" xlink:href="#linearGradient6215"/>
  <linearGradient id="linearGradient3033" x1="16.965" x2="18.968" y1="20.166" y2="31.347" gradientTransform="matrix(.93474 0 0 1.1494 .51875 -4.8596)" gradientUnits="userSpaceOnUse">
   <stop id="stop14863" style="stop-color:#fff" offset="0"/>
   <stop id="stop14865" style="stop-color:#fff;stop-opacity:0" offset="1"/>
  </linearGradient>
  <linearGradient id="linearGradient3050" x1="6.221" x2="6.2377" y1="42.891" y2="39.267" gradientTransform="matrix(1.9844 0 0 1 3.0938 -1.0136)" gradientUnits="userSpaceOnUse">
   <stop id="stop14782-0" style="stop-color:#d3ba00" offset="0"/>
   <stop id="stop14784-4" style="stop-color:#d3ba00;stop-opacity:0" offset="1"/>
  </linearGradient>
  <radialGradient id="radialGradient3058" cx="9" cy="15.407" r="20" gradientTransform="matrix(2.3161 .014304 -.01017 1.6466 -11.688 -4.4984)" gradientUnits="userSpaceOnUse">
   <stop id="stop14983-1" style="stop-color:#628430" offset="0"/>
   <stop id="stop14985-7" style="stop-color:#364d17" offset="1"/>
  </radialGradient>
  <linearGradient id="linearGradient3061" x1="42.366" x2="42.401" y1="15.05" y2="20.018" gradientTransform="matrix(1.1613 0 0 1.134 -5.8595 1.6172)" gradientUnits="userSpaceOnUse" xlink:href="#linearGradient4877"/>
  <linearGradient id="linearGradient3063" x1="43.161" x2="43.064" y1="13.901" y2="20.99" gradientTransform="matrix(1.1613 0 0 1.134 -5.8595 1.6172)" gradientUnits="userSpaceOnUse" xlink:href="#linearGradient4909"/>
  <linearGradient id="linearGradient3066" x1="42.366" x2="42.401" y1="15.05" y2="20.018" gradientTransform="matrix(1.1613 0 0 1.134 -5.8595 8.6172)" gradientUnits="userSpaceOnUse" xlink:href="#linearGradient4877"/>
  <linearGradient id="linearGradient3068" x1="43.161" x2="43.064" y1="13.901" y2="20.99" gradientTransform="matrix(1.1613 0 0 1.134 -5.8595 8.6172)" gradientUnits="userSpaceOnUse" xlink:href="#linearGradient4909"/>
 </defs>
 <rect id="rect4923" x="39.25" y="26.25" width="5.5" height="4.5" rx="1" ry="1" style="color:black;display:block;fill:url(#linearGradient3066);stroke-linecap:round;stroke-linejoin:round;stroke-width:.5;stroke:url(#linearGradient3068)"/>
 <rect id="rect15011" x="39.25" y="19.25" width="5.5" height="4.5" rx="1" ry="1" style="color:black;display:block;fill:url(#linearGradient3061);stroke-linecap:round;stroke-linejoin:round;stroke-width:.5;stroke:url(#linearGradient3063)"/>
 <path id="rect14772" d="m1.501 12.63 0.0039073 26.72c0 0.07888 0.088802 0.15021 0.18678 0.15021l10.812 0.01563-0.0039 4.8533c0 0.07127 0.0224 0.12634 0.12428 0.12677l18.756-0.0078c0.09242-0.0037 0.12428-0.06374 0.12428-0.12677l0.0039-4.8689 8.9924 0.0078v-26.997h-38.875c-0.078447 0.0043-0.13209 0.05255-0.12428 0.12677z" style="color:black;display:block;fill:url(#radialGradient3058);stroke:#28390d"/>
 <path id="path14957" d="m25 22.472 0.06435 0.53094 2.4244 1.8922v4.6038h-17.059v3.9333" style="color:black;display:block;fill:none;stroke-width:.5;stroke:#305526"/>
 <path id="path14826" d="m15.504 41.961 0.05485-5.645 1.901-2.7914h14.009l2.0442-2.0245 0.04419-3.0336-8.0431-5.9613 8.1101 0.04703-0.1875-3.9897h-8.9375" style="color:black;display:block;fill:none;stroke-width:.5;stroke:#305526"/>
 <path id="path14842" d="m19.5 41.961 0.05485-5.7807 1.901-2.6665" style="color:black;display:block;fill:none;stroke-width:.5;stroke:#305526"/>
 <path id="path14844" d="m22.5 41.961 0.05485-5.7807 1.901-2.6665" style="color:black;display:block;fill:none;stroke-width:.5;stroke:#305526"/>
 <path id="path14846" d="m25.544 41.961 0.054846-5.7807 1.901-2.6665" style="color:black;display:block;fill:none;stroke-width:.5;stroke:#305526"/>
 <path id="path14796" d="m15.719 38.594c-0.56509 0.12423-0.71875 0.66388-0.71875 0.90625v4.4062h2v-4.4062c0-0.277-0.20033-0.90625-1-0.90625-0.09801 0-0.20052-0.01775-0.28125 0zm3 0c-0.56509 0.12423-0.71875 0.66388-0.71875 0.90625v4.4062h2v-4.4062c0-0.277-0.20033-0.90625-1-0.90625-0.09801 0-0.20052-0.01775-0.28125 0zm3.0312 0c-0.56509 0.12423-0.75 0.66388-0.75 0.90625v4.4062h2v-4.4062c0-0.277-0.20033-0.90625-1-0.90625-0.09801 0-0.16927-0.01775-0.25 0zm3 0c-0.56509 0.12423-0.75 0.66388-0.75 0.90625v4.4062h2v-4.4062c0-0.277-0.20033-0.90625-1-0.90625-0.09801 0-0.16927-0.01775-0.25 0zm3 0c-0.56509 0.12423-0.75 0.66388-0.75 0.90625v4.4062h2v-4.4062c0-0.277-0.20033-0.90625-1-0.90625-0.09801 0-0.16927-0.01775-0.25 0z" style="color:black;display:block;fill:url(#linearGradient3050)"/>
 <path id="path14848" d="m28.5 41.961 0.05485-5.7807 1.901-2.6665" style="color:black;display:block;fill:none;stroke-width:.5;stroke:#305526"/>
 <path id="path15029" d="m6.5 18.5-2.9688 1.0625v1.875 10.062l7 0.0625" style="color:black;display:block;fill:none;stroke-width:.5;stroke:#305526"/>
 <rect id="rect14857" x="7.4722" y="16.504" width="16.056" height="7.9305" rx=".94194" ry=".94194" style="color:black;display:block;fill:#555753;stroke:#2e3436"/>
 <rect id="rect14859" x="8.4166" y="17.511" width="14.116" height="5.8817" rx="0" ry="0" style="color:black;display:block;fill:none;opacity:.17045;stroke:url(#linearGradient3033)"/>
 <path id="path15031" d="m6.5 20.5-2.9844 1.0625" style="color:black;display:block;fill:none;stroke-width:.5;stroke:#305526"/>
 <path id="path15033" d="m6.5 22.5-3 1.5" style="color:black;display:block;fill:#98a332;stroke-width:.5;stroke:#305526"/>
 <path id="rect14875" d="m23 18v1h2v-1h-2zm0 2v1h2v-1h-2zm0 2v1h2v-1h-2z" style="color:black;display:block;fill:url(#linearGradient3019)"/>
 <path id="rect14901" d="m9 15v2h1v-2h-1zm2 0v2h1v-2h-1zm2 0v2h1v-2h-1zm2 0v2h1v-2h-1zm2 0v2h1v-2h-1zm2 0v2h1v-2h-1zm2 0v2h1v-2h-1z" style="color:black;display:block;fill:url(#linearGradient3010)"/>
 <path id="path14959" d="m9.4576 25.76 1.0607 3.7391h1.9445l-1.0607-3.7391" style="color:black;display:block;fill:none;stroke-width:.5;stroke:#305526"/>
 <path id="path14961" d="m13.458 25.76 1.0607 3.7391h1.9445l-1.0607-3.7391" style="color:black;display:block;fill:none;stroke-width:.5;stroke:#305526"/>
 <path id="path14963" d="m17.458 25.86 1.0607 3.6391h1.9445l-1.0607-3.6391" style="color:black;display:block;fill:none;stroke-width:.5;stroke:#305526"/>
 <path id="path14965" d="m21.458 25.682 1.0607 3.8171" style="color:black;display:block;fill:none;stroke-width:.5;stroke:#305526"/>
 <path id="rect14929" d="m9 24v2h1v-2h-1zm2 0v2h1v-2h-1zm2 0v2h1v-2h-1zm2 0v2h1v-2h-1zm2 0v2h1v-2h-1zm2 0v2h1v-2h-1zm2 0v2h1v-2h-1z" style="color:black;display:block;fill:url(#linearGradient2985)"/>
 <path id="path14989" d="m2.5012 38.502 10.998-5.6e-5 0.01105 4.9831 17.001-0.0024-0.0029-4.9873 8.9915 0.0027c4e-3 -4.09e-4 0-24.994 0-24.994l-36.995-0.0022c0.00404 8.3386-0.0035 25-0.0035 25l7.39e-5 -9e-6z" style="color:black;display:block;fill:none;opacity:.4;stroke:url(#radialGradient2966)"/>
 <path id="path15001" d="m40.5 45v-38.5h5.5" style="color:black;display:block;fill:none;stroke-linecap:square;stroke-linejoin:round;stroke-width:3;stroke:url(#linearGradient2960)"/>
 <path id="path15003" d="m40.5 45v-38.5h5.5" style="color:black;display:block;fill:none;stroke-linecap:square;stroke-linejoin:round;stroke-width:2;stroke:url(#linearGradient2957)"/>
 <path id="path15005" d="m35.486 18a1.4857 1.4857 0 1 1-2.9714 0 1.4857 1.4857 0 1 1 2.9714 0z" style="color:black;display:block;fill:#477ec5;stroke-linecap:round;stroke-linejoin:round;stroke-width:.5;stroke:#334560"/>
 <path id="path15007" d="m35.486 22.986a1.4857 1.4857 0 1 1-2.9714 0 1.4857 1.4857 0 1 1 2.9714 0z" style="color:black;display:block;fill:#477ec5;stroke-linecap:round;stroke-linejoin:round;stroke-width:.5;stroke:#334560"/>
 <path id="path15009" d="m35.486 28.014a1.4857 1.4857 0 1 1-2.9714 0 1.4857 1.4857 0 1 1 2.9714 0z" style="color:black;display:block;fill:#477ec5;stroke-linecap:round;stroke-linejoin:round;stroke-width:.5;stroke:#334560"/>
 <path id="path2983" d="m39 44.5c0 1.3807-7.1634 2.5-16 2.5-8.8366 0-16-1.1193-16-2.5 0-1.3807 7.1634-2.5 16-2.5 8.8366 0 16 1.1193 16 2.5z" style="fill:url(#radialGradient2951);opacity:.45"/>
 <path id="path3406" d="m43.25 2.5011c-4.2818 0.68242-8.5755 1.2953-12.854 1.9951-1.1645 0.58241-0.74781 2.0616-0.82284 3.105-1e-6 4.5144 0 9.0289 0 13.543-2.9899-0.66412-6.4405 1.6607-6.4661 4.8187-0.13462 2.028 1.8287 3.7084 3.8039 3.5227 2.6774-0.13684 4.8762-2.7217 4.5896-5.4817-1e-6 -4.5149 0-9.7334 0-14.248 3.5311-0.50744 7.469-1.0655 11-1.5739-2e-6 3.4804 0 7.6644 0 11.145-2.865-0.8226-6.4744 1.0631-6.9492 4.0776-0.39697 1.7765 0.84864 3.5621 2.5501 4.0698 3.1849 1.0405 6.7747-2.0283 6.3991-5.3099-0.0087-6.1554 0.02682-12.311 0-18.466-0.07484-0.61183-0.58183-1.228-1.2505-1.1971z" style="fill:#6a9ab8;stroke-linecap:round;stroke-linejoin:round;stroke:#2f5371"/>
 <path id="path3996-9" d="m43.008 19.648 0.04234-11.737c0.44614-0.0578 0.0685-0.0093 0.6701-0.09587 0.0081 2.1923 0.01129 3.6688 0.01129 11.948 0 0.06161-0.25984-0.03092-0.72374-0.11603h3e-6z" style="fill-rule:evenodd;fill:url(#linearGradient3299);opacity:.4"/>
 <path id="path2716-1" d="m44.09 22.693c0 2.0919-1.848 4.1012-4.1277 4.4879-2.2797 0.38673-4.1277-0.99556-4.1277-3.0874 0-2.0919 1.848-4.1012 4.1277-4.4879 2.2797-0.38673 4.1277 0.99556 4.1277 3.0874z" style="fill:url(#radialGradient3296);opacity:.6"/>
 <path id="path2720-9" d="m30 21.858v-15.963s0.08338-0.8857 0.83777-0.88875c0.06556 0.11314 12.727-2.0473 12.727-2.0473s0.48454 1.2566-4.9911 2.0405c-7.7938 1.1157-7.574 1.6982-7.574 2.5v14.922c-0.16757-0.14251-0.6639-0.47821-1-0.56332z" style="fill-rule:evenodd;fill:url(#linearGradient3293);opacity:.4"/>
 <path id="path2712-6" d="m31.358 24.674c0 2.0233-1.7552 3.9667-3.9203 4.3408-2.1651 0.37405-3.9203-0.96293-3.9203-2.9862s1.7552-3.9667 3.9203-4.3408c2.1651-0.37405 3.9203 0.96293 3.9203 2.9862z" style="fill:url(#radialGradient3290);opacity:.6"/>
 <path id="rect14869" d="m6 18v1h2v-1h-2zm0 2v1h2v-1h-2zm0 2v1h2v-1h-2z" style="color:black;display:block;fill:url(#linearGradient3030)"/>
</svg>
