<?xml version="1.0" encoding="UTF-8"?>
<!-- Created with Inkscape (http://www.inkscape.org/) -->
<svg id="svg2" width="48" height="48" version="1.0" xmlns="http://www.w3.org/2000/svg" xmlns:xlink="http://www.w3.org/1999/xlink">
 <defs id="defs4">
  <linearGradient id="linearGradient4190">
   <stop id="stop4192" offset="0"/>
   <stop id="stop4194" style="stop-opacity:0" offset="1"/>
  </linearGradient>
  <linearGradient id="linearGradient7603">
   <stop id="stop7605" style="stop-color:#afafaf" offset="0"/>
   <stop id="stop7607" style="stop-color:#5a5a5a" offset="1"/>
  </linearGradient>
  <linearGradient id="linearGradient4135" x1="24.5" x2="24.5" y1="3" y2="44.5" gradientUnits="userSpaceOnUse" xlink:href="#linearGradient7603"/>
  <radialGradient id="radialGradient4143" cx="23.528" cy="10.895" r="2.5" gradientTransform="matrix(1.3889 -2.8719e-7 4.4279e-7 2.1414 -9.1501 -13.541)" gradientUnits="userSpaceOnUse">
   <stop id="stop4576" style="stop-color:#828282" offset="0"/>
   <stop id="stop4578" style="stop-color:#646662" offset="1"/>
  </radialGradient>
  <radialGradient id="radialGradient4172" cx="16.184" cy="16.539" r="13.477" gradientTransform="matrix(4.3195 -.085864 .060478 3.0424 -54.725 -36.555)" gradientUnits="userSpaceOnUse">
   <stop id="stop6546" style="stop-color:#fafafa" offset="0"/>
   <stop id="stop6548" style="stop-color:#c8c8c8" offset="1"/>
  </radialGradient>
  <linearGradient id="linearGradient4174" x1="24.559" x2="24.5" y1="3" y2="45" gradientUnits="userSpaceOnUse" xlink:href="#linearGradient7603"/>
  <linearGradient id="linearGradient4188" x1="23.823" x2="24.559" y1="4.1102" y2="44" gradientUnits="userSpaceOnUse">
   <stop id="stop6969" style="stop-color:#fff" offset="0"/>
   <stop id="stop6971" style="stop-color:#fff;stop-opacity:0" offset="1"/>
  </linearGradient>
  <linearGradient id="linearGradient4198" x1="16" x2="13" y1="33" y2="34" gradientUnits="userSpaceOnUse" xlink:href="#linearGradient4190"/>
  <linearGradient id="linearGradient4206" x1="32.99" x2="36" y1="33.05" y2="34" gradientUnits="userSpaceOnUse" xlink:href="#linearGradient4190"/>
  <radialGradient id="radialGradient3626" cx="4.6022" cy="34.157" r="8.3415" gradientTransform="matrix(1 0 0 .74569 0 8.6866)" gradientUnits="userSpaceOnUse" xlink:href="#linearGradient4190"/>
 </defs>
 <path id="path3616" transform="matrix(1.7383 0 0 1.045 16.5 4.8057)" d="m12.944 34.157a8.3415 6.2201 0 1 1-16.683 0 8.3415 6.2201 0 1 1 16.683 0z" style="fill:url(#radialGradient3626);opacity:.5"/>
 <path id="path3068" d="m24.594 3.5c-4.3688 0-8.7566 0.99732-10.812 2.9688-3.1198 6.5816-2.3956 12.75-1.0312 19.031-0.17356 4.5886-0.48988 4.5 0 9h0.03125c0.4244 5.5842 5.5348 10 11.75 10s11.294-4.4158 11.719-10c0.50992-4.4085 0.10564-4.5483 0.03125-8.7812 1.4-6.358 2.2501-12.591-0.90625-19.25-2.0559-1.9714-6.4124-2.9688-10.781-2.9688z" style="fill:url(#radialGradient4172);stroke:url(#linearGradient4174)"/>
 <rect id="rect4176" x="23.5" y="4" width="2" height="20.5" style="fill:#fff;opacity:.6"/>
 <path id="path4184" d="m24.594 4.5c-4.1229 0-8.2249 1.0522-9.9688 2.5938-2.8896 6.2401-2.244 12.029-0.90625 18.188a0.98841 0.98841 0 0 1 0.03125 0.25c-0.17154 4.5353-0.47291 4.5188-0.03125 8.6875a0.98841 0.98841 0 0 1 0 0.03125 0.98841 0.98841 0 0 1 0.0625 0.1875c0.38196 5.0257 5.0029 9.0625 10.75 9.0625s10.337-4.0331 10.719-9.0625a0.98841 0.98841 0 0 1 0.03125-0.0625c0.50279-4.3469 0.07549-4.3295 0-8.625a0.98841 0.98841 0 0 1 0.03125-0.25c1.3751-6.2448 2.1382-12.098-0.78125-18.406-1.7457-1.5446-5.8146-2.5938-9.9375-2.5938z" style="fill:none;opacity:.7;stroke:url(#linearGradient4188)"/>
 <rect id="rect3847" x="24" y="3" width="1" height="21" style="fill:url(#linearGradient4135)"/>
 <rect id="rect3845" x="22.5" y="7.5" width="4" height="9" rx="2" ry="2" style="fill:url(#radialGradient4143);stroke-linecap:round;stroke-linejoin:round;stroke:#5a5a5a"/>
 <path id="path4161" d="m35.8 25.6c-1.0312 4.4592-2.8 9.4-2.8 14.9 0.9779-1.1906 3.1547-2.5 3-10.5l-0.2-4.4z" style="fill:url(#linearGradient4206);opacity:.5"/>
 <path id="path4164" d="m13.198 25.3c1.0312 4.4592 2.8025 9.7 2.8 15.2-0.9779-1.1906-3.1547-2.5-3-10.5l0.2-4.7z" style="fill:url(#linearGradient4198);opacity:.5"/>
</svg>
