<?xml version="1.0" encoding="UTF-8"?>
<!-- Created with Inkscape (http://www.inkscape.org/) -->
<svg id="svg2" width="64" height="64" version="1.0" xmlns="http://www.w3.org/2000/svg" xmlns:xlink="http://www.w3.org/1999/xlink">
 <defs id="defs4">
  <linearGradient id="linearGradient7093">
   <stop id="stop7095" style="stop-color:#fff" offset="0"/>
   <stop id="stop7097" style="stop-color:#fff;stop-opacity:0" offset="1"/>
  </linearGradient>
  <linearGradient id="linearGradient5060">
   <stop id="stop5062" offset="0"/>
   <stop id="stop5064" style="stop-opacity:0" offset="1"/>
  </linearGradient>
  <linearGradient id="linearGradient6270">
   <stop id="stop6272" style="stop-color:#ebebeb" offset="0"/>
   <stop id="stop6274" style="stop-color:#bebebe" offset="1"/>
  </linearGradient>
  <linearGradient id="linearGradient7010" x1="302.86" x2="302.86" y1="366.65" y2="609.51" gradientTransform="matrix(2.7744 0 0 1.9697 -1892.2 -872.89)" gradientUnits="userSpaceOnUse">
   <stop id="stop5050" style="stop-opacity:0" offset="0"/>
   <stop id="stop5056" offset=".5"/>
   <stop id="stop5052" style="stop-opacity:0" offset="1"/>
  </linearGradient>
  <radialGradient id="radialGradient7012" cx="605.71" cy="486.65" r="117.14" gradientTransform="matrix(2.7744 0 0 1.9697 -1891.6 -872.89)" gradientUnits="userSpaceOnUse" xlink:href="#linearGradient5060"/>
  <radialGradient id="radialGradient7014" cx="605.71" cy="486.65" r="117.14" gradientTransform="matrix(-2.7744 0 0 1.9697 112.76 -872.89)" gradientUnits="userSpaceOnUse" xlink:href="#linearGradient5060"/>
  <radialGradient id="radialGradient7028" cx="6.5" cy="16.5" r="2" gradientTransform="translate(-.079486 23.336)" gradientUnits="userSpaceOnUse">
   <stop id="stop6445" style="stop-color:#f7ff00" offset="0"/>
   <stop id="stop6447" style="stop-color:#0f0" offset="1"/>
  </radialGradient>
  <linearGradient id="linearGradient7064" x1="29" x2="29.125" y1="11" y2="21" gradientTransform="matrix(.9948 0 0 1.0002 .16246 1.2974)" gradientUnits="userSpaceOnUse" xlink:href="#linearGradient6270"/>
  <linearGradient id="linearGradient7066" x1="24" x2="24" y1="11" y2="21" gradientTransform="matrix(.9948 0 0 1.0002 .16246 1.2974)" gradientUnits="userSpaceOnUse">
   <stop id="stop6370" style="stop-color:#a0a0a0" offset="0"/>
   <stop id="stop6372" style="stop-color:#646464" offset="1"/>
  </linearGradient>
  <linearGradient id="linearGradient7069" x1="26.625" x2="26.625" y1="23" y2="33" gradientTransform="matrix(.99653 0 0 1.0001 .15844 .59758)" gradientUnits="userSpaceOnUse" xlink:href="#linearGradient6270"/>
  <linearGradient id="linearGradient7072" x1="26.5" x2="26.75" y1="35" y2="45" gradientTransform="matrix(.99667 0 0 .98409 .1551 .46346)" gradientUnits="userSpaceOnUse" xlink:href="#linearGradient6270"/>
  <linearGradient id="linearGradient7077" x1="22.135" x2="22.262" y1="6.8917" y2="22.861" gradientTransform="translate(0 1)" gradientUnits="userSpaceOnUse" xlink:href="#linearGradient6270"/>
  <linearGradient id="linearGradient7099" x1="25" x2="25.088" y1="11.851" y2="19.939" gradientTransform="matrix(1.0055 0 0 .99972 -.093129 .0047255)" gradientUnits="userSpaceOnUse" xlink:href="#linearGradient7093"/>
  <linearGradient id="linearGradient7103" x1="25" x2="25" y1="12.116" y2="19.939" gradientTransform="matrix(1.0073 0 0 .99963 -.099169 11.382)" gradientUnits="userSpaceOnUse" xlink:href="#linearGradient7093"/>
  <linearGradient id="linearGradient7107" x1="25" x2="25" y1="12.028" y2="20.205" gradientTransform="matrix(1.0055 0 0 .99972 -.093129 22.606)" gradientUnits="userSpaceOnUse" xlink:href="#linearGradient7093"/>
 </defs>
 <g id="layer1" transform="matrix(1.33 0 0 1.33 .020007 .555)">
  <g id="g7109">
   <g id="g5022" transform="matrix(.02364 0 0 .012543 45.026 42.642)" style="opacity:.5873">
    <rect id="rect4173" x="-1559.3" y="-150.7" width="1339.6" height="478.36" style="fill:url(#linearGradient7010);opacity:.40206"/>
    <path id="path5058" d="m-219.62-150.68v478.33c142.87 0.90045 345.4-107.17 345.4-239.2 0-132.03-159.44-239.13-345.4-239.13z" style="fill:url(#radialGradient7012);opacity:.40206"/>
    <path id="path5018" d="m-1559.3-150.68v478.33c-142.87 0.90045-345.4-107.17-345.4-239.2 0-132.03 159.44-239.13 345.4-239.13z" style="fill:url(#radialGradient7014);opacity:.40206"/>
   </g>
   <path id="path6259" d="m9.5 5.2744h29l6.9159 8.2256h-42.664l6.7477-8.2256z" style="fill:url(#linearGradient7077);stroke-linecap:square;stroke-linejoin:round;stroke-width:.75188;stroke:#8c8c8c"/>
   <path id="rect6252" d="m9.5 26.5h29l6.6636 9.2524-42.495 0.25231 6.8318-9.5047z" style="fill:#3c3c3c;stroke-linecap:square;stroke-linejoin:round;stroke-width:.75188;stroke:#282828"/>
   <path id="path6255" d="m9.5 15.5h29l6.8318 9.2524-42.664-0.25231 6.8318-9.0001z" style="fill:#3c3c3c;stroke-linecap:square;stroke-linejoin:round;stroke-width:.75188;stroke:#282828"/>
   <rect id="rect5480" x="2.6467" y="35.399" width="42.857" height="8.8569" style="fill:url(#linearGradient7072);stroke-linecap:square;stroke-linejoin:round;stroke-width:.74463;stroke:#646464"/>
   <rect id="rect6257" x="2.6497" y="24.101" width="42.851" height="9.0013" style="fill:url(#linearGradient7069);stroke-linecap:square;stroke-linejoin:round;stroke-width:.75063;stroke:#646464"/>
   <rect id="rect6261" x="2.6494" y="12.8" width="42.776" height="9.0019" style="fill:url(#linearGradient7064);stroke-linecap:square;stroke-linejoin:round;stroke-width:.75;stroke:url(#linearGradient7066)"/>
   <path id="path6441" d="m7.9205 39.836a1.5 1.5 0 0 1-3 0 1.5 1.5 0 1 1 3 0zm0-11.376a1.5 1.5 0 0 1-3 0 1.5 1.5 0 1 1 3 0zm-0.0037644-11.164a1.5 1.5 0 0 1-3 0 1.5 1.5 0 1 1 3 0z" style="fill:url(#radialGradient7028);stroke-linecap:square;stroke-linejoin:round;stroke-width:.75188;stroke:#828282"/>
   <path id="path6477" d="m11.385 39.586a1.1593 1.1593 0 0 1-2.3185 0 1.1593 1.1593 0 1 1 2.3185 0zm-0.07519-11.383a1.1593 1.1593 0 0 1-2.3185 0 1.1593 1.1593 0 1 1 2.3185 0zm0.07519-11.233a1.1593 1.1593 0 0 1-2.3185 0 1.1593 1.1593 0 1 1 2.3185 0z" style="fill:#fafafa"/>
   <path id="path6471" d="m11.385 39.934a1.1593 1.1593 0 0 1-2.3185 0 1.1593 1.1593 0 1 1 2.3185 0zm-0.07519-11.383a1.1593 1.1593 0 0 1-2.3185 0 1.1593 1.1593 0 1 1 2.3185 0zm0.07519-11.233a1.1593 1.1593 0 0 1-2.3185 0 1.1593 1.1593 0 1 1 2.3185 0z" style="fill:#3c3c3c"/>
   <rect id="rect6489" x="13.519" y="26.65" width="1.5038" height="1.5038" style="fill:#808080"/>
   <rect id="rect6491" x="16.526" y="26.65" width="1.5038" height="1.5038" style="fill:#808080"/>
   <rect id="rect6493" x="19.534" y="26.65" width="1.5038" height="1.5038" style="fill:#808080"/>
   <rect id="rect6499" x="13.519" y="37.929" width="1.5038" height="1.5037" style="fill:#808080"/>
   <rect id="rect6501" x="16.526" y="37.929" width="1.5038" height="1.5037" style="fill:#808080"/>
   <rect id="rect6503" x="19.534" y="37.929" width="1.5038" height="1.5038" style="fill:#808080"/>
   <path id="rect6505" d="m22.541 37.929h1.5038v1.5037h-1.5038v-1.5037zm0-11.278h1.5038v1.5038h-1.5038v-1.5038zm0-11.278h1.5038v1.5038h-1.5038v-1.5038zm-3.0075 0h1.5038v1.5038h-1.5038v-1.5038zm-3.0075 0h1.5038v1.5038h-1.5038v-1.5038zm-3.0075 0h1.5038v1.5038h-1.5038v-1.5038z" style="fill:#808080"/>
   <path id="rect6507" d="m13.519 40.936h10.526v0.75188h-10.526v-0.75188zm0-11.278h10.526v0.75188h-10.526v-0.75188zm0-11.278h10.526v0.75189h-10.526v-0.75189z" style="fill:#808080"/>
   <rect id="rect7083" x="3.4258" y="13.501" width="41.224" height="6.9985" style="fill:none;opacity:.8;stroke-linecap:square;stroke-width:.75383;stroke:url(#linearGradient7099)"/>
   <rect id="rect7101" x="3.4261" y="24.877" width="41.299" height="6.9978" style="fill:none;opacity:.8;stroke-linecap:square;stroke-width:.75447;stroke:url(#linearGradient7103)"/>
   <rect id="rect7105" x="3.4258" y="36.102" width="41.224" height="6.9985" style="fill:none;opacity:.8;stroke-linecap:square;stroke-width:.75383;stroke:url(#linearGradient7107)"/>
   <path id="path3764" d="m43.274 18.053c-0.276 0-0.5 0.224-0.5 0.5s0.224 0.5 0.5 0.5 0.5-0.224 0.5-0.5-0.224-0.5-0.5-0.5zm-1.5038 0c-0.276 0-0.5 0.224-0.5 0.5s0.224 0.5 0.5 0.5 0.5-0.224 0.5-0.5-0.224-0.5-0.5-0.5zm-1.5489 0c-0.276 0-0.5 0.224-0.5 0.5s0.224 0.5 0.5 0.5 0.5-0.224 0.5-0.5-0.224-0.5-0.5-0.5zm-1.4737 0c-0.276 0-0.5 0.224-0.5 0.5s0.224 0.5 0.5 0.5 0.5-0.224 0.5-0.5-0.224-0.5-0.5-0.5zm-1.4737 0c-0.276 0-0.5 0.224-0.5 0.5s0.224 0.5 0.5 0.5 0.5-0.224 0.5-0.5-0.224-0.5-0.5-0.5zm6-1.5038c-0.276 0-0.5 0.224-0.5 0.5s0.224 0.5 0.5 0.5 0.5-0.224 0.5-0.5-0.224-0.5-0.5-0.5zm-1.5038 0c-0.276 0-0.5 0.224-0.5 0.5s0.224 0.5 0.5 0.5 0.5-0.224 0.5-0.5-0.224-0.5-0.5-0.5zm-1.5489 0c-0.276 0-0.5 0.224-0.5 0.5s0.224 0.5 0.5 0.5 0.5-0.224 0.5-0.5-0.224-0.5-0.5-0.5zm-1.4737 0c-0.276 0-0.5 0.224-0.5 0.5s0.224 0.5 0.5 0.5 0.5-0.224 0.5-0.5-0.224-0.5-0.5-0.5zm-1.4737 0c-0.276 0-0.5 0.224-0.5 0.5s0.224 0.5 0.5 0.5 0.5-0.224 0.5-0.5-0.224-0.5-0.5-0.5zm6-1.5038c-0.276 0-0.5 0.224-0.5 0.5s0.224 0.5 0.5 0.5 0.5-0.224 0.5-0.5-0.224-0.5-0.5-0.5zm-1.5038 0c-0.276 0-0.5 0.224-0.5 0.5s0.224 0.5 0.5 0.5 0.5-0.224 0.5-0.5-0.224-0.5-0.5-0.5zm-1.5489 0c-0.276 0-0.5 0.224-0.5 0.5s0.224 0.5 0.5 0.5 0.5-0.224 0.5-0.5-0.224-0.5-0.5-0.5zm-1.4737 0c-0.276 0-0.5 0.224-0.5 0.5s0.224 0.5 0.5 0.5 0.5-0.224 0.5-0.5-0.224-0.5-0.5-0.5zm-1.4737 0c-0.276 0-0.5 0.224-0.5 0.5s0.224 0.5 0.5 0.5 0.5-0.224 0.5-0.5-0.224-0.5-0.5-0.5zm5.9248 14.361c-0.276 0-0.5 0.224-0.5 0.5s0.224 0.5 0.5 0.5 0.5-0.224 0.5-0.5-0.224-0.5-0.5-0.5zm-1.5038 0c-0.276 0-0.5 0.224-0.5 0.5s0.224 0.5 0.5 0.5 0.5-0.224 0.5-0.5-0.224-0.5-0.5-0.5zm-1.5489 0c-0.276 0-0.5 0.224-0.5 0.5s0.224 0.5 0.5 0.5 0.5-0.224 0.5-0.5-0.224-0.5-0.5-0.5zm-1.4737 0c-0.276 0-0.5 0.224-0.5 0.5s0.224 0.5 0.5 0.5 0.5-0.224 0.5-0.5-0.224-0.5-0.5-0.5zm-1.4737 0c-0.276 0-0.5 0.224-0.5 0.5s0.224 0.5 0.5 0.5 0.5-0.224 0.5-0.5-0.224-0.5-0.5-0.5zm6-1.5038c-0.276 0-0.5 0.224-0.5 0.5s0.224 0.5 0.5 0.5 0.5-0.224 0.5-0.5-0.224-0.5-0.5-0.5zm-1.5038 0c-0.276 0-0.5 0.224-0.5 0.5s0.224 0.5 0.5 0.5 0.5-0.224 0.5-0.5-0.224-0.5-0.5-0.5zm-1.5489 0c-0.276 0-0.5 0.224-0.5 0.5s0.224 0.5 0.5 0.5 0.5-0.224 0.5-0.5-0.224-0.5-0.5-0.5zm-1.4737 0c-0.276 0-0.5 0.224-0.5 0.5s0.224 0.5 0.5 0.5 0.5-0.224 0.5-0.5-0.224-0.5-0.5-0.5zm-1.4737 0c-0.276 0-0.5 0.224-0.5 0.5s0.224 0.5 0.5 0.5 0.5-0.224 0.5-0.5-0.224-0.5-0.5-0.5zm6-1.5038c-0.276 0-0.5 0.224-0.5 0.5s0.224 0.5 0.5 0.5 0.5-0.224 0.5-0.5-0.224-0.5-0.5-0.5zm-1.5038 0c-0.276 0-0.5 0.224-0.5 0.5s0.224 0.5 0.5 0.5 0.5-0.224 0.5-0.5-0.224-0.5-0.5-0.5zm-1.5489 0c-0.276 0-0.5 0.224-0.5 0.5s0.224 0.5 0.5 0.5 0.5-0.224 0.5-0.5-0.224-0.5-0.5-0.5zm-1.4737 0c-0.276 0-0.5 0.224-0.5 0.5s0.224 0.5 0.5 0.5 0.5-0.224 0.5-0.5-0.224-0.5-0.5-0.5zm-1.4737 0c-0.276 0-0.5 0.224-0.5 0.5s0.224 0.5 0.5 0.5 0.5-0.224 0.5-0.5-0.224-0.5-0.5-0.5zm6.0752 14.286c-0.276 0-0.5 0.224-0.5 0.5s0.224 0.5 0.5 0.5 0.5-0.224 0.5-0.5-0.224-0.5-0.5-0.5zm-1.5038 0c-0.276 0-0.5 0.224-0.5 0.5s0.224 0.5 0.5 0.5 0.5-0.224 0.5-0.5-0.224-0.5-0.5-0.5zm-1.5489 0c-0.276 0-0.5 0.224-0.5 0.5s0.224 0.5 0.5 0.5 0.5-0.224 0.5-0.5-0.224-0.5-0.5-0.5zm-1.4737 0c-0.276 0-0.5 0.224-0.5 0.5s0.224 0.5 0.5 0.5 0.5-0.224 0.5-0.5-0.224-0.5-0.5-0.5zm-1.4737 0c-0.276 0-0.5 0.224-0.5 0.5s0.224 0.5 0.5 0.5 0.5-0.224 0.5-0.5-0.224-0.5-0.5-0.5zm6-1.5038c-0.276 0-0.5 0.224-0.5 0.5s0.224 0.5 0.5 0.5 0.5-0.224 0.5-0.5-0.224-0.5-0.5-0.5zm-1.5038 0c-0.276 0-0.5 0.224-0.5 0.5s0.224 0.5 0.5 0.5 0.5-0.224 0.5-0.5-0.224-0.5-0.5-0.5zm-1.5489 0c-0.276 0-0.5 0.224-0.5 0.5s0.224 0.5 0.5 0.5 0.5-0.224 0.5-0.5-0.224-0.5-0.5-0.5zm-1.4737 0c-0.276 0-0.5 0.224-0.5 0.5s0.224 0.5 0.5 0.5 0.5-0.224 0.5-0.5-0.224-0.5-0.5-0.5zm-1.4737 0c-0.276 0-0.5 0.224-0.5 0.5s0.224 0.5 0.5 0.5 0.5-0.224 0.5-0.5-0.224-0.5-0.5-0.5zm6-1.5038c-0.276 0-0.5 0.224-0.5 0.5s0.224 0.5 0.5 0.5 0.5-0.224 0.5-0.5-0.224-0.5-0.5-0.5zm-1.5038 0c-0.276 0-0.5 0.224-0.5 0.5s0.224 0.5 0.5 0.5 0.5-0.224 0.5-0.5-0.224-0.5-0.5-0.5zm-1.5489 0c-0.276 0-0.5 0.224-0.5 0.5s0.224 0.5 0.5 0.5 0.5-0.224 0.5-0.5-0.224-0.5-0.5-0.5zm-1.4737 0c-0.276 0-0.5 0.224-0.5 0.5s0.224 0.5 0.5 0.5 0.5-0.224 0.5-0.5-0.224-0.5-0.5-0.5zm-1.4737 0c-0.276 0-0.5 0.224-0.5 0.5s0.224 0.5 0.5 0.5 0.5-0.224 0.5-0.5-0.224-0.5-0.5-0.5z" style="fill:#fff"/>
   <path id="path3766" d="m43.274 18.278c-0.276 0-0.5 0.224-0.5 0.5s0.224 0.5 0.5 0.5 0.5-0.224 0.5-0.5-0.224-0.5-0.5-0.5zm-1.5038 0c-0.276 0-0.5 0.224-0.5 0.5s0.224 0.5 0.5 0.5 0.5-0.224 0.5-0.5-0.224-0.5-0.5-0.5zm-1.5489 0c-0.276 0-0.5 0.224-0.5 0.5s0.224 0.5 0.5 0.5 0.5-0.224 0.5-0.5-0.224-0.5-0.5-0.5zm-1.4737 0c-0.276 0-0.5 0.224-0.5 0.5s0.224 0.5 0.5 0.5 0.5-0.224 0.5-0.5-0.224-0.5-0.5-0.5zm-1.4737 0c-0.276 0-0.5 0.224-0.5 0.5s0.224 0.5 0.5 0.5 0.5-0.224 0.5-0.5-0.224-0.5-0.5-0.5zm6-1.5038c-0.276 0-0.5 0.224-0.5 0.5s0.224 0.5 0.5 0.5 0.5-0.224 0.5-0.5-0.224-0.5-0.5-0.5zm-1.5038 0c-0.276 0-0.5 0.224-0.5 0.5s0.224 0.5 0.5 0.5 0.5-0.224 0.5-0.5-0.224-0.5-0.5-0.5zm-1.5489 0c-0.276 0-0.5 0.224-0.5 0.5s0.224 0.5 0.5 0.5 0.5-0.224 0.5-0.5-0.224-0.5-0.5-0.5zm-1.4737 0c-0.276 0-0.5 0.224-0.5 0.5s0.224 0.5 0.5 0.5 0.5-0.224 0.5-0.5-0.224-0.5-0.5-0.5zm-1.4737 0c-0.276 0-0.5 0.224-0.5 0.5s0.224 0.5 0.5 0.5 0.5-0.224 0.5-0.5-0.224-0.5-0.5-0.5zm6-1.5038c-0.276 0-0.5 0.224-0.5 0.5s0.224 0.5 0.5 0.5 0.5-0.224 0.5-0.5-0.224-0.5-0.5-0.5zm-1.5038 0c-0.276 0-0.5 0.224-0.5 0.5s0.224 0.5 0.5 0.5 0.5-0.224 0.5-0.5-0.224-0.5-0.5-0.5zm-1.5489 0c-0.276 0-0.5 0.224-0.5 0.5s0.224 0.5 0.5 0.5 0.5-0.224 0.5-0.5-0.224-0.5-0.5-0.5zm-1.4737 0c-0.276 0-0.5 0.224-0.5 0.5s0.224 0.5 0.5 0.5 0.5-0.224 0.5-0.5-0.224-0.5-0.5-0.5zm-1.4737 0c-0.276 0-0.5 0.224-0.5 0.5s0.224 0.5 0.5 0.5 0.5-0.224 0.5-0.5-0.224-0.5-0.5-0.5zm5.9248 14.361c-0.276 0-0.5 0.224-0.5 0.5s0.224 0.5 0.5 0.5 0.5-0.224 0.5-0.5-0.224-0.5-0.5-0.5zm-1.5038 0c-0.276 0-0.5 0.224-0.5 0.5s0.224 0.5 0.5 0.5 0.5-0.224 0.5-0.5-0.224-0.5-0.5-0.5zm-1.5489 0c-0.276 0-0.5 0.224-0.5 0.5s0.224 0.5 0.5 0.5 0.5-0.224 0.5-0.5-0.224-0.5-0.5-0.5zm-1.4737 0c-0.276 0-0.5 0.224-0.5 0.5s0.224 0.5 0.5 0.5 0.5-0.224 0.5-0.5-0.224-0.5-0.5-0.5zm-1.4737 0c-0.276 0-0.5 0.224-0.5 0.5s0.224 0.5 0.5 0.5 0.5-0.224 0.5-0.5-0.224-0.5-0.5-0.5zm6-1.5038c-0.276 0-0.5 0.224-0.5 0.5s0.224 0.5 0.5 0.5 0.5-0.224 0.5-0.5-0.224-0.5-0.5-0.5zm-1.5038 0c-0.276 0-0.5 0.224-0.5 0.5s0.224 0.5 0.5 0.5 0.5-0.224 0.5-0.5-0.224-0.5-0.5-0.5zm-1.5489 0c-0.276 0-0.5 0.224-0.5 0.5s0.224 0.5 0.5 0.5 0.5-0.224 0.5-0.5-0.224-0.5-0.5-0.5zm-1.4737 0c-0.276 0-0.5 0.224-0.5 0.5s0.224 0.5 0.5 0.5 0.5-0.224 0.5-0.5-0.224-0.5-0.5-0.5zm-1.4737 0c-0.276 0-0.5 0.224-0.5 0.5s0.224 0.5 0.5 0.5 0.5-0.224 0.5-0.5-0.224-0.5-0.5-0.5zm6-1.5038c-0.276 0-0.5 0.224-0.5 0.5s0.224 0.5 0.5 0.5 0.5-0.224 0.5-0.5-0.224-0.5-0.5-0.5zm-1.5038 0c-0.276 0-0.5 0.224-0.5 0.5s0.224 0.5 0.5 0.5 0.5-0.224 0.5-0.5-0.224-0.5-0.5-0.5zm-1.5489 0c-0.276 0-0.5 0.224-0.5 0.5s0.224 0.5 0.5 0.5 0.5-0.224 0.5-0.5-0.224-0.5-0.5-0.5zm-1.4737 0c-0.276 0-0.5 0.224-0.5 0.5s0.224 0.5 0.5 0.5 0.5-0.224 0.5-0.5-0.224-0.5-0.5-0.5zm-1.4737 0c-0.276 0-0.5 0.224-0.5 0.5s0.224 0.5 0.5 0.5 0.5-0.224 0.5-0.5-0.224-0.5-0.5-0.5zm6.0752 14.286c-0.276 0-0.5 0.224-0.5 0.5s0.224 0.5 0.5 0.5 0.5-0.224 0.5-0.5-0.224-0.5-0.5-0.5zm-1.5038 0c-0.276 0-0.5 0.224-0.5 0.5s0.224 0.5 0.5 0.5 0.5-0.224 0.5-0.5-0.224-0.5-0.5-0.5zm-1.5489 0c-0.276 0-0.5 0.224-0.5 0.5s0.224 0.5 0.5 0.5 0.5-0.224 0.5-0.5-0.224-0.5-0.5-0.5zm-1.4737 0c-0.276 0-0.5 0.224-0.5 0.5s0.224 0.5 0.5 0.5 0.5-0.224 0.5-0.5-0.224-0.5-0.5-0.5zm-1.4737 0c-0.276 0-0.5 0.224-0.5 0.5s0.224 0.5 0.5 0.5 0.5-0.224 0.5-0.5-0.224-0.5-0.5-0.5zm6-1.5038c-0.276 0-0.5 0.224-0.5 0.5s0.224 0.5 0.5 0.5 0.5-0.224 0.5-0.5-0.224-0.5-0.5-0.5zm-1.5038 0c-0.276 0-0.5 0.224-0.5 0.5s0.224 0.5 0.5 0.5 0.5-0.224 0.5-0.5-0.224-0.5-0.5-0.5zm-1.5489 0c-0.276 0-0.5 0.224-0.5 0.5s0.224 0.5 0.5 0.5 0.5-0.224 0.5-0.5-0.224-0.5-0.5-0.5zm-1.4737 0c-0.276 0-0.5 0.224-0.5 0.5s0.224 0.5 0.5 0.5 0.5-0.224 0.5-0.5-0.224-0.5-0.5-0.5zm-1.4737 0c-0.276 0-0.5 0.224-0.5 0.5s0.224 0.5 0.5 0.5 0.5-0.224 0.5-0.5-0.224-0.5-0.5-0.5zm6-1.5038c-0.276 0-0.5 0.224-0.5 0.5s0.224 0.5 0.5 0.5 0.5-0.224 0.5-0.5-0.224-0.5-0.5-0.5zm-1.5038 0c-0.276 0-0.5 0.224-0.5 0.5s0.224 0.5 0.5 0.5 0.5-0.224 0.5-0.5-0.224-0.5-0.5-0.5zm-1.5489 0c-0.276 0-0.5 0.224-0.5 0.5s0.224 0.5 0.5 0.5 0.5-0.224 0.5-0.5-0.224-0.5-0.5-0.5zm-1.4737 0c-0.276 0-0.5 0.224-0.5 0.5s0.224 0.5 0.5 0.5 0.5-0.224 0.5-0.5-0.224-0.5-0.5-0.5zm-1.4737 0c-0.276 0-0.5 0.224-0.5 0.5s0.224 0.5 0.5 0.5 0.5-0.224 0.5-0.5-0.224-0.5-0.5-0.5z" style="fill:#666"/>
  </g>
 </g>
</svg>
