<?xml version="1.0" encoding="UTF-8"?>
<!-- Created with Inkscape (http://www.inkscape.org/) -->
<svg id="svg4289" width="48" height="48" version="1.1" xmlns="http://www.w3.org/2000/svg" xmlns:xlink="http://www.w3.org/1999/xlink">
 <defs id="defs4291">
  <linearGradient id="linearGradient2871" x1="-2.8532" x2="28.06" y1="19.599" y2="19.599" gradientTransform="matrix(1.3263 0 0 1.3354 -7.2158 -2.173)" gradientUnits="userSpaceOnUse">
   <stop id="stop3929" style="stop-color:#8badea" offset="0"/>
   <stop id="stop3931" style="stop-color:#6396cd" offset=".34315"/>
   <stop id="stop3933" style="stop-color:#3b7caf" offset=".69598"/>
   <stop id="stop3935" style="stop-color:#206494" offset="1"/>
  </linearGradient>
  <linearGradient id="linearGradient3943" x1="30" x2="-11" y1="30" y2="30" gradientUnits="userSpaceOnUse">
   <stop id="stop2788" style="stop-color:#1f4a69" offset="0"/>
   <stop id="stop2790" style="stop-color:#4083c2" offset="1"/>
  </linearGradient>
  <linearGradient id="linearGradient3975" x1="11.016" x2="25" y1="25.002" y2="25" gradientUnits="userSpaceOnUse">
   <stop id="stop4122" style="stop-color:#fff" offset="0"/>
   <stop id="stop4124" style="stop-color:#fff;stop-opacity:.23529" offset="1"/>
  </linearGradient>
  <radialGradient id="radialGradient3991" cx="62.625" cy="4.625" r="10.625" gradientTransform="matrix(2.3529 0 0 .51765 -123.35 38.106)" gradientUnits="userSpaceOnUse">
   <stop id="stop8840" offset="0"/>
   <stop id="stop8842" style="stop-opacity:0" offset="1"/>
  </radialGradient>
  <linearGradient id="linearGradient4007" x1="1.9997" x2="37.661" y1="24.491" y2="24.491" gradientUnits="userSpaceOnUse">
   <stop id="stop4875" style="stop-color:#fff" offset="0"/>
   <stop id="stop4877" style="stop-color:#fff;stop-opacity:0" offset="1"/>
  </linearGradient>
 </defs>
 <path id="path8836" d="m49 40.5c0 3.0376-11.193 5.5-25 5.5-13.807 0-25-2.4624-25-5.5 0-3.0376 11.193-5.5 25-5.5 13.807 0 25 2.4624 25 5.5z" style="fill-rule:evenodd;fill:url(#radialGradient3991);opacity:.3"/>
 <path id="path4319" d="m1.5 9.773c-0.044194-1.5732 6.7098-3.5099 13.63-3.2603 6.9197 0.24963 8.7671 2.657 16.608 2.9873 7.2625 0.30591 14.807-3.1999 14.762-1.597v31.028c0.0625 2.1187-6.843 3.5921-14.686 3.569-7.8425-0.02306-9.2992-2.8655-16.685-3-7.3812-0.13446-13.817 3.9375-13.63 0.977v-30.704z" style="fill-rule:evenodd;fill:url(#linearGradient2871);stroke-linejoin:round;stroke:url(#linearGradient3943)"/>
 <path id="path5213" d="m2.5 10.093c-0.054561-1.0927 6.5259-2.8679 13.137-2.5794 6.5851 0.28734 8.3438 2.7255 15.81 2.9867 7.5486 0.26411 14.085-2.5 14.053-1.6389v30.221c-0.016902 0.9178-6.5074 2.445-13.98 2.4178-7.4657-0.027157-8.8529-3.0364-15.883-3.1863-7.0266-0.14978-13.137 3.7532-13.137 1.4515v-29.673z" style="fill:none;opacity:.3;stroke-width:1px;stroke:url(#linearGradient4007)"/>
 <path id="path5577" d="m24.125 13.031c-1.052 0.14975-2.0934 0.3904-3.1027 0.72286-1.025 0.39173-2.0003 0.93131-2.869 1.6009-0.78384 0.61095-1.5329 1.2838-2.0908 2.1137-0.60984 0.77777-1.0755 1.6638-1.4331 2.583-0.39937 0.95795-0.49792 2.0098-0.55218 3.0365-0.10184 1.1021 0.03242 2.2301 0.3603 3.2867 0.31997 1.0644 0.81686 2.0814 1.4659 2.9839 0.31192 0.42056 0.52064 0.92612 0.53406 1.4536 0.90249 0.02366 1.5688 0.74927 2.2416 1.2638 0.86917 0.55033 1.8131 1.0009 2.7928 1.3206 1.2749 0.46927 2.6306 0.63435 3.9733 0.7807 0.98784 0.10751 1.9898 0.25675 2.9801 0.08958 0.94908-0.1224 1.9105-0.27045 2.8036-0.62405 0.9337-0.38926 1.7732-0.9774 2.529-1.6436 0.73188-0.62809 1.29-1.4217 1.7733-2.2495 0.56763-0.85186 0.88134-1.8373 1.0312-2.8438 0.18667-0.94387 0.18352-1.9413 0.09048-2.8983-0.16681-1.042-0.47808-2.0504-0.84048-3.0392-0.37821-0.969-0.9079-1.8717-1.5682-2.6754-0.66227-0.91001-1.4433-1.7198-2.206-2.5438-0.68827-0.73883-1.5625-1.3028-2.4674-1.7391-0.85211-0.42798-1.7881-0.63367-2.7272-0.76047-0.89762-0.13033-1.8097-0.29378-2.7188-0.21875zm1.2188 1c1.0388 0.05939 2.1066 0.16408 3.0743 0.57201 0.90059 0.40783 1.7939 0.88053 2.5311 1.5494 0.97076 0.8142 1.8135 1.7682 2.5472 2.7992 0.61333 0.76344 1.0019 1.6822 1.3787 2.5793 0.29261 1.0368 0.69179 2.0626 0.72669 3.1514 0.08075 1.0772-0.08944 2.1604-0.42728 3.1822-0.32088 0.91915-0.8334 1.7789-1.4315 2.5476-0.38283 0.50824-0.88031 0.91306-1.3991 1.275 0.04522-0.9365-0.12416-1.8739-0.01607-2.8072 0.11887-1.0139 0.71492-1.9003 0.85982-2.9116 0.2179-0.93357 0.0818-1.9259-0.16426-2.8445-0.25719-0.60084-0.20043-1.3887 0.41426-1.7492-0.12626-0.82726-1.0726-1.0542-1.5098-1.686-0.81957-0.7412-1.632-1.4899-2.3994-2.2856-0.2197-0.17523-0.47952-0.5634-0.68464-0.62214 0.09318 0.39-0.6582 0.35992-0.6875 0-0.78934-0.49562-1.7373-0.60875-2.6466-0.6703-1.1559-0.063-2.3208 0.11067-3.4159 0.4828-1.0015 0.39849-1.84 1.0759-2.6875 1.7188-0.8007 0.77167-1.5289 1.6616-1.875 2.7343-0.38208 0.89446-0.50009 1.8621-0.50003 2.8235-0.03435 1.0694 0.46166 2.0249 0.82935 2.9936 0.36868 0.90775-0.2764 1.7661-0.76685 2.4799-0.54277-0.87872-1.1966-1.7178-1.5-2.7188-0.40888-1.0283-0.50115-2.1502-0.5625-3.2453 0.02996-0.98234 0.20215-1.9682 0.52656-2.8969 0.31856-0.88946 0.77686-1.732 1.3655-2.472 0.60517-0.85089 1.3925-1.5548 2.233-2.1671 0.91291-0.53131 1.8297-1.1165 2.875-1.3438 0.95942-0.31697 1.9736-0.4407 2.9806-0.46794 0.11053-0.0053 0.22132 2e-3 0.33191-8.09e-4zm-11.719 1.9688c-0.97774 0.49704-1.3004 1.6205-1.6817 2.5644-0.35623 1.0264-0.67961 2.0754-0.78996 3.1604-0.16228 1.0849-0.12034 2.1822-0.0074 3.2693 0.09899 1.1825 0.45126 2.3225 0.8228 3.4434 0.38142 0.9582 0.88342 1.8641 1.4166 2.7441 0.67435 1.0669 1.6177 1.9192 2.5209 2.7872 0.79966 0.71888 1.7595 1.2217 2.6959 1.7357 0.90367 0.48374 1.8972 0.76279 2.8885 1.0041 0.68831 0.047904 1.3378 0.59963 2.0094 0.1664 0.88983-0.4616 0.31789-1.7144-0.5-1.875-0.98374-0.23729-1.9756-0.47427-2.9176-0.85414-0.88731-0.35218-1.718-0.83439-2.4886-1.3959-0.7577-0.65724-1.5129-1.3234-2.1273-2.1218-0.58371-0.7383-1.0391-1.5613-1.395-2.4316-0.55562-1.2215-0.83831-2.5513-0.99177-3.8789-0.11312-0.9958 0.08257-1.9934 0.21896-2.978 0.17764-0.99992 0.39099-2.0213 0.92006-2.9023 0.37464-0.69618 0.71567-1.615 0.0861-2.2771-0.17276-0.15982-0.44985-0.23028-0.67985-0.1604zm22.719 0.65625c-0.98098 0.55126-0.4768 1.861-0.04839 2.6347 0.49239 0.99121 0.85264 2.037 1.2046 3.084 0.11465 0.89382 0.42406 1.7778 0.3125 2.6875-0.11774 0.94535-0.11777 1.9091-0.38103 2.8352-0.15516 0.97198-0.71802 1.8122-1.119 2.696-0.47144 0.95581-1.1147 1.8354-1.9697 2.4824-0.75956 0.65739-1.5914 1.243-2.5218 1.6321-0.90091 0.43484-1.8714 0.72676-2.8728 0.79083-0.90202 0.17586-2.0087-0.3117-2.7294 0.43839-0.49532 0.93848 0.80184 1.8032 1.651 1.5175 1.0477-0.09049 2.1119-0.10323 3.1302-0.39249 0.95616-0.14024 1.835-0.60697 2.6596-1.0915 1.1605-0.71863 2.2544-1.5741 3.1136-2.6427 0.60404-0.70992 1.1571-1.4743 1.5392-2.3283 0.57095-1.1412 0.84215-2.3967 1.1562-3.625 0.13739-1.0373 0.26822-2.0771 0.28125-3.125-0.095296-1.0789-0.27757-2.142-0.5625-3.1875-0.30133-1.0555-0.80496-2.0361-1.1875-3.0625-0.39206-0.56177-0.83935-1.4902-1.6562-1.3438zm-11.219 0.40625c0.92042-0.02263 1.8549 0.20641 2.6605 0.65004 0.74595 0.35899 1.707 0.88188 1.6208 1.85-0.7648 0.36492-1.1261-0.6752-1.75-0.90625-0.81307-0.45649-1.7616-0.5567-2.6778-0.57711-0.8867-0.03766-1.7783 0.19046-2.5847 0.55367-0.87716 0.40307-1.6213 1.0668-2.2688 1.7734-0.54846 0.60846-0.65965 1.6938-1.6133 1.8627-0.12186 0.03162-0.4047 0.07565-0.23393-0.1684 0.08412-0.88432 0.67026-1.5984 1.1694-2.2923 0.59601-0.76708 1.3984-1.3498 2.2116-1.8677 0.88844-0.52593 1.9283-0.79425 2.9497-0.8988 0.17171-0.03005 0.34436 0.01943 0.51655 0.02075zm0.09375 1.9375c0.93666 0.16646 1.8757 0.4423 2.6427 1.0204 0.48454 0.33483 0.45199 0.98046 0.1385 1.4171-0.53516 0.83901 0.61487 1.3855 0.90625 2.0625 0.25185 0.55883 0.65684 1.0358 0.96875 1.5625-0.32458 0.92486-1.1156 1.5742-1.8762 2.1416-0.653 0.52713-1.4772 0.79906-2.3113 0.8272-0.92687-0.01959-1.8858-0.11302-2.7437-0.48437-0.85152-0.30756-1.5134-0.98947-2.0473-1.6975-0.24586-0.45107-0.85547-0.90648-0.58394-1.4744 0.93548 0.04041 1.6625 1.0094 2.6562 0.90625 0.40481-0.75063 0.23614-1.6346 0.125-2.4375h-1.8125c0.63542-1.0625 1.2708-2.125 1.9062-3.1875-0.67708 0.38542-1.3542 0.77083-2.0312 1.1562 0.64136-0.61811 1.3651-1.1807 2.206-1.4913 0.60664-0.17061 1.2185-0.35578 1.8565-0.32124zm6.5625 3.7812c0.1937 0.15472 0.16199 0.59814 0.27617 0.8547 0.10682 0.38369 0.08823 0.79683-0.02617 1.1766-0.73002-0.30664-1.1399-1.4823-0.34375-1.9375l0.0625-0.09375h0.03125zm-13.656 0.34375c0.82101 0.39634 1.1786 1.3506 1.125 2.2188 0.0538 0.30655-0.139 0.79875-0.53125 0.625-0.65126-0.25381-0.33982-1.1075-0.58173-1.6304-0.09055-0.4099-0.12572-0.82551-0.10577-1.2446l0.09375 0.03125zm4.2812 5.3125c1.1072 0.26646 2.2086 0.68535 3.3609 0.65625 0.78796-0.03432 1.6825-0.12034 2.3266 0.4375 0.02267 0.53769-0.71124 0.36371-1.0572 0.48333-0.98868 0.07071-2.0081 0.18085-2.974-0.10833-0.97789-0.23427-2.0411-0.4304-2.8125-1.125-0.19768-0.16704 0.27292-0.17104 0.34375-0.28125 0.26347-0.07997 0.54026-0.11833 0.8125-0.0625zm-2.375 0.96875c0.9177 0.31339 1.7015 0.96399 2.6672 1.1512 1.029 0.37115 2.1047 0.58064 3.1968 0.63349 1.0642 0.12973 2.1225-0.09159 3.1278-0.41426 1.0728-0.26635 2.0228 0.4319 2.8161 1.06l0.1296 0.1008c-0.78375 0.70784-1.8889 0.87622-2.875 1.1562-0.98511 0.24896-2.018 0.23846-3.026 0.17292-1.0528-0.0682-2.0849-0.30896-3.1214-0.49301-1.0056-0.20796-1.9815-0.57099-2.8949-1.0377-0.6959-0.41459-1.5899-0.77914-1.8952-1.5797 0.58334-0.25847 1.1701-0.81043 1.875-0.75z" style="block-progression:tb;color:black;fill:url(#linearGradient3975);opacity:.8;text-indent:0;text-transform:none"/>
</svg>
