<?xml version="1.0" encoding="UTF-8" standalone="no"?>
<!-- Created with Inkscape (http://www.inkscape.org/) -->

<svg
   xmlns:dc="http://purl.org/dc/elements/1.1/"
   xmlns:cc="http://creativecommons.org/ns#"
   xmlns:rdf="http://www.w3.org/1999/02/22-rdf-syntax-ns#"
   xmlns:svg="http://www.w3.org/2000/svg"
   xmlns="http://www.w3.org/2000/svg"
   xmlns:xlink="http://www.w3.org/1999/xlink"
   xmlns:sodipodi="http://sodipodi.sourceforge.net/DTD/sodipodi-0.dtd"
   xmlns:inkscape="http://www.inkscape.org/namespaces/inkscape"
   width="64"
   height="64"
   id="svg3827"
   version="1.1"
   inkscape:version="0.92.4 (5da689c313, 2019-01-14)"
   sodipodi:docname="system-software-update-2.svg">
  <defs
     id="defs3829">
    <radialGradient
       r="56"
       fy="136"
       fx="88"
       cy="136"
       cx="88"
       gradientTransform="matrix(0.57142841,0,0,0.07142831,512.00002,845.50503)"
       gradientUnits="userSpaceOnUse"
       id="radialGradient4619"
       xlink:href="#linearGradient4147"
       inkscape:collect="always" />
    <linearGradient
       inkscape:collect="always"
       id="linearGradient4147">
      <stop
         style="stop-color:#000000;stop-opacity:1;"
         offset="0"
         id="stop4149" />
      <stop
         style="stop-color:#000000;stop-opacity:0;"
         offset="1"
         id="stop4151" />
    </linearGradient>
    <filter
       inkscape:collect="always"
       id="filter4705"
       x="-0.081854984"
       width="1.16371"
       y="-0.57298487"
       height="2.1459699"
       style="color-interpolation-filters:sRGB">
      <feGaussianBlur
         inkscape:collect="always"
         stdDeviation="3.8198993"
         id="feGaussianBlur4707" />
    </filter>
    <linearGradient
       inkscape:collect="always"
       xlink:href="#linearGradient5032"
       id="linearGradient5454"
       gradientUnits="userSpaceOnUse"
       spreadMethod="reflect"
       x1="291"
       y1="431"
       x2="315"
       y2="431"
       gradientTransform="matrix(1.4736841,0,0,1.4736842,126.07522,165.67546)" />
    <linearGradient
       id="linearGradient5032">
      <stop
         style="stop-color:#f4f4f4;stop-opacity:1;"
         offset="0"
         id="stop5034" />
      <stop
         style="stop-color:#9d9d9d;stop-opacity:1;"
         offset="1"
         id="stop5036" />
    </linearGradient>
    <radialGradient
       inkscape:collect="always"
       xlink:href="#linearGradient7958"
       id="radialGradient5456"
       gradientUnits="userSpaceOnUse"
       gradientTransform="matrix(1.8366202,-9.5438592e-7,9.3368347e-7,1.7967807,18.645683,26.488409)"
       cx="296"
       cy="441"
       fx="296"
       fy="441"
       r="19" />
    <linearGradient
       id="linearGradient7958">
      <stop
         id="stop7960"
         offset="0"
         style="stop-color:#5d5d57;stop-opacity:1;" />
      <stop
         id="stop7962"
         offset="1"
         style="stop-color:#2d2c2b;stop-opacity:1;" />
    </linearGradient>
    <linearGradient
       inkscape:collect="always"
       xlink:href="#linearGradient5081"
       id="linearGradient5458"
       gradientUnits="userSpaceOnUse"
       gradientTransform="matrix(1.4736841,0,0,1.4736842,126.07522,-630.78809)"
       x1="298"
       y1="970.36218"
       x2="298"
       y2="1008.2684" />
    <linearGradient
       id="linearGradient5081">
      <stop
         id="stop5083"
         offset="0"
         style="stop-color:#c3c1bf;stop-opacity:1;" />
      <stop
         id="stop5085"
         offset="1"
         style="stop-color:#a39f9b;stop-opacity:1;" />
    </linearGradient>
    <clipPath
       clipPathUnits="userSpaceOnUse"
       id="clipPath5101">
      <circle
         style="fill:#ff00ff;fill-opacity:1;stroke:none"
         id="path5103"
         transform="translate(0,-0.44665647)"
         cx="296"
         cy="448"
         r="19" />
    </clipPath>
    <filter
       inkscape:collect="always"
       id="filter5113"
       style="color-interpolation-filters:sRGB">
      <feGaussianBlur
         inkscape:collect="always"
         stdDeviation="0.57"
         id="feGaussianBlur5115" />
    </filter>
    <clipPath
       clipPathUnits="userSpaceOnUse"
       id="clipPath5149">
      <path
         id="path5151"
         d="m 306.50004,1007.5487 c 10.04414,-5.7989 13.48552,-18.64235 7.68653,-28.68649 -5.79901,-10.04418 -18.64239,-13.48553 -28.68653,-7.68654 -10.04415,5.79899 -13.48555,18.64236 -7.68654,28.68654 5.79899,10.04419 18.64239,13.48549 28.68654,7.68649 z m -2,-3.4641 c -8.13098,4.6945 -18.52802,1.9086 -23.22244,-6.22239 -4.69442,-8.13098 -1.90854,-18.52801 6.22244,-23.22243 8.13097,-4.69442 18.52801,-1.90855 23.22243,6.22243 4.69442,8.13097 1.90854,18.52801 -6.22243,23.22239 z"
         style="fill:#ff00ff;fill-opacity:1;stroke:none"
         inkscape:connector-curvature="0" />
    </clipPath>
    <filter
       inkscape:collect="always"
       id="filter4689"
       x="-0.11196153"
       width="1.2239231"
       y="-0.12928203"
       height="1.2585641"
       style="color-interpolation-filters:sRGB">
      <feGaussianBlur
         inkscape:collect="always"
         stdDeviation="0.97966313"
         id="feGaussianBlur4691" />
    </filter>
    <clipPath
       clipPathUnits="userSpaceOnUse"
       id="clipPath5171">
      <path
         id="path5173"
         d="m 281.15075,974.51295 c -8.20101,8.20101 -8.20101,21.49748 0,29.69845 8.20104,8.2011 21.49748,8.201 29.69849,0 8.20101,-8.20097 8.20104,-21.49741 0,-29.69845 -8.20101,-8.20101 -21.49748,-8.20101 -29.69849,0 z m 2.82843,2.82843 c 6.63891,-6.63891 17.40272,-6.63891 24.04163,0 6.63891,6.63891 6.63891,17.40272 0,24.04162 -6.63891,6.6389 -17.40272,6.6389 -24.04163,0 -6.63891,-6.6389 -6.63891,-17.40271 0,-24.04162 z"
         style="fill:#ff00ff;fill-opacity:1;stroke:none"
         inkscape:connector-curvature="0" />
    </clipPath>
    <filter
       inkscape:collect="always"
       id="filter4697"
       x="-0.090676427"
       width="1.1813529"
       y="-0.10198765"
       height="1.2039753"
       style="color-interpolation-filters:sRGB">
      <feGaussianBlur
         inkscape:collect="always"
         stdDeviation="0.89247242"
         id="feGaussianBlur4699" />
    </filter>
    <linearGradient
       inkscape:collect="always"
       xlink:href="#linearGradient4655"
       id="linearGradient4661"
       x1="296.58047"
       y1="924.12781"
       x2="317"
       y2="924.12781"
       gradientUnits="userSpaceOnUse"
       spreadMethod="reflect"
       gradientTransform="matrix(1.3333332,0,0,1.3333333,167.61908,-405.26358)" />
    <linearGradient
       inkscape:collect="always"
       id="linearGradient4655">
      <stop
         style="stop-color:#ffffff;stop-opacity:1;"
         offset="0"
         id="stop4657" />
      <stop
         style="stop-color:#ffffff;stop-opacity:0;"
         offset="1"
         id="stop4659" />
    </linearGradient>
    <linearGradient
       inkscape:collect="always"
       xlink:href="#linearGradient3934"
       id="linearGradient5460"
       gradientUnits="userSpaceOnUse"
       x1="275.5"
       y1="975.67468"
       x2="294"
       y2="975.67468" />
    <linearGradient
       inkscape:collect="always"
       id="linearGradient3934">
      <stop
         style="stop-color:#000000;stop-opacity:1;"
         offset="0"
         id="stop3936" />
      <stop
         style="stop-color:#000000;stop-opacity:0;"
         offset="1"
         id="stop3938" />
    </linearGradient>
    <filter
       inkscape:collect="always"
       id="filter4785"
       style="color-interpolation-filters:sRGB">
      <feGaussianBlur
         inkscape:collect="always"
         stdDeviation="0.65242893"
         id="feGaussianBlur4787" />
    </filter>
    <linearGradient
       inkscape:collect="always"
       xlink:href="#linearGradient3934"
       id="linearGradient5462"
       gradientUnits="userSpaceOnUse"
       gradientTransform="matrix(1.3333332,0,0,1.3333333,167.61908,-490.59691)"
       x1="275.5"
       y1="975.67468"
       x2="294"
       y2="975.67468" />
    <linearGradient
       inkscape:collect="always"
       xlink:href="#linearGradient4100-34"
       id="linearGradient5464"
       gradientUnits="userSpaceOnUse"
       gradientTransform="matrix(1.4736841,0,0,1.4736842,126.07522,-630.78809)"
       x1="288.7619"
       y1="973.9812"
       x2="296"
       y2="972.17169" />
    <linearGradient
       id="linearGradient4100-34">
      <stop
         style="stop-color:#f5f5f5;stop-opacity:1;"
         offset="0"
         id="stop4102-9" />
      <stop
         style="stop-color:#f5f5f5;stop-opacity:0;"
         offset="1"
         id="stop4104-2" />
    </linearGradient>
    <linearGradient
       inkscape:collect="always"
       xlink:href="#linearGradient6984"
       id="linearGradient4621"
       x1="229"
       y1="59"
       x2="209"
       y2="61"
       gradientUnits="userSpaceOnUse" />
    <linearGradient
       inkscape:collect="always"
       id="linearGradient6984">
      <stop
         style="stop-color:#000000;stop-opacity:1;"
         offset="0"
         id="stop6986" />
      <stop
         style="stop-color:#000000;stop-opacity:0;"
         offset="1"
         id="stop6988" />
    </linearGradient>
    <filter
       inkscape:collect="always"
       id="filter4781"
       style="color-interpolation-filters:sRGB">
      <feGaussianBlur
         inkscape:collect="always"
         stdDeviation="0.65242893"
         id="feGaussianBlur4783" />
    </filter>
    <linearGradient
       inkscape:collect="always"
       xlink:href="#linearGradient3934"
       id="linearGradient5468"
       gradientUnits="userSpaceOnUse"
       gradientTransform="matrix(1.3333332,0,0,1.3333333,167.61908,228.55264)"
       x1="316"
       y1="459"
       x2="303"
       y2="459" />
    <linearGradient
       inkscape:collect="always"
       xlink:href="#linearGradient4100-34"
       id="linearGradient5470"
       gradientUnits="userSpaceOnUse"
       gradientTransform="matrix(-1.4736841,0,0,-1.4736842,998.4962,2285.2268)"
       x1="288.7619"
       y1="973.9812"
       x2="296"
       y2="972.17169" />
    <linearGradient
       id="linearGradient3780">
      <stop
         style="stop-color:#f5f5f5;stop-opacity:1;"
         offset="0"
         id="stop3782" />
      <stop
         style="stop-color:#f5f5f5;stop-opacity:0;"
         offset="1"
         id="stop3784" />
    </linearGradient>
    <linearGradient
       id="linearGradient8054">
      <stop
         style="stop-color:#de4814;stop-opacity:1;"
         offset="0"
         id="stop8056" />
      <stop
         style="stop-color:#ff6000;stop-opacity:1;"
         offset="1"
         id="stop8058" />
    </linearGradient>
  </defs>
  <sodipodi:namedview
     id="base"
     pagecolor="#ffffff"
     bordercolor="#666666"
     borderopacity="1.0"
     inkscape:pageopacity="0.0"
     inkscape:pageshadow="2"
     inkscape:zoom="1"
     inkscape:cx="13.204229"
     inkscape:cy="23.811376"
     inkscape:document-units="px"
     inkscape:current-layer="layer1"
     showgrid="false"
     fit-margin-top="0"
     fit-margin-left="0"
     fit-margin-right="0"
     fit-margin-bottom="0"
     inkscape:window-width="1920"
     inkscape:window-height="1043"
     inkscape:window-x="0"
     inkscape:window-y="0"
     inkscape:window-maximized="1" />
  <metadata
     id="metadata3832">
    <rdf:RDF>
      <cc:Work
         rdf:about="">
        <dc:format>image/svg+xml</dc:format>
        <dc:type
           rdf:resource="http://purl.org/dc/dcmitype/StillImage" />
        <dc:title></dc:title>
      </cc:Work>
    </rdf:RDF>
  </metadata>
  <g
     inkscape:label="Layer 1"
     inkscape:groupmode="layer"
     id="layer1"
     transform="translate(-530.28571,-795.21932)">
    <ellipse
       ry="3.9999857"
       rx="31.99999"
       cy="855.2193"
       cx="562.28571"
       id="path6982-8"
       style="color:#000000;display:inline;overflow:visible;visibility:visible;opacity:0.3;fill:url(#radialGradient4619);fill-opacity:1;fill-rule:nonzero;stroke:none;stroke-width:0.40089113;marker:none;enable-background:accumulate" />
    <ellipse
       ry="8"
       rx="56"
       cy="136"
       cx="88"
       style="color:#000000;display:inline;overflow:visible;visibility:visible;opacity:0.2;fill:#000000;fill-opacity:1;fill-rule:nonzero;stroke:none;stroke-width:0.75000006;marker:none;filter:url(#filter4705);enable-background:accumulate"
       id="path6992-3"
       transform="matrix(0.365886,0,0,0.1399412,530.08774,836.1873)" />
    <ellipse
       cy="825.88599"
       cx="562.28571"
       style="fill:url(#linearGradient5454);fill-opacity:1;stroke:none;stroke-width:1.10526323"
       id="path5366"
       rx="27.999998"
       ry="28" />
    <ellipse
       cy="827.2193"
       cx="562.28571"
       id="path5368"
       style="fill:url(#radialGradient5456);fill-opacity:1;stroke:none;stroke-width:0.89473683"
       rx="22.666664"
       ry="22.666666" />
    <path
       inkscape:connector-curvature="0"
       id="path5370"
       d="m 562.28571,799.2193 c -15.46397,0 -28,12.53602 -28,28 0,15.46402 12.53603,28.00002 28,28.00002 15.46397,0 27.99999,-12.536 27.99999,-28.00002 0,-15.46398 -12.53602,-28 -27.99999,-28 z m 0,5.33333 c 12.51845,0 22.66666,10.14821 22.66666,22.66667 0,12.51845 -10.14821,22.66669 -22.66666,22.66669 -12.51845,0 -22.66667,-10.14824 -22.66667,-22.66669 0,-12.51846 10.14822,-22.66667 22.66667,-22.66667 z"
       style="fill:url(#linearGradient5458);fill-opacity:1;stroke:none;stroke-width:1" />
    <circle
       r="19"
       cy="448"
       cx="296"
       clip-path="url(#clipPath5101)"
       style="opacity:0.3;fill:none;stroke:#000000;stroke-width:0.75000006;filter:url(#filter5113)"
       id="path5372"
       transform="matrix(1.1929823,0,0,1.1929824,209.16294,293.29602)" />
    <path
       inkscape:connector-curvature="0"
       id="path5374"
       d="m 562.28571,804.55263 c -12.51845,0 -22.66667,10.14821 -22.66667,22.66667 0,0.22365 0.0352,0.44457 0.0416,0.66666 0.3537,-12.20918 10.3302,-22 22.625,-22 12.2948,0 22.2713,9.79082 22.625,22 0.007,-0.22209 0.0416,-0.44301 0.0416,-0.66666 0,-12.51846 -10.14821,-22.66667 -22.66667,-22.66667 z"
       style="opacity:0.3;fill:#000000;fill-opacity:1;stroke:none;stroke-width:1" />
    <g
       style="stroke-width:0.75000006;filter:url(#filter4689)"
       clip-path="url(#clipPath5149)"
       transform="matrix(0.6666666,-1.1547005,1.1547004,0.66666665,-777.46456,509.43589)"
       inkscape:transform-center-y="-9.0932668"
       inkscape:transform-center-x="-10.499988"
       id="g5376">
      <path
         transform="matrix(1.1052629,0,0,1.1052629,-31.157807,494.20441)"
         d="m 315,448 a 19,19 0 0 1 -9.5,16.45448 L 296,448 Z"
         sodipodi:ry="19"
         sodipodi:rx="19"
         sodipodi:cy="448"
         sodipodi:cx="296"
         id="path5378"
         style="opacity:0.4;fill:#ffffff;fill-opacity:1;stroke:none;stroke-width:0.75000006"
         sodipodi:type="arc"
         sodipodi:start="0"
         sodipodi:end="1.0471976" />
      <path
         sodipodi:end="0.91387516"
         sodipodi:start="0.11760206"
         sodipodi:type="arc"
         style="opacity:0.3;fill:#ffffff;fill-opacity:1;stroke:none;stroke-width:0.75000006"
         id="path5380"
         sodipodi:cx="296"
         sodipodi:cy="448"
         sodipodi:rx="19"
         sodipodi:ry="19"
         d="m 314.86876,450.22929 a 19,19 0 0 1 -7.26581,12.81636 L 296,448 Z"
         transform="matrix(1.1052629,0,0,1.1052629,-31.157807,494.20441)" />
      <path
         transform="matrix(1.1052629,0,0,1.1052629,-31.157807,494.20441)"
         d="m 314.153,453.60967 a 19,19 0 0 1 -3.18332,6.09113 L 296,448 Z"
         sodipodi:ry="19"
         sodipodi:rx="19"
         sodipodi:cy="448"
         sodipodi:cx="296"
         id="path5382"
         style="opacity:0.5;fill:#ffffff;fill-opacity:1;stroke:none;stroke-width:0.75000006"
         sodipodi:type="arc"
         sodipodi:start="0.29971288"
         sodipodi:end="0.66344091" />
    </g>
    <g
       style="stroke-width:0.75000006;filter:url(#filter4697)"
       clip-path="url(#clipPath5171)"
       transform="matrix(0.34509203,1.2879011,-1.287901,0.34509205,1734.3388,104.57949)"
       inkscape:transform-center-y="10.501163"
       inkscape:transform-center-x="6.3758211"
       id="g5384">
      <path
         transform="matrix(1.1052629,0,0,1.1052629,-31.157807,494.20441)"
         d="m 315,448 a 19,19 0 0 1 -14.08244,18.35259 L 296,448 Z"
         sodipodi:ry="19"
         sodipodi:rx="19"
         sodipodi:cy="448"
         sodipodi:cx="296"
         id="path5386"
         style="opacity:0.2;fill:#ffffff;fill-opacity:1;stroke:none;stroke-width:0.75000006"
         sodipodi:type="arc"
         sodipodi:start="0"
         sodipodi:end="1.3089969" />
      <path
         sodipodi:end="1.1857386"
         sodipodi:start="0.098312209"
         sodipodi:type="arc"
         style="opacity:0.3;fill:#ffffff;fill-opacity:1;stroke:none;stroke-width:0.75000006"
         id="path5388"
         sodipodi:cx="296"
         sodipodi:cy="448"
         sodipodi:rx="19"
         sodipodi:ry="19"
         d="m 314.90825,449.86492 a 19,19 0 0 1 -11.77161,15.74384 L 296,448 Z"
         transform="matrix(1.1052629,0,0,1.1052629,-31.157807,494.20441)" />
      <path
         transform="matrix(1.1052629,0,0,1.1052629,-31.157807,494.20441)"
         d="m 314.46436,452.47967 a 19,19 0 0 1 -8.70667,11.82332 L 296,448 Z"
         sodipodi:ry="19"
         sodipodi:rx="19"
         sodipodi:cy="448"
         sodipodi:cx="296"
         id="path5390"
         style="opacity:0.4;fill:#ffffff;fill-opacity:1;stroke:none;stroke-width:0.75000006"
         sodipodi:type="arc"
         sodipodi:start="0.23801318"
         sodipodi:end="1.0314649" />
      <path
         sodipodi:end="0.84749792"
         sodipodi:start="0.42080062"
         sodipodi:type="arc"
         style="opacity:0.5;fill:#ffffff;fill-opacity:1;stroke:none;stroke-width:0.75000006"
         id="path5392"
         sodipodi:cx="296"
         sodipodi:cy="448"
         sodipodi:rx="19"
         sodipodi:ry="19"
         d="m 313.34248,455.76134 a 19,19 0 0 1 -4.76712,6.48157 L 296,448 Z"
         transform="matrix(1.1052629,0,0,1.1052629,-31.157807,494.20441)" />
    </g>
    <path
       inkscape:connector-curvature="0"
       id="path5394"
       d="m 557.57737,805.01096 c -0.69016,0.14123 -1.37517,0.34096 -2.04166,0.54167 0.70976,-0.22076 1.42889,-0.39069 2.16666,-0.54167 -0.04,0.008 -0.0852,-0.008 -0.12493,0 z m -2.04166,0.54167 c -9.60152,2.89131 -16.58333,11.78943 -16.58333,22.33333 0,12.88664 10.44669,23.33336 23.33333,23.33336 12.88664,0 23.33333,-10.44672 23.33333,-23.33336 0,-10.5439 -6.98181,-19.44202 -16.58333,-22.33333 9.22689,2.86985 15.91666,11.49543 15.91666,21.66667 0,12.51845 -10.14821,22.66669 -22.66666,22.66669 -12.51845,0 -22.66667,-10.14824 -22.66667,-22.66669 0,-10.17124 6.68978,-18.79682 15.91667,-21.66667 z m 13.5,0 c -0.705,-0.21229 -1.43528,-0.39601 -2.16667,-0.54167 0.73777,0.15098 1.45691,0.32091 2.16667,0.54167 z"
       style="opacity:0.6;fill:#ffffff;fill-opacity:1;stroke:none;stroke-width:1" />
    <path
       inkscape:connector-curvature="0"
       id="path5396"
       d="m 562.28571,799.2193 c -15.46397,0 -28,12.53602 -28,28 0,12.63838 8.37327,23.30976 19.875,26.79162 -11.12653,-3.46066 -19.20833,-13.85962 -19.20833,-26.12496 0,-15.09578 12.23756,-27.33333 27.33333,-27.33333 15.09577,0 27.33333,12.23755 27.33333,27.33333 0,12.26534 -8.0818,22.6643 -19.20833,26.12496 11.50173,-3.48186 19.87499,-14.15324 19.87499,-26.79162 0,-15.46398 -12.53602,-28 -27.99999,-28 z m 8.125,54.79162 c -0.72374,0.2252 -1.4602,0.41814 -2.20834,0.58334 0.74359,-0.16027 1.488,-0.3652 2.20834,-0.58334 z m -16.25,0 c 0.72033,0.21814 1.46474,0.42307 2.20833,0.58334 -0.74813,-0.1652 -1.4846,-0.35814 -2.20833,-0.58334 z"
       style="opacity:0.8;fill:url(#linearGradient4661);fill-opacity:1;stroke:none;stroke-width:1" />
    <path
       transform="matrix(1.3333332,0,0,1.3333333,167.61908,-491.93024)"
       d="m 296,967.34375 c -5.70982,0 -10.86804,2.22952 -14.77539,5.79883 l -2.18359,-2.1836 a 1.0308952,1.0308952 0 0 0 -1.72852,0.48047 L 274.5,982.75195 A 1.0308952,1.0308952 0 0 0 275.74805,984 l 11.3125,-2.8125 a 1.0308952,1.0308952 0 0 0 0.48047,-1.72852 l -2.01563,-2.01562 c 2.8074,-2.48129 6.43186,-4.03711 10.47461,-4.03711 a 1.0308952,1.0308952 0 0 0 1.03125,-1.03125 v -4 A 1.0308952,1.0308952 0 0 0 296,967.34375 Z"
       id="path5398"
       style="opacity:0.1;fill:url(#linearGradient5460);fill-opacity:1;stroke:none;stroke-width:0.75000006;filter:url(#filter4785)"
       inkscape:original="M 296 968.375 C 290.19495 968.375 284.94847 970.7241 281.15625 974.53125 L 278.3125 971.6875 L 275.5 983 L 286.8125 980.1875 L 284 977.375 C 287.07184 974.29073 291.30528 972.375 296 972.375 L 296 968.375 z "
       inkscape:radius="1.0307921"
       sodipodi:type="inkscape:offset" />
    <path
       inkscape:connector-curvature="0"
       id="path5400"
       d="m 562.28571,800.55263 c -7.74007,0 -14.73537,3.13213 -19.79167,8.20833 l -3.79166,-3.79166 -3.75,15.08333 15.08333,-3.75 -3.75,-3.75 c 4.09579,-4.11236 9.74037,-6.66667 16,-6.66667 z"
       style="opacity:0.2;fill:url(#linearGradient5462);fill-opacity:1;stroke:none;stroke-width:1" />
    <path
       inkscape:transform-center-y="-12.020815"
       inkscape:transform-center-x="14.849245"
       sodipodi:nodetypes="cccc"
       inkscape:connector-curvature="0"
       id="path5402"
       d="m 550.02919,814.96278 -11.31371,-11.31371 -3.77124,15.08495 z"
       style="fill:#f5f5f5;fill-opacity:1;stroke:none;stroke-width:1" />
    <path
       inkscape:connector-curvature="0"
       id="path5404"
       d="m 562.28571,799.2193 c -9.42282,0 -17.72308,4.6581 -22.79167,11.79166 l 4.625,2.70834 c 4.12511,-5.54576 10.72279,-9.16667 18.16667,-9.16667 z"
       style="fill:url(#linearGradient5464);fill-opacity:1;stroke:none;stroke-width:1" />
    <path
       transform="matrix(1.3333332,0,0,1.3333333,284.9524,763.2193)"
       d="m 228.51367,53.398438 a 0.97662248,0.97662248 0 0 0 -0.25,0.0293 l -11.3125,2.8125 a 0.97662248,0.97662248 0 0 0 -0.45508,1.638672 l 2.0586,2.058594 C 215.7325,62.448941 212.07615,64.023438 208,64.023438 A 0.97662248,0.97662248 0 0 0 207.02344,65 v 4 A 0.97662248,0.97662248 0 0 0 208,69.976562 c 5.71454,0 10.87546,-2.235267 14.77734,-5.816406 l 2.21875,2.21875 a 0.97662248,0.97662248 0 0 0 1.63868,-0.455078 l 2.8125,-11.3125 a 0.97662248,0.97662248 0 0 0 -0.9336,-1.21289 z"
       id="path4613"
       style="opacity:0.1;fill:url(#linearGradient4621);fill-opacity:1;stroke:none;stroke-width:0.75000006;filter:url(#filter4781)"
       inkscape:original="M 228.5 54.375 L 217.1875 57.1875 L 220 60 C 216.92816 63.084278 212.69472 65 208 65 L 208 69 C 213.80505 69 219.05153 66.65092 222.84375 62.84375 L 225.6875 65.6875 L 228.5 54.375 z "
       inkscape:radius="0.97652483"
       sodipodi:type="inkscape:offset" />
    <path
       inkscape:connector-curvature="0"
       id="path5408"
       d="m 589.61904,834.38596 -15.08333,3.75 3.75,3.75003 c -4.09579,4.1124 -9.74038,6.66667 -16,6.66667 v 5.33333 c 7.74006,0 14.73537,-3.13213 19.79166,-8.2084 l 3.79167,3.79173 z"
       style="opacity:0.2;fill:url(#linearGradient5468);fill-opacity:1;stroke:none;stroke-width:1" />
    <path
       style="fill:#f5f5f5;fill-opacity:1;stroke:none;stroke-width:1"
       d="m 574.54223,839.47582 11.3137,11.31377 3.77124,-15.08501 z"
       id="path5410"
       inkscape:connector-curvature="0"
       sodipodi:nodetypes="cccc"
       inkscape:transform-center-x="-14.849245"
       inkscape:transform-center-y="12.02084" />
    <path
       inkscape:transform-center-y="15.56251"
       inkscape:transform-center-x="-8.546875"
       inkscape:connector-curvature="0"
       style="fill:url(#linearGradient5470);fill-opacity:1;stroke:none;stroke-width:1"
       d="m 562.28571,855.21932 c 9.42281,0 17.72308,-4.65813 22.79166,-11.79173 l -4.625,-2.70829 c -4.1251,5.54576 -10.72278,9.16669 -18.16666,9.16669 z"
       id="path5412" />
    <rect
       y="795.2193"
       x="530.28571"
       height="64"
       width="63.999992"
       id="rect5414"
       style="opacity:0.2;fill:none;stroke:none;stroke-width:1" />
    <path
       id="path4663"
       d="m 589.61904,835.7193 -15.08334,3.75 0.54167,0.54166 14.375,-3.58333 z"
       style="fill:#ffffff;fill-opacity:1;stroke:none;stroke-width:1"
       inkscape:connector-curvature="0" />
    <path
       sodipodi:nodetypes="cccccc"
       inkscape:connector-curvature="0"
       id="path4668"
       d="m 538.70237,803.63597 -3.74999,15.08333 0.16666,-0.0417 3.58333,-14.375 3.77931,3.11264 z"
       style="fill:#ffffff;fill-opacity:1;stroke:none;stroke-width:1" />
  </g>
</svg>
