<?xml version="1.0" encoding="UTF-8" standalone="no"?>
<!-- Created with Inkscape (http://www.inkscape.org/) -->

<svg
   xmlns:dc="http://purl.org/dc/elements/1.1/"
   xmlns:cc="http://creativecommons.org/ns#"
   xmlns:rdf="http://www.w3.org/1999/02/22-rdf-syntax-ns#"
   xmlns:svg="http://www.w3.org/2000/svg"
   xmlns="http://www.w3.org/2000/svg"
   xmlns:xlink="http://www.w3.org/1999/xlink"
   xmlns:sodipodi="http://sodipodi.sourceforge.net/DTD/sodipodi-0.dtd"
   xmlns:inkscape="http://www.inkscape.org/namespaces/inkscape"
   width="64"
   height="64"
   id="svg4162"
   version="1.1"
   inkscape:version="0.92.4 (5da689c313, 2019-01-14)"
   sodipodi:docname="system-file-manager-2.svg">
  <defs
     id="defs4164">
    <linearGradient
       inkscape:collect="always"
       id="linearGradient1023">
      <stop
         style="stop-color:#9f9f9f;stop-opacity:1"
         offset="0"
         id="stop1019" />
      <stop
         style="stop-color:#696969;stop-opacity:1"
         offset="1"
         id="stop1021" />
    </linearGradient>
    <linearGradient
       inkscape:collect="always"
       id="linearGradient971">
      <stop
         style="stop-color:#bfbfbf;stop-opacity:1"
         offset="0"
         id="stop967" />
      <stop
         style="stop-color:#999999;stop-opacity:1"
         offset="1"
         id="stop969" />
    </linearGradient>
    <radialGradient
       inkscape:collect="always"
       xlink:href="#linearGradient4147-2"
       id="radialGradient3460"
       gradientUnits="userSpaceOnUse"
       gradientTransform="matrix(0.57142837,0,0,0.06478404,-1413.7143,-270.50496)"
       cx="88"
       cy="136"
       fx="88"
       fy="136"
       r="56" />
    <linearGradient
       inkscape:collect="always"
       id="linearGradient4147-2">
      <stop
         style="stop-color:#000000;stop-opacity:1;"
         offset="0"
         id="stop4149-7" />
      <stop
         style="stop-color:#000000;stop-opacity:0;"
         offset="1"
         id="stop4151-3" />
    </linearGradient>
    <radialGradient
       inkscape:collect="always"
       xlink:href="#linearGradient4008"
       id="radialGradient3462"
       gradientUnits="userSpaceOnUse"
       gradientTransform="matrix(2.023806,3.9552299e-7,-4.1916903e-8,2.2448006,-1565.8092,-1283.9432)"
       cx="94"
       cy="432.50015"
       fx="94"
       fy="432.50015"
       r="21" />
    <linearGradient
       id="linearGradient4008">
      <stop
         style="stop-color:#eeeeee;stop-opacity:1;"
         offset="0"
         id="stop4010" />
      <stop
         style="stop-color:#b2b2b2;stop-opacity:1;"
         offset="1"
         id="stop4012" />
    </linearGradient>
    <linearGradient
       inkscape:collect="always"
       xlink:href="#linearGradient4025"
       id="linearGradient3464"
       gradientUnits="userSpaceOnUse"
       gradientTransform="matrix(1.2380939,0,0,0.80620134,-1492.1903,-1091.746)"
       x1="102"
       y1="995.36218"
       x2="102"
       y2="1030.3622" />
    <linearGradient
       id="linearGradient4025">
      <stop
         style="stop-color:#b3b3b3;stop-opacity:1;"
         offset="0"
         id="stop4027" />
      <stop
         style="stop-color:#737373;stop-opacity:1;"
         offset="1"
         id="stop4029" />
    </linearGradient>
    <linearGradient
       id="linearGradient4022">
      <stop
         id="stop4024"
         offset="0"
         style="stop-color:#f0c077;stop-opacity:1" />
      <stop
         id="stop4026"
         offset="1"
         style="stop-color:#df841e;stop-opacity:1" />
    </linearGradient>
    <radialGradient
       id="radialGradient2488"
       gradientUnits="userSpaceOnUse"
       cy="14.113"
       cx="63.969002"
       gradientTransform="matrix(1.008,-6.1246e-8,3.9794e-8,0.65396,114.5926,1019.5096)"
       r="23.097">
      <stop
         id="stop3618"
         style="stop-color:#f0c178"
         offset="0" />
      <stop
         id="stop3270"
         style="stop-color:#e18941"
         offset=".5" />
      <stop
         id="stop3620"
         style="stop-color:#ec4f18"
         offset="1" />
    </radialGradient>
    <filter
       inkscape:collect="always"
       id="filter7008-1-41"
       x="-0.05617585"
       width="1.1123517"
       y="-0.39323094"
       height="1.7864619"
       style="color-interpolation-filters:sRGB">
      <feGaussianBlur
         inkscape:collect="always"
         stdDeviation="2.6215397"
         id="feGaussianBlur7010-9-35" />
    </filter>
    <linearGradient
       inkscape:collect="always"
       xlink:href="#linearGradient4073"
       id="linearGradient3470"
       gradientUnits="userSpaceOnUse"
       gradientTransform="matrix(1.1348428,0,0,0.78838398,-1481.4761,-651.11502)"
       x1="94"
       y1="493"
       x2="94"
       y2="467" />
    <linearGradient
       inkscape:collect="always"
       id="linearGradient4073">
      <stop
         style="stop-color:#000000;stop-opacity:1;"
         offset="0"
         id="stop4075" />
      <stop
         style="stop-color:#000000;stop-opacity:0;"
         offset="1"
         id="stop4077" />
    </linearGradient>
    <linearGradient
       inkscape:collect="always"
       xlink:href="#linearGradient4073"
       id="linearGradient3472"
       gradientUnits="userSpaceOnUse"
       gradientTransform="matrix(1.162569,0,0,0.86380599,-1484.4205,-686.25931)"
       x1="94"
       y1="493"
       x2="94"
       y2="459.6958" />
    <linearGradient
       inkscape:collect="always"
       xlink:href="#linearGradient4033"
       id="linearGradient3474"
       gradientUnits="userSpaceOnUse"
       x1="95"
       y1="1010.3622"
       x2="105"
       y2="1035.3622"
       gradientTransform="matrix(1.1915123,0,0,0.78838398,-1487.3392,-1077.1279)" />
    <linearGradient
       id="linearGradient4033">
      <stop
         style="stop-color:#bfbfbf;stop-opacity:1;"
         offset="0"
         id="stop4035" />
      <stop
         style="stop-color:#8e8e8e;stop-opacity:1;"
         offset="1"
         id="stop4037" />
    </linearGradient>
    <linearGradient
       inkscape:collect="always"
       xlink:href="#linearGradient4100-0"
       id="linearGradient3476"
       gradientUnits="userSpaceOnUse"
       x1="89.380867"
       y1="468.54459"
       x2="89.380867"
       y2="490.59589"
       gradientTransform="matrix(1.1915123,0,0,0.78838398,-1487.3392,-651.11502)" />
    <linearGradient
       inkscape:collect="always"
       id="linearGradient4100-0">
      <stop
         style="stop-color:#ffffff;stop-opacity:1;"
         offset="0"
         id="stop4102-52" />
      <stop
         style="stop-color:#ffffff;stop-opacity:0;"
         offset="1"
         id="stop4104-3" />
    </linearGradient>
    <linearGradient
       inkscape:collect="always"
       xlink:href="#linearGradient4100-0"
       id="linearGradient3478"
       gradientUnits="userSpaceOnUse"
       gradientTransform="matrix(1.1915123,0,0,0.78838398,-1487.3392,-1077.1279)"
       spreadMethod="reflect"
       x1="104"
       y1="1033.3622"
       x2="129.30823"
       y2="1033.2279" />
    <radialGradient
       r="11.5"
       fy="30.5"
       fx="203.5"
       cy="30.5"
       cx="203.5"
       gradientTransform="matrix(1.1915123,0,0,0.10283269,-1600.5327,-284.89353)"
       gradientUnits="userSpaceOnUse"
       id="radialGradient4586"
       xlink:href="#linearGradient4563-4"
       inkscape:collect="always" />
    <linearGradient
       inkscape:collect="always"
       id="linearGradient4563-4">
      <stop
         style="stop-color:#ffffff;stop-opacity:1;"
         offset="0"
         id="stop4565-8" />
      <stop
         style="stop-color:#ffffff;stop-opacity:0;"
         offset="1"
         id="stop4567-0" />
    </linearGradient>
    <linearGradient
       inkscape:collect="always"
       xlink:href="#radialGradient2496"
       id="linearGradient3482"
       gradientUnits="userSpaceOnUse"
       gradientTransform="matrix(1.1915122,0,0,0.78838396,-1487.3391,-1077.1279)"
       x1="103"
       y1="1026.3622"
       x2="103"
       y2="1017.3622" />
    <radialGradient
       id="radialGradient2496"
       gradientUnits="userSpaceOnUse"
       cy="5.0172"
       cx="3"
       gradientTransform="matrix(0,1.0975,-1.3856,0,178.3546,1018.2433)"
       r="21">
      <stop
         id="stop3486"
         style="stop-color:#bdbdbd"
         offset="0" />
      <stop
         id="stop3488"
         style="stop-color:#d0d0d0"
         offset="1" />
    </radialGradient>
    <linearGradient
       inkscape:collect="always"
       xlink:href="#linearGradient4147"
       id="linearGradient3484"
       gradientUnits="userSpaceOnUse"
       gradientTransform="matrix(1.1915122,0,0,0.78838396,-1487.3391,-1077.1279)"
       x1="103.70063"
       y1="1018.3156"
       x2="103.70063"
       y2="1028.0261" />
    <linearGradient
       inkscape:collect="always"
       id="linearGradient4147">
      <stop
         style="stop-color:#000000;stop-opacity:1;"
         offset="0"
         id="stop4149" />
      <stop
         style="stop-color:#000000;stop-opacity:0;"
         offset="1"
         id="stop4151" />
    </linearGradient>
    <linearGradient
       inkscape:collect="always"
       xlink:href="#linearGradient2494"
       id="linearGradient3486"
       gradientUnits="userSpaceOnUse"
       gradientTransform="matrix(1.1915122,0,0,0.63070716,-1487.3391,-575.58789)"
       x1="104"
       y1="479"
       x2="104"
       y2="484" />
    <linearGradient
       id="linearGradient2494"
       y2="16.190001"
       gradientUnits="userSpaceOnUse"
       x2="62.988998"
       gradientTransform="matrix(0.64168,0,0,0.6402,137.4476,1016.4143)"
       y1="13.183"
       x1="62.988998">
      <stop
         id="stop6406"
         style="stop-color:#f9f9f9"
         offset="0" />
      <stop
         id="stop6408"
         style="stop-color:#c9c9c9"
         offset="1" />
    </linearGradient>
    <linearGradient
       inkscape:collect="always"
       xlink:href="#linearGradient4100-0"
       id="linearGradient3488"
       gradientUnits="userSpaceOnUse"
       gradientTransform="matrix(1.1915122,0,0,-0.78838396,-1487.3391,534.11159)"
       x1="103"
       y1="1027.3622"
       x2="103"
       y2="1018.3622" />
    <radialGradient
       inkscape:collect="always"
       xlink:href="#linearGradient4563"
       id="radialGradient4569"
       cx="203.5"
       cy="30.5"
       fx="203.5"
       fy="30.5"
       r="11.5"
       gradientTransform="matrix(1,0,0,0.13043478,0,26.521739)"
       gradientUnits="userSpaceOnUse" />
    <linearGradient
       inkscape:collect="always"
       id="linearGradient4563">
      <stop
         style="stop-color:#ffffff;stop-opacity:1;"
         offset="0"
         id="stop4565" />
      <stop
         style="stop-color:#ffffff;stop-opacity:0;"
         offset="1"
         id="stop4567" />
    </linearGradient>
    <radialGradient
       r="11.5"
       fy="30.5"
       fx="203.5"
       cy="30.5"
       cx="203.5"
       gradientTransform="matrix(1.2380939,0,0,0.10515669,-1607.3331,-292.89409)"
       gradientUnits="userSpaceOnUse"
       id="radialGradient4160"
       xlink:href="#linearGradient4563"
       inkscape:collect="always" />
    <linearGradient
       inkscape:collect="always"
       xlink:href="#linearGradient971"
       id="linearGradient973"
       x1="-1358.4624"
       y1="-314.11517"
       x2="-1358.4624"
       y2="-289.45483"
       gradientUnits="userSpaceOnUse"
       gradientTransform="matrix(1.0046767,0,0,1,6.4651226,0.83339023)" />
    <linearGradient
       inkscape:collect="always"
       xlink:href="#linearGradient1023"
       id="linearGradient1025"
       x1="-1363.4286"
       y1="-289.56473"
       x2="-1363.4286"
       y2="-261.57712"
       gradientUnits="userSpaceOnUse" />
  </defs>
  <sodipodi:namedview
     id="base"
     pagecolor="#ffffff"
     bordercolor="#666666"
     borderopacity="1.0"
     inkscape:pageopacity="0.0"
     inkscape:pageshadow="2"
     inkscape:zoom="1"
     inkscape:cx="34.403552"
     inkscape:cy="31.488954"
     inkscape:document-units="px"
     inkscape:current-layer="layer1"
     showgrid="false"
     fit-margin-top="0"
     fit-margin-left="0"
     fit-margin-right="0"
     fit-margin-bottom="0"
     inkscape:window-width="1920"
     inkscape:window-height="1043"
     inkscape:window-x="1920"
     inkscape:window-y="0"
     inkscape:window-maximized="1"
     showguides="true" />
  <metadata
     id="metadata4167">
    <rdf:RDF>
      <cc:Work
         rdf:about="">
        <dc:format>image/svg+xml</dc:format>
        <dc:type
           rdf:resource="http://purl.org/dc/dcmitype/StillImage" />
        <dc:title></dc:title>
      </cc:Work>
    </rdf:RDF>
  </metadata>
  <g
     inkscape:label="Layer 1"
     inkscape:groupmode="layer"
     id="layer1"
     transform="translate(1395.4286,319.06642)">
    <ellipse
       ry="3.6279068"
       rx="31.999989"
       cy="-261.69434"
       cx="-1363.4286"
       id="path6982-8"
       style="color:#000000;display:inline;overflow:visible;visibility:visible;opacity:0.4;fill:url(#radialGradient3460);fill-opacity:1;fill-rule:nonzero;stroke:none;stroke-width:0.49099016;marker:none;enable-background:accumulate" />
    <path
       inkscape:connector-curvature="0"
       id="path3912"
       d="m -1385.7791,-313.06639 c -0.6726,0 -0.9645,1.90773 -1.2143,3.92839 l -1.2143,9.82101 c 0,0 -0.7209,5.89259 -0.7209,9.821 0,2.17633 0.5418,3.98281 1.2143,3.92839 l 24.2857,-1.9642 24.2856,1.9642 c 0.6724,0.0547 1.2144,-1.75206 1.2144,-3.92839 0,-3.92841 -0.7211,-9.821 -0.7211,-9.821 l -1.2144,-9.82101 c -0.2497,-2.02066 -0.5414,-3.92839 -1.2141,-3.92839 h -22.3504 z"
       style="fill:url(#radialGradient3462);fill-opacity:1;stroke:url(#linearGradient973);stroke-width:0.99999994;stroke-miterlimit:4;stroke-dasharray:none;stroke-opacity:1" />
    <rect
       ry="0.80619919"
       y="-289.28366"
       x="-1389.4286"
       height="28.217045"
       width="51.999939"
       id="rect3916"
       style="fill:url(#linearGradient3464);fill-opacity:1;stroke:none;stroke-width:0.99999988" />
    <rect
       ry="0.80619919"
       y="-286.86508"
       x="-1385.7144"
       height="23.379841"
       width="44.571381"
       id="rect3918"
       style="fill:#1a1a1a;fill-opacity:1;stroke:none;stroke-width:0.99999988" />
    <rect
       ry="0.80619919"
       y="-286.0589"
       x="-1380.7618"
       height="3.1172888"
       width="34.66663"
       id="rect3920"
       style="fill:#4e1c04;fill-opacity:1;stroke:none;stroke-width:0.99999988" />
    <path
       inkscape:connector-curvature="0"
       id="path3922"
       d="m -1388.1905,-290.08992 c -0.3124,0 -0.5952,0.0781 -0.8125,0.20154 -0.2053,0.42287 -0.4256,0.95138 -0.4256,1.41087 0,-0.44665 0.5522,-0.80621 1.2381,-0.80621 h 49.5238 c 0.6858,0 1.2381,0.35956 1.2381,0.80621 0,-0.45949 -0.2203,-0.988 -0.4257,-1.41087 -0.2173,-0.12346 -0.5,-0.20154 -0.8124,-0.20154 z"
       style="opacity:0.3;fill:#ffffff;fill-opacity:1;stroke:none;stroke-width:0.99999988" />
    <rect
       style="fill:#8c3308;fill-opacity:1;stroke:none;stroke-width:0.99999994"
       id="rect3924"
       width="36.869328"
       height="3.2248054"
       x="-1381.688"
       y="-285.25266"
       ry="0.80619919" />
    <path
       sodipodi:nodetypes="sccssssssss"
       inkscape:connector-curvature="0"
       id="path3926"
       d="m -1381.688,-284.4465 h 25.8085 l 1.3314,-0.8062 h 9.7295 c 0.6808,0 1.2289,0.35958 1.2289,0.8062 v 2.41862 c 0,0.44662 -0.5481,0.8062 -1.2289,0.8062 h -36.8694 c -0.6809,0 -1.2289,-0.35958 -1.2289,-0.8062 v -1.61242 c 0,-0.44664 0.548,-0.8062 1.2289,-0.8062 z"
       style="fill:#c44d22;fill-opacity:1;stroke:none;stroke-width:0.99999994" />
    <ellipse
       ry="8"
       rx="56"
       cy="136"
       cx="88"
       style="color:#000000;display:inline;overflow:visible;visibility:visible;opacity:0.3;fill:#000000;fill-opacity:1;fill-rule:nonzero;stroke:none;stroke-width:1.01470089;marker:none;filter:url(#filter7008-1-41);enable-background:accumulate"
       id="path6992-3"
       transform="matrix(0.46415329,0,0,0.08461559,-1404.2741,-272.5744)" />
    <path
       style="opacity:0.05;fill:url(#linearGradient3470);fill-opacity:1;stroke:none;stroke-width:1.00000012"
       d="m -1383.3121,-284.56573 c -1.1141,0 -2.1292,0.26001 -2.8016,0.9608 -0.469,0.4888 -0.5607,0.89261 -0.6738,1.08403 -0.1905,0.32229 -0.3945,0.75858 -0.4965,1.3304 v 15.59526 c 0,0.43676 0.5061,0.78838 1.1347,0.78838 h 45.3939 c 0.6287,0 1.1348,-0.35162 1.1348,-0.78838 v -15.59526 c -0.102,-0.57213 -0.3064,-1.00874 -0.4965,-1.3304 -0.1132,-0.19142 -0.2049,-0.59523 -0.6738,-1.08403 -0.6724,-0.70079 -1.6874,-0.9608 -2.8015,-0.9608 h -19.8599 z"
       id="path3940"
       inkscape:connector-curvature="0" />
    <path
       style="opacity:0.15;fill:url(#linearGradient3472);fill-opacity:1;stroke:none;stroke-width:1.00000012"
       d="m -1383.8584,-283.75274 c -0.6758,0 -1.5061,0.28843 -1.8528,0.67489 -0.3466,0.38639 -0.396,0.69053 -0.5813,1.02578 -0.2524,0.45669 -0.4966,0.93136 -0.5085,1.78159 v 17.27612 c 0.013,2.7e-4 0.025,0 0.037,0 h 46.5027 c 0.013,0 0.025,2.7e-4 0.037,0 v -17.27612 c -0.012,-0.85059 -0.2565,-1.32534 -0.5086,-1.78159 -0.1855,-0.33525 -0.2347,-0.63939 -0.5813,-1.02578 -0.3467,-0.38646 -1.177,-0.67489 -1.853,-0.67489 h -20.3449 -20.3449 z"
       id="path3942"
       inkscape:connector-curvature="0" />
    <path
       id="path3944"
       d="m -1384.2733,-282.9397 c -0.9394,0 -0.9464,0.33987 -1.3777,1.03475 -0.2642,0.42565 -0.3983,0.6203 -0.4095,1.3304 h 22.6386 22.6387 c -0.011,-0.7101 -0.1452,-0.90475 -0.4094,-1.3304 -0.4313,-0.69488 -0.4383,-1.03475 -1.3777,-1.03475 h -20.8516 z"
       style="fill:#d2d2d2;fill-opacity:1;stroke:none;stroke-width:1.00000012"
       inkscape:connector-curvature="0" />
    <rect
       ry="0.78838193"
       y="-281.36295"
       x="-1386.0605"
       height="18.921215"
       width="45.27747"
       id="rect3948"
       style="fill:url(#linearGradient3474);fill-opacity:1;stroke:none;stroke-width:1.00000012" />
    <path
       id="path3950"
       d="m -1384.8691,-282.15132 c -0.2828,0 -0.5408,0.0644 -0.7446,0.17246 -0.017,0.0272 -0.02,0.0455 -0.038,0.0739 -0.2642,0.42569 -0.3983,0.62034 -0.4095,1.33044 0,-0.43676 0.5313,-0.78838 1.1914,-0.78838 h 42.8946 c 0.6601,0 1.1913,0.35162 1.1913,0.78838 -0.011,-0.7101 -0.1452,-0.90475 -0.4094,-1.3304 -0.018,-0.0284 -0.021,-0.0467 -0.038,-0.0739 -0.2038,-0.10813 -0.4618,-0.1725 -0.7446,-0.1725 z"
       style="opacity:0.4;fill:#ffffff;fill-opacity:1;stroke:none;stroke-width:1.00000012"
       inkscape:connector-curvature="0" />
    <path
       style="opacity:0.1;fill:url(#linearGradient3476);fill-opacity:1;stroke:none;stroke-width:1.00000012"
       d="m -1384.8691,-281.36293 c -0.6601,0 -1.1914,0.35162 -1.1914,0.78838 v 17.34445 c 0,0.43676 0.5313,0.78838 1.1914,0.78838 h 19.2877 l -11.3195,-18.92121 z"
       id="path3952"
       inkscape:connector-curvature="0" />
    <path
       style="opacity:0.2;fill:url(#linearGradient3478);fill-opacity:1;stroke:none;stroke-width:1.00000012"
       d="m -1386.0604,-264.01849 v 0.78838 c 0,0.43676 0.5312,0.78838 1.1913,0.78838 h 42.8946 c 0.6601,0 1.1914,-0.35162 1.1914,-0.78838 v -0.78838 c 0,0.43676 -0.5313,0.78838 -1.1914,0.78838 h -42.8946 c -0.6601,0 -1.1913,-0.35162 -1.1913,-0.78838 z"
       id="rect3958"
       inkscape:connector-curvature="0" />
    <ellipse
       style="color:#000000;display:inline;overflow:visible;visibility:visible;opacity:0.6;fill:url(#radialGradient4586);fill-opacity:1;fill-rule:nonzero;stroke:none;stroke-width:1.00000012;marker:none;enable-background:accumulate"
       id="path4561-9"
       cx="-1358.0601"
       cy="-281.75714"
       rx="13.702392"
       ry="1.1825759" />
    <path
       transform="matrix(1.1915123,0,0,0.78838398,-1487.3392,-1076.9702)"
       d="m 99,1015.9531 c -1.328288,0 -2.421875,1.0935 -2.421875,2.4219 v 7 c 0,1.3284 1.09333,2.4222 2.421875,2.4219 h 10 c 1.32829,0 2.42188,-1.0935 2.42188,-2.4219 v -7 c 0,-1.3284 -1.09333,-2.4222 -2.42188,-2.4219 z"
       id="path3971"
       style="opacity:0.1;fill:#000000;fill-opacity:1;stroke:none;stroke-width:1.03176749"
       inkscape:original="M 99 1016.8438 C 98.15884 1016.8438 97.46875 1017.5338 97.46875 1018.375 L 97.46875 1025.375 C 97.46875 1026.2162 98.15884 1026.9064 99 1026.9062 L 109 1026.9062 C 109.84116 1026.9062 110.53125 1026.2162 110.53125 1025.375 L 110.53125 1018.375 C 110.53125 1017.5338 109.84116 1016.8436 109 1016.8438 L 99 1016.8438 z "
       inkscape:radius="0.89076704"
       sodipodi:type="inkscape:offset" />
    <rect
       ry="1.5767659"
       y="-275.84427"
       x="-1371.7623"
       height="8.672225"
       width="16.681173"
       id="rect3973"
       style="fill:url(#linearGradient3482);fill-opacity:1;stroke:none;stroke-width:0.99999994" />
    <rect
       ry="0.78838396"
       style="opacity:0.7;fill:url(#linearGradient3484);fill-opacity:1;stroke:none;stroke-width:0.99999994"
       id="rect3975"
       width="11.915121"
       height="5.5186853"
       x="-1369.3793"
       y="-274.26749" />
    <rect
       style="opacity:0.6;fill:#000000;fill-opacity:1;stroke:none;stroke-width:0.99999994"
       id="rect3977"
       width="9.5320978"
       height="3.1535358"
       x="-1368.1877"
       y="-272.69073"
       rx="0.59575611" />
    <rect
       rx="0.59575611"
       y="-273.47906"
       x="-1368.1877"
       height="3.1535358"
       width="9.5320978"
       id="rect3979"
       style="fill:url(#linearGradient3486);fill-opacity:1;stroke:none;stroke-width:0.99999994" />
    <path
       inkscape:connector-curvature="0"
       id="path3981"
       d="m -1369.3794,-269.53721 v 0.78838 c 0,0.43677 0.5315,0.78839 1.1915,0.78839 h 9.5323 c 0.6601,0 1.1916,-0.35162 1.1916,-0.78839 v -0.78838 c 0,0.43677 -0.5315,0.78838 -1.1916,0.78838 h -9.5323 c -0.66,0 -1.1915,-0.35161 -1.1915,-0.78838 z"
       style="opacity:0.2;fill:#ffffff;fill-opacity:1;stroke:none;stroke-width:0.99999994" />
    <path
       inkscape:connector-curvature="0"
       id="path3983"
       d="m -1369.3794,-275.84427 c -1.3202,0 -2.3829,0.70323 -2.3829,1.57676 v 5.51868 c 0,0.87354 1.0627,1.57677 2.3829,1.57677 h 11.9154 c 1.3202,0 2.3829,-0.70323 2.3829,-1.57677 v -5.51868 c 0,-0.87353 -1.0627,-1.57676 -2.3829,-1.57676 z m 0,0.27096 h 11.9154 c 1.1035,0 1.9731,0.57567 1.9731,1.3058 v 5.51868 c 0,0.73013 -0.8696,1.30581 -1.9731,1.30573 h -11.9154 c -1.1034,0 -1.9734,-0.5756 -1.9734,-1.30573 v -5.51868 c 0,-0.73013 0.87,-1.3058 1.9734,-1.3058 z"
       style="opacity:0.5;fill:url(#linearGradient3488);fill-opacity:1;stroke:none;stroke-width:0.99999994" />
    <rect
       y="-320.22943"
       x="-1395.4286"
       height="64"
       width="63.999989"
       id="rect3985"
       style="opacity:0.2;fill:none;stroke:none;stroke-width:0.99999988" />
    <ellipse
       ry="1.2093019"
       rx="14.23808"
       cy="-289.68677"
       cx="-1355.381"
       id="path4561"
       style="color:#000000;display:inline;overflow:visible;visibility:visible;opacity:0.6;fill:url(#radialGradient4160);fill-opacity:1;fill-rule:nonzero;stroke:none;stroke-width:0.99999988;marker:none;enable-background:accumulate" />
    <path
       style="fill:none;fill-opacity:1;stroke:url(#linearGradient1025);stroke-width:0.99999988;stroke-opacity:1"
       d="m -1337.9286,-290.01925 v 27.61599 c 0,0.83927 9e-4,0.83684 -0.7907,0.83684 h -49.7311 c -0.4932,0 -0.4782,0.002 -0.4782,-0.83684 v -27.61599"
       id="rect3916-5"
       inkscape:connector-curvature="0"
       sodipodi:nodetypes="cssssc" />
  </g>
</svg>
