<?xml version="1.0" encoding="UTF-8" standalone="no"?>
<!-- Created with Inkscape (http://www.inkscape.org/) -->

<svg
   xmlns:dc="http://purl.org/dc/elements/1.1/"
   xmlns:cc="http://creativecommons.org/ns#"
   xmlns:rdf="http://www.w3.org/1999/02/22-rdf-syntax-ns#"
   xmlns:svg="http://www.w3.org/2000/svg"
   xmlns="http://www.w3.org/2000/svg"
   xmlns:xlink="http://www.w3.org/1999/xlink"
   xmlns:sodipodi="http://sodipodi.sourceforge.net/DTD/sodipodi-0.dtd"
   xmlns:inkscape="http://www.inkscape.org/namespaces/inkscape"
   width="64"
   height="64"
   id="svg4162"
   version="1.1"
   inkscape:version="0.92.4 (5da689c313, 2019-01-14)"
   sodipodi:docname="system-file-manager-3.svg">
  <defs
     id="defs4164">
    <linearGradient
       inkscape:collect="always"
       id="linearGradient1023">
      <stop
         style="stop-color:#9f9f9f;stop-opacity:1"
         offset="0"
         id="stop1019" />
      <stop
         style="stop-color:#696969;stop-opacity:1"
         offset="1"
         id="stop1021" />
    </linearGradient>
    <linearGradient
       inkscape:collect="always"
       id="linearGradient971">
      <stop
         style="stop-color:#bfbfbf;stop-opacity:1"
         offset="0"
         id="stop967" />
      <stop
         style="stop-color:#999999;stop-opacity:1"
         offset="1"
         id="stop969" />
    </linearGradient>
    <radialGradient
       inkscape:collect="always"
       xlink:href="#linearGradient4147-2"
       id="radialGradient3460"
       gradientUnits="userSpaceOnUse"
       gradientTransform="matrix(0.57142837,0,0,0.06478404,-1402.4643,-251.87996)"
       cx="88"
       cy="136"
       fx="88"
       fy="136"
       r="56" />
    <linearGradient
       inkscape:collect="always"
       id="linearGradient4147-2">
      <stop
         style="stop-color:#000000;stop-opacity:1;"
         offset="0"
         id="stop4149-7" />
      <stop
         style="stop-color:#000000;stop-opacity:0;"
         offset="1"
         id="stop4151-3" />
    </linearGradient>
    <radialGradient
       inkscape:collect="always"
       xlink:href="#linearGradient4008"
       id="radialGradient3462"
       gradientUnits="userSpaceOnUse"
       gradientTransform="matrix(2.1794795,3.9167817e-7,-4.5141201e-8,2.2229791,-1581.3764,-1274.0054)"
       cx="94"
       cy="432.50015"
       fx="94"
       fy="432.50015"
       r="21" />
    <linearGradient
       id="linearGradient4008">
      <stop
         style="stop-color:#eeeeee;stop-opacity:1;"
         offset="0"
         id="stop4010" />
      <stop
         style="stop-color:#b2b2b2;stop-opacity:1;"
         offset="1"
         id="stop4012" />
    </linearGradient>
    <linearGradient
       inkscape:collect="always"
       xlink:href="#linearGradient4025"
       id="linearGradient3464"
       gradientUnits="userSpaceOnUse"
       gradientTransform="matrix(1.3333295,0,0,0.79836436,-1502.0948,-1083.6766)"
       x1="102"
       y1="995.36218"
       x2="102"
       y2="1030.3622" />
    <linearGradient
       id="linearGradient4025">
      <stop
         style="stop-color:#b3b3b3;stop-opacity:1;"
         offset="0"
         id="stop4027" />
      <stop
         style="stop-color:#737373;stop-opacity:1;"
         offset="1"
         id="stop4029" />
    </linearGradient>
    <linearGradient
       id="linearGradient4022">
      <stop
         id="stop4024"
         offset="0"
         style="stop-color:#f0c077;stop-opacity:1" />
      <stop
         id="stop4026"
         offset="1"
         style="stop-color:#df841e;stop-opacity:1" />
    </linearGradient>
    <radialGradient
       id="radialGradient2488"
       gradientUnits="userSpaceOnUse"
       cy="14.113"
       cx="63.969002"
       gradientTransform="matrix(1.008,-6.1246e-8,3.9794e-8,0.65396,114.5926,1019.5096)"
       r="23.097">
      <stop
         id="stop3618"
         style="stop-color:#f0c178"
         offset="0" />
      <stop
         id="stop3270"
         style="stop-color:#e18941"
         offset=".5" />
      <stop
         id="stop3620"
         style="stop-color:#ec4f18"
         offset="1" />
    </radialGradient>
    <filter
       inkscape:collect="always"
       id="filter7008-1-41"
       x="-0.05617585"
       width="1.1123517"
       y="-0.39323094"
       height="1.7864619"
       style="color-interpolation-filters:sRGB">
      <feGaussianBlur
         inkscape:collect="always"
         stdDeviation="2.6215397"
         id="feGaussianBlur7010-9-35" />
    </filter>
    <linearGradient
       inkscape:collect="always"
       xlink:href="#linearGradient4073"
       id="linearGradient3470"
       gradientUnits="userSpaceOnUse"
       gradientTransform="matrix(1.2221363,0,0,0.7807202,-1490.5564,-647.32892)"
       x1="94"
       y1="493"
       x2="94"
       y2="467" />
    <linearGradient
       inkscape:collect="always"
       id="linearGradient4073">
      <stop
         style="stop-color:#000000;stop-opacity:1;"
         offset="0"
         id="stop4075" />
      <stop
         style="stop-color:#000000;stop-opacity:0;"
         offset="1"
         id="stop4077" />
    </linearGradient>
    <linearGradient
       inkscape:collect="always"
       xlink:href="#linearGradient4073"
       id="linearGradient3472"
       gradientUnits="userSpaceOnUse"
       gradientTransform="matrix(1.2519953,0,0,0.85540904,-1493.7274,-682.13158)"
       x1="94"
       y1="493"
       x2="94"
       y2="459.6958" />
    <linearGradient
       inkscape:collect="always"
       xlink:href="#linearGradient4033"
       id="linearGradient3474"
       gradientUnits="userSpaceOnUse"
       x1="95"
       y1="1010.3622"
       x2="105"
       y2="1035.3622"
       gradientTransform="matrix(1.2831649,0,0,0.7807202,-1496.8704,-1069.2006)" />
    <linearGradient
       id="linearGradient4033">
      <stop
         style="stop-color:#bfbfbf;stop-opacity:1;"
         offset="0"
         id="stop4035" />
      <stop
         style="stop-color:#8e8e8e;stop-opacity:1;"
         offset="1"
         id="stop4037" />
    </linearGradient>
    <linearGradient
       inkscape:collect="always"
       xlink:href="#linearGradient4100-0"
       id="linearGradient3476"
       gradientUnits="userSpaceOnUse"
       x1="89.380867"
       y1="468.54459"
       x2="89.380867"
       y2="490.59589"
       gradientTransform="matrix(1.2831649,0,0,0.7807202,-1496.8704,-647.32892)" />
    <linearGradient
       inkscape:collect="always"
       id="linearGradient4100-0">
      <stop
         style="stop-color:#ffffff;stop-opacity:1;"
         offset="0"
         id="stop4102-52" />
      <stop
         style="stop-color:#ffffff;stop-opacity:0;"
         offset="1"
         id="stop4104-3" />
    </linearGradient>
    <linearGradient
       inkscape:collect="always"
       xlink:href="#linearGradient4100-0"
       id="linearGradient3478"
       gradientUnits="userSpaceOnUse"
       gradientTransform="matrix(1.2831649,0,0,0.7807202,-1496.8704,-1069.2006)"
       spreadMethod="reflect"
       x1="104"
       y1="1033.3622"
       x2="129.30823"
       y2="1033.2279" />
    <radialGradient
       r="11.5"
       fy="30.5"
       fx="203.5"
       cy="30.5"
       cx="203.5"
       gradientTransform="matrix(1.2831649,0,0,0.10183307,-1618.7711,-284.66742)"
       gradientUnits="userSpaceOnUse"
       id="radialGradient4586"
       xlink:href="#linearGradient4563-4"
       inkscape:collect="always" />
    <linearGradient
       inkscape:collect="always"
       id="linearGradient4563-4">
      <stop
         style="stop-color:#ffffff;stop-opacity:1;"
         offset="0"
         id="stop4565-8" />
      <stop
         style="stop-color:#ffffff;stop-opacity:0;"
         offset="1"
         id="stop4567-0" />
    </linearGradient>
    <linearGradient
       inkscape:collect="always"
       xlink:href="#radialGradient2496"
       id="linearGradient3482"
       gradientUnits="userSpaceOnUse"
       gradientTransform="matrix(1.2831648,0,0,0.78072018,-1496.8703,-1069.2006)"
       x1="103"
       y1="1026.3622"
       x2="103"
       y2="1017.3622" />
    <radialGradient
       id="radialGradient2496"
       gradientUnits="userSpaceOnUse"
       cy="5.0172"
       cx="3"
       gradientTransform="matrix(0,1.0975,-1.3856,0,178.3546,1018.2433)"
       r="21">
      <stop
         id="stop3486"
         style="stop-color:#bdbdbd"
         offset="0" />
      <stop
         id="stop3488"
         style="stop-color:#d0d0d0"
         offset="1" />
    </radialGradient>
    <linearGradient
       inkscape:collect="always"
       xlink:href="#linearGradient4147"
       id="linearGradient3484"
       gradientUnits="userSpaceOnUse"
       gradientTransform="matrix(1.2831648,0,0,0.78072018,-1496.8703,-1069.2006)"
       x1="103.70063"
       y1="1018.3156"
       x2="103.70063"
       y2="1028.0261" />
    <linearGradient
       inkscape:collect="always"
       id="linearGradient4147">
      <stop
         style="stop-color:#000000;stop-opacity:1;"
         offset="0"
         id="stop4149" />
      <stop
         style="stop-color:#000000;stop-opacity:0;"
         offset="1"
         id="stop4151" />
    </linearGradient>
    <linearGradient
       inkscape:collect="always"
       xlink:href="#linearGradient2494"
       id="linearGradient3486"
       gradientUnits="userSpaceOnUse"
       gradientTransform="matrix(1.2831648,0,0,0.62457613,-1496.8703,-572.53598)"
       x1="104"
       y1="479"
       x2="104"
       y2="484" />
    <linearGradient
       id="linearGradient2494"
       y2="16.190001"
       gradientUnits="userSpaceOnUse"
       x2="62.988998"
       gradientTransform="matrix(0.64168,0,0,0.6402,137.4476,1016.4143)"
       y1="13.183"
       x1="62.988998">
      <stop
         id="stop6406"
         style="stop-color:#f9f9f9"
         offset="0" />
      <stop
         id="stop6408"
         style="stop-color:#c9c9c9"
         offset="1" />
    </linearGradient>
    <linearGradient
       inkscape:collect="always"
       xlink:href="#linearGradient4100-0"
       id="linearGradient3488"
       gradientUnits="userSpaceOnUse"
       gradientTransform="matrix(1.2831648,0,0,-0.78072018,-1496.8703,526.37625)"
       x1="103"
       y1="1027.3622"
       x2="103"
       y2="1018.3622" />
    <radialGradient
       inkscape:collect="always"
       xlink:href="#linearGradient4563"
       id="radialGradient4569"
       cx="203.5"
       cy="30.5"
       fx="203.5"
       fy="30.5"
       r="11.5"
       gradientTransform="matrix(1,0,0,0.13043478,0,26.521739)"
       gradientUnits="userSpaceOnUse" />
    <linearGradient
       inkscape:collect="always"
       id="linearGradient4563">
      <stop
         style="stop-color:#ffffff;stop-opacity:1;"
         offset="0"
         id="stop4565" />
      <stop
         style="stop-color:#ffffff;stop-opacity:0;"
         offset="1"
         id="stop4567" />
    </linearGradient>
    <radialGradient
       r="11.5"
       fy="30.5"
       fx="203.5"
       cy="30.5"
       cx="203.5"
       gradientTransform="matrix(1.3333295,0,0,0.10413448,-1626.0945,-292.59021)"
       gradientUnits="userSpaceOnUse"
       id="radialGradient4160"
       xlink:href="#linearGradient4563"
       inkscape:collect="always" />
    <linearGradient
       inkscape:collect="always"
       xlink:href="#linearGradient971"
       id="linearGradient973"
       x1="-1358.4624"
       y1="-314.11517"
       x2="-1358.4624"
       y2="-289.45483"
       gradientUnits="userSpaceOnUse"
       gradientTransform="matrix(1.0819576,0,0,0.99027913,111.83894,-1.7180205)" />
    <linearGradient
       inkscape:collect="always"
       xlink:href="#linearGradient1023"
       id="linearGradient1025"
       x1="-1363.4286"
       y1="-289.56473"
       x2="-1363.4286"
       y2="-261.57712"
       gradientUnits="userSpaceOnUse"
       gradientTransform="matrix(1.0769212,0,0,0.99027913,104.87651,-2.5433095)" />
  </defs>
  <sodipodi:namedview
     id="base"
     pagecolor="#ffffff"
     bordercolor="#666666"
     borderopacity="1.0"
     inkscape:pageopacity="0.0"
     inkscape:pageshadow="2"
     inkscape:zoom="8"
     inkscape:cx="39.924107"
     inkscape:cy="31.488954"
     inkscape:document-units="px"
     inkscape:current-layer="layer1"
     showgrid="false"
     fit-margin-top="0"
     fit-margin-left="0"
     fit-margin-right="0"
     fit-margin-bottom="0"
     inkscape:window-width="1920"
     inkscape:window-height="1043"
     inkscape:window-x="1920"
     inkscape:window-y="0"
     inkscape:window-maximized="1"
     showguides="true" />
  <metadata
     id="metadata4167">
    <rdf:RDF>
      <cc:Work
         rdf:about="">
        <dc:format>image/svg+xml</dc:format>
        <dc:type
           rdf:resource="http://purl.org/dc/dcmitype/StillImage" />
        <dc:title></dc:title>
      </cc:Work>
    </rdf:RDF>
  </metadata>
  <g
     inkscape:label="Layer 1"
     inkscape:groupmode="layer"
     id="layer1"
     transform="translate(1395.4286,319.06642)">
    <ellipse
       ry="3.6279068"
       rx="31.999989"
       cy="-243.06934"
       cx="-1352.1786"
       id="path6982-8"
       style="color:#000000;display:inline;overflow:visible;visibility:visible;opacity:0.4;fill:url(#radialGradient3460);fill-opacity:1;fill-rule:nonzero;stroke:none;stroke-width:0.49099016;marker:none;enable-background:accumulate" />
    <path
       inkscape:connector-curvature="0"
       id="path3912"
       d="m -1387.4983,-312.56642 c -0.7243,0 -1.0387,1.88919 -1.3077,3.8902 l -1.3077,9.72555 c 0,0 -0.7764,5.8353 -0.7764,9.72553 0,2.15517 0.5835,3.94409 1.3077,3.8902 l 26.1537,-1.94511 26.1537,1.94511 c 0.7242,0.0542 1.3079,-1.73503 1.3079,-3.8902 0,-3.89023 -0.7766,-9.72553 -0.7766,-9.72553 l -1.3078,-9.72555 c -0.269,-2.00101 -0.5831,-3.8902 -1.3075,-3.8902 h -24.0697 z"
       style="fill:url(#radialGradient3462);fill-opacity:1;stroke:url(#linearGradient973);stroke-width:0.99999994;stroke-miterlimit:4;stroke-dasharray:none;stroke-opacity:1" />
    <rect
       ry="0.79836226"
       y="-289.01489"
       x="-1391.4286"
       height="27.942751"
       width="55.99984"
       id="rect3916"
       style="fill:url(#linearGradient3464);fill-opacity:1;stroke:none;stroke-width:0.9999997" />
    <rect
       ry="0.79836226"
       y="-286.61981"
       x="-1387.4285"
       height="23.152569"
       width="47.999863"
       id="rect3918"
       style="fill:#1a1a1a;fill-opacity:1;stroke:none;stroke-width:0.9999997" />
    <rect
       ry="0.79836226"
       y="-285.82147"
       x="-1382.0952"
       height="3.0869861"
       width="37.333225"
       id="rect3920"
       style="fill:#4e1c04;fill-opacity:1;stroke:none;stroke-width:0.9999997" />
    <path
       inkscape:connector-curvature="0"
       id="path3922"
       d="m -1390.0952,-289.81329 c -0.3364,0 -0.6409,0.0773 -0.875,0.19957 -0.2212,0.41876 -0.4584,0.94213 -0.4584,1.39716 0,-0.44231 0.5947,-0.79838 1.3334,-0.79838 h 53.3332 c 0.7386,0 1.3334,0.35607 1.3334,0.79838 0,-0.45503 -0.2373,-0.9784 -0.4585,-1.39716 -0.234,-0.12226 -0.5384,-0.19957 -0.8749,-0.19957 z"
       style="opacity:0.3;fill:#ffffff;fill-opacity:1;stroke:none;stroke-width:0.9999997" />
    <rect
       style="fill:#8c3308;fill-opacity:1;stroke:none;stroke-width:0.9999997"
       id="rect3924"
       width="39.70536"
       height="3.1934574"
       x="-1383.0927"
       y="-285.02307"
       ry="0.79836226" />
    <path
       sodipodi:nodetypes="sccssssssss"
       inkscape:connector-curvature="0"
       id="path3926"
       d="m -1383.0926,-284.22473 h 27.7938 l 1.4337,-0.79837 h 10.4781 c 0.7331,0 1.3233,0.35609 1.3233,0.79837 v 2.3951 c 0,0.44228 -0.5902,0.79837 -1.3233,0.79837 h -39.7056 c -0.7331,0 -1.3233,-0.35609 -1.3233,-0.79837 v -1.59675 c 0,-0.4423 0.5902,-0.79835 1.3233,-0.79835 z"
       style="fill:#c44d22;fill-opacity:1;stroke:none;stroke-width:0.9999997" />
    <ellipse
       ry="8"
       rx="56"
       cy="136"
       cx="88"
       style="color:#000000;display:inline;overflow:visible;visibility:visible;opacity:0.3;fill:#000000;fill-opacity:1;fill-rule:nonzero;stroke:none;stroke-width:1.01470089;marker:none;filter:url(#filter7008-1-41);enable-background:accumulate"
       id="path6992-3"
       transform="matrix(0.46415329,0,0,0.08461559,-1401.8991,-260.4494)" />
    <path
       style="opacity:0.05;fill:url(#linearGradient3470);fill-opacity:1;stroke:none;stroke-width:1.00000012"
       d="m -1384.8415,-284.34281 c -1.1998,0 -2.293,0.25748 -3.0171,0.95146 -0.5051,0.48405 -0.6038,0.88394 -0.7256,1.0735 -0.2052,0.31915 -0.4249,0.7512 -0.5347,1.31747 v 15.44365 c 0,0.43252 0.545,0.78071 1.222,0.78071 h 48.8856 c 0.6769,0 1.2221,-0.34819 1.2221,-0.78071 v -15.44365 c -0.11,-0.56658 -0.33,-0.99894 -0.5348,-1.31747 -0.1218,-0.18956 -0.2207,-0.58945 -0.7256,-1.0735 -0.7242,-0.69398 -1.8173,-0.95146 -3.017,-0.95146 h -21.3876 z"
       id="path3940"
       inkscape:connector-curvature="0" />
    <path
       style="opacity:0.15;fill:url(#linearGradient3472);fill-opacity:1;stroke:none;stroke-width:1.00000012"
       d="m -1385.4298,-283.53772 c -0.7279,0 -1.6219,0.28563 -1.9953,0.66833 -0.3733,0.38263 -0.4265,0.68382 -0.6261,1.0158 -0.2718,0.45225 -0.5348,0.92231 -0.5476,1.76428 v 17.10818 c 0.014,2.7e-4 0.027,0 0.04,0 h 50.0797 c 0.014,0 0.027,2.7e-4 0.04,0 v -17.10818 c -0.013,-0.84232 -0.2762,-1.31246 -0.5478,-1.76428 -0.1998,-0.33198 -0.2528,-0.63317 -0.626,-1.0158 -0.3733,-0.3827 -1.2676,-0.66833 -1.9955,-0.66833 h -21.9098 -21.9098 z"
       id="path3942"
       inkscape:connector-curvature="0" />
    <path
       id="path3944"
       d="m -1385.8767,-282.73258 c -1.0116,0 -1.0191,0.33657 -1.4835,1.02468 -0.2846,0.42152 -0.4291,0.61427 -0.4411,1.31747 h 24.3798 24.3802 c -0.012,-0.7032 -0.1564,-0.89595 -0.441,-1.31747 -0.4644,-0.68811 -0.472,-1.02468 -1.4835,-1.02468 h -22.4557 z"
       style="fill:#d2d2d2;fill-opacity:1;stroke:none;stroke-width:1.00000012"
       inkscape:connector-curvature="0" />
    <rect
       ry="0.78071821"
       y="-281.17117"
       x="-1387.8014"
       height="18.737284"
       width="48.760265"
       id="rect3948"
       style="fill:url(#linearGradient3474);fill-opacity:1;stroke:none;stroke-width:1.00000012" />
    <path
       id="path3950"
       d="m -1386.5183,-281.95187 c -0.3045,0 -0.5824,0.0638 -0.8018,0.17079 -0.018,0.0269 -0.022,0.0451 -0.041,0.0732 -0.2846,0.42156 -0.429,0.61431 -0.4411,1.31751 0,-0.43251 0.5722,-0.78071 1.2831,-0.78071 h 46.194 c 0.7108,0 1.283,0.3482 1.283,0.78071 -0.012,-0.7032 -0.1565,-0.89595 -0.441,-1.31747 -0.019,-0.0281 -0.023,-0.0463 -0.041,-0.0732 -0.2194,-0.10708 -0.4973,-0.17083 -0.8018,-0.17083 z"
       style="opacity:0.4;fill:#ffffff;fill-opacity:1;stroke:none;stroke-width:1.00000012"
       inkscape:connector-curvature="0" />
    <path
       style="opacity:0.1;fill:url(#linearGradient3476);fill-opacity:1;stroke:none;stroke-width:1.00000012"
       d="m -1386.5183,-281.17114 c -0.7108,0 -1.283,0.3482 -1.283,0.78071 v 17.17585 c 0,0.43252 0.5722,0.78072 1.283,0.78072 h 20.7713 l -12.1901,-18.73728 z"
       id="path3952"
       inkscape:connector-curvature="0" />
    <path
       style="opacity:0.2;fill:url(#linearGradient3478);fill-opacity:1;stroke:none;stroke-width:1.00000012"
       d="m -1387.8012,-263.99531 v 0.78072 c 0,0.43252 0.5721,0.78072 1.2829,0.78072 h 46.1941 c 0.7108,0 1.283,-0.3482 1.283,-0.78072 v -0.78072 c 0,0.43252 -0.5722,0.78072 -1.283,0.78072 h -46.1941 c -0.7108,0 -1.2829,-0.3482 -1.2829,-0.78072 z"
       id="rect3958"
       inkscape:connector-curvature="0" />
    <ellipse
       style="color:#000000;display:inline;overflow:visible;visibility:visible;opacity:0.6;fill:url(#radialGradient4586);fill-opacity:1;fill-rule:nonzero;stroke:none;stroke-width:1.00000012;marker:none;enable-background:accumulate"
       id="path4561-9"
       cx="-1357.6472"
       cy="-281.56152"
       rx="14.756395"
       ry="1.1710802" />
    <path
       transform="matrix(1.2831649,0,0,0.7807202,-1496.8705,-1069.0444)"
       d="m 99,1015.9531 c -1.328288,0 -2.421875,1.0935 -2.421875,2.4219 v 7 c 0,1.3284 1.09333,2.4222 2.421875,2.4219 h 10 c 1.32829,0 2.42188,-1.0935 2.42188,-2.4219 v -7 c 0,-1.3284 -1.09333,-2.4222 -2.42188,-2.4219 z"
       id="path3971"
       style="opacity:0.1;fill:#000000;fill-opacity:1;stroke:none;stroke-width:0.99910486"
       inkscape:original="M 99 1016.8438 C 98.15884 1016.8438 97.46875 1017.5338 97.46875 1018.375 L 97.46875 1025.375 C 97.46875 1026.2162 98.15884 1026.9064 99 1026.9062 L 109 1026.9062 C 109.84116 1026.9062 110.53125 1026.2162 110.53125 1025.375 L 110.53125 1018.375 C 110.53125 1017.5338 109.84116 1016.8436 109 1016.8438 L 99 1016.8438 z "
       inkscape:radius="0.89076704"
       sodipodi:type="inkscape:offset" />
    <rect
       ry="1.5614384"
       y="-275.70612"
       x="-1372.4034"
       height="8.587924"
       width="17.96431"
       id="rect3973"
       style="fill:url(#linearGradient3482);fill-opacity:1;stroke:none;stroke-width:0.9999997" />
    <rect
       ry="0.78072023"
       style="opacity:0.7;fill:url(#linearGradient3484);fill-opacity:1;stroke:none;stroke-width:0.9999997"
       id="rect3975"
       width="12.831646"
       height="5.4650388"
       x="-1369.837"
       y="-274.14468" />
    <rect
       style="opacity:0.6;fill:#000000;fill-opacity:1;stroke:none;stroke-width:0.9999997"
       id="rect3977"
       width="10.265319"
       height="3.1228809"
       x="-1368.5537"
       y="-272.58325"
       rx="0.64158243" />
    <rect
       rx="0.64158243"
       y="-273.36392"
       x="-1368.5537"
       height="3.1228809"
       width="10.265319"
       id="rect3979"
       style="fill:url(#linearGradient3486);fill-opacity:1;stroke:none;stroke-width:0.9999997" />
    <path
       inkscape:connector-curvature="0"
       id="path3981"
       d="m -1369.8371,-269.46038 v 0.78072 c 0,0.43252 0.5723,0.78073 1.2831,0.78073 h 10.2656 c 0.7108,0 1.2833,-0.34821 1.2833,-0.78073 v -0.78072 c 0,0.43252 -0.5725,0.78072 -1.2833,0.78072 h -10.2656 c -0.7108,0 -1.2831,-0.3482 -1.2831,-0.78072 z"
       style="opacity:0.2;fill:#ffffff;fill-opacity:1;stroke:none;stroke-width:0.9999997" />
    <path
       inkscape:connector-curvature="0"
       id="path3983"
       d="m -1369.8371,-275.70613 c -1.4218,0 -2.5662,0.6964 -2.5662,1.56144 v 5.46503 c 0,0.86505 1.1444,1.56144 2.5662,1.56144 h 12.832 c 1.4218,0 2.5661,-0.69639 2.5661,-1.56144 v -5.46503 c 0,-0.86504 -1.1443,-1.56144 -2.5661,-1.56144 z m 0,0.26833 h 12.832 c 1.1884,0 2.1248,0.57007 2.1248,1.29311 v 5.46503 c 0,0.72303 -0.9364,1.29312 -2.1248,1.29304 h -12.832 c -1.1882,0 -2.1253,-0.57001 -2.1253,-1.29304 v -5.46503 c 0,-0.72304 0.9371,-1.29311 2.1253,-1.29311 z"
       style="opacity:0.5;fill:url(#linearGradient3488);fill-opacity:1;stroke:none;stroke-width:0.9999997" />
    <rect
       y="-320.22943"
       x="-1395.4286"
       height="64"
       width="63.999989"
       id="rect3985"
       style="opacity:0.2;fill:none;stroke:none;stroke-width:0.99999988" />
    <ellipse
       ry="1.1975465"
       rx="15.33329"
       cy="-289.41409"
       cx="-1354.762"
       id="path4561"
       style="color:#000000;display:inline;overflow:visible;visibility:visible;opacity:0.6;fill:url(#radialGradient4160);fill-opacity:1;fill-rule:nonzero;stroke:none;stroke-width:0.9999997;marker:none;enable-background:accumulate" />
    <path
       style="fill:none;fill-opacity:1;stroke:url(#linearGradient1025);stroke-width:0.9999997;stroke-opacity:1"
       d="m -1335.9671,-289.74332 v 27.34754 c 0,0.83112 10e-4,0.82871 -0.8515,0.82871 h -53.5565 c -0.5312,0 -0.515,0.002 -0.515,-0.82871 v -27.34754"
       id="rect3916-5"
       inkscape:connector-curvature="0"
       sodipodi:nodetypes="cssssc" />
  </g>
</svg>
