<?xml version="1.0" encoding="UTF-8" standalone="no"?>
<!-- Created with Inkscape (http://www.inkscape.org/) -->

<svg
   xmlns:dc="http://purl.org/dc/elements/1.1/"
   xmlns:cc="http://creativecommons.org/ns#"
   xmlns:rdf="http://www.w3.org/1999/02/22-rdf-syntax-ns#"
   xmlns:svg="http://www.w3.org/2000/svg"
   xmlns="http://www.w3.org/2000/svg"
   xmlns:xlink="http://www.w3.org/1999/xlink"
   xmlns:sodipodi="http://sodipodi.sourceforge.net/DTD/sodipodi-0.dtd"
   xmlns:inkscape="http://www.inkscape.org/namespaces/inkscape"
   width="64"
   height="64"
   id="svg4162"
   version="1.1"
   inkscape:version="0.92.4 (5da689c313, 2019-01-14)"
   sodipodi:docname="system-file-manager-1.svg">
  <defs
     id="defs4164">
    <radialGradient
       inkscape:collect="always"
       xlink:href="#linearGradient4147-2"
       id="radialGradient3460"
       gradientUnits="userSpaceOnUse"
       gradientTransform="matrix(0.57142837,0,0,0.06478404,-1413.7143,-269.50499)"
       cx="88"
       cy="136"
       fx="88"
       fy="136"
       r="56" />
    <linearGradient
       inkscape:collect="always"
       id="linearGradient4147-2">
      <stop
         style="stop-color:#000000;stop-opacity:1;"
         offset="0"
         id="stop4149-7" />
      <stop
         style="stop-color:#000000;stop-opacity:0;"
         offset="1"
         id="stop4151-3" />
    </linearGradient>
    <radialGradient
       inkscape:collect="always"
       xlink:href="#linearGradient4008"
       id="radialGradient3462"
       gradientUnits="userSpaceOnUse"
       gradientTransform="matrix(2.0634898,3.9552299e-7,-4.2738833e-8,2.2448006,-1569.7776,-1284.7766)"
       cx="94"
       cy="432.50015"
       fx="94"
       fy="432.50015"
       r="21" />
    <linearGradient
       id="linearGradient4008">
      <stop
         style="stop-color:#eeeeee;stop-opacity:1;"
         offset="0"
         id="stop4010" />
      <stop
         style="stop-color:#b2b2b2;stop-opacity:1;"
         offset="1"
         id="stop4012" />
    </linearGradient>
    <linearGradient
       inkscape:collect="always"
       xlink:href="#linearGradient4025"
       id="linearGradient3464"
       gradientUnits="userSpaceOnUse"
       gradientTransform="matrix(1.2380939,0,0,0.80620134,-1492.1903,-1092.583)"
       x1="102"
       y1="995.36218"
       x2="102"
       y2="1030.3622" />
    <linearGradient
       id="linearGradient4025">
      <stop
         style="stop-color:#b3b3b3;stop-opacity:1;"
         offset="0"
         id="stop4027" />
      <stop
         style="stop-color:#737373;stop-opacity:1;"
         offset="1"
         id="stop4029" />
    </linearGradient>
    <linearGradient
       inkscape:collect="always"
       xlink:href="#linearGradient4022"
       id="linearGradient3466"
       gradientUnits="userSpaceOnUse"
       x1="90"
       y1="1002.4155"
       x2="90"
       y2="1005.3622" />
    <linearGradient
       id="linearGradient4022">
      <stop
         id="stop4024"
         offset="0"
         style="stop-color:#f0c077;stop-opacity:1" />
      <stop
         id="stop4026"
         offset="1"
         style="stop-color:#df841e;stop-opacity:1" />
    </linearGradient>
    <linearGradient
       inkscape:collect="always"
       xlink:href="#radialGradient2488"
       id="linearGradient3468"
       gradientUnits="userSpaceOnUse"
       x1="94.234467"
       y1="461.03009"
       x2="94.234467"
       y2="468.93848" />
    <radialGradient
       id="radialGradient2488"
       gradientUnits="userSpaceOnUse"
       cy="14.113"
       cx="63.969002"
       gradientTransform="matrix(1.008,-6.1246e-8,3.9794e-8,0.65396,114.5926,1019.5096)"
       r="23.097">
      <stop
         id="stop3618"
         style="stop-color:#f0c178"
         offset="0" />
      <stop
         id="stop3270"
         style="stop-color:#e18941"
         offset=".5" />
      <stop
         id="stop3620"
         style="stop-color:#ec4f18"
         offset="1" />
    </radialGradient>
    <filter
       inkscape:collect="always"
       id="filter7008-1-41"
       x="-0.05617585"
       width="1.1123517"
       y="-0.39323094"
       height="1.7864619"
       style="color-interpolation-filters:sRGB">
      <feGaussianBlur
         inkscape:collect="always"
         stdDeviation="2.6215397"
         id="feGaussianBlur7010-9-35" />
    </filter>
    <filter
       inkscape:collect="always"
       id="filter4649"
       x="-0.056157865"
       width="1.1123157"
       y="-0.39310506"
       height="1.7862101"
       style="color-interpolation-filters:sRGB">
      <feGaussianBlur
         inkscape:collect="always"
         stdDeviation="2.6207004"
         id="feGaussianBlur4651" />
    </filter>
    <linearGradient
       inkscape:collect="always"
       xlink:href="#linearGradient4073"
       id="linearGradient3470"
       gradientUnits="userSpaceOnUse"
       gradientTransform="translate(0,540.36218)"
       x1="94"
       y1="493"
       x2="94"
       y2="467" />
    <linearGradient
       inkscape:collect="always"
       id="linearGradient4073">
      <stop
         style="stop-color:#000000;stop-opacity:1;"
         offset="0"
         id="stop4075" />
      <stop
         style="stop-color:#000000;stop-opacity:0;"
         offset="1"
         id="stop4077" />
    </linearGradient>
    <linearGradient
       inkscape:collect="always"
       xlink:href="#linearGradient4073"
       id="linearGradient3472"
       gradientUnits="userSpaceOnUse"
       gradientTransform="translate(0,540.36218)"
       x1="94"
       y1="493"
       x2="94"
       y2="459.6958" />
    <linearGradient
       inkscape:collect="always"
       xlink:href="#linearGradient4033"
       id="linearGradient3474"
       gradientUnits="userSpaceOnUse"
       x1="95"
       y1="1010.3622"
       x2="105"
       y2="1035.3622" />
    <linearGradient
       id="linearGradient4033">
      <stop
         style="stop-color:#bfbfbf;stop-opacity:1;"
         offset="0"
         id="stop4035" />
      <stop
         style="stop-color:#8e8e8e;stop-opacity:1;"
         offset="1"
         id="stop4037" />
    </linearGradient>
    <linearGradient
       inkscape:collect="always"
       xlink:href="#linearGradient4100-0"
       id="linearGradient3476"
       gradientUnits="userSpaceOnUse"
       x1="89.380867"
       y1="468.54459"
       x2="89.380867"
       y2="490.59589" />
    <linearGradient
       inkscape:collect="always"
       id="linearGradient4100-0">
      <stop
         style="stop-color:#ffffff;stop-opacity:1;"
         offset="0"
         id="stop4102-52" />
      <stop
         style="stop-color:#ffffff;stop-opacity:0;"
         offset="1"
         id="stop4104-3" />
    </linearGradient>
    <linearGradient
       inkscape:collect="always"
       xlink:href="#linearGradient4100-0"
       id="linearGradient3478"
       gradientUnits="userSpaceOnUse"
       gradientTransform="translate(104,-964.36218)"
       spreadMethod="reflect"
       x1="104"
       y1="1033.3622"
       x2="129.30823"
       y2="1033.2279" />
    <radialGradient
       r="11.5"
       fy="30.5"
       fx="203.5"
       cy="30.5"
       cx="203.5"
       gradientTransform="matrix(1,0,0,0.13043478,0,26.521739)"
       gradientUnits="userSpaceOnUse"
       id="radialGradient4586"
       xlink:href="#linearGradient4563-4"
       inkscape:collect="always" />
    <linearGradient
       inkscape:collect="always"
       id="linearGradient4563-4">
      <stop
         style="stop-color:#ffffff;stop-opacity:1;"
         offset="0"
         id="stop4565-8" />
      <stop
         style="stop-color:#ffffff;stop-opacity:0;"
         offset="1"
         id="stop4567-0" />
    </linearGradient>
    <linearGradient
       inkscape:collect="always"
       xlink:href="#radialGradient2496"
       id="linearGradient3482"
       gradientUnits="userSpaceOnUse"
       gradientTransform="matrix(1.2380939,0,0,0.80620134,-1492.1903,-1092.583)"
       x1="103"
       y1="1026.3622"
       x2="103"
       y2="1017.3622" />
    <radialGradient
       id="radialGradient2496"
       gradientUnits="userSpaceOnUse"
       cy="5.0172"
       cx="3"
       gradientTransform="matrix(0,1.0975,-1.3856,0,178.3546,1018.2433)"
       r="21">
      <stop
         id="stop3486"
         style="stop-color:#bdbdbd"
         offset="0" />
      <stop
         id="stop3488"
         style="stop-color:#d0d0d0"
         offset="1" />
    </radialGradient>
    <linearGradient
       inkscape:collect="always"
       xlink:href="#linearGradient4147"
       id="linearGradient3484"
       gradientUnits="userSpaceOnUse"
       gradientTransform="matrix(1.2380939,0,0,0.80620134,-1492.1903,-1092.583)"
       x1="103.70063"
       y1="1018.3156"
       x2="103.70063"
       y2="1028.0261" />
    <linearGradient
       inkscape:collect="always"
       id="linearGradient4147">
      <stop
         style="stop-color:#000000;stop-opacity:1;"
         offset="0"
         id="stop4149" />
      <stop
         style="stop-color:#000000;stop-opacity:0;"
         offset="1"
         id="stop4151" />
    </linearGradient>
    <linearGradient
       inkscape:collect="always"
       xlink:href="#linearGradient2494"
       id="linearGradient3486"
       gradientUnits="userSpaceOnUse"
       gradientTransform="matrix(1.2380939,0,0,0.64496106,-1492.1903,-579.70824)"
       x1="104"
       y1="479"
       x2="104"
       y2="484" />
    <linearGradient
       id="linearGradient2494"
       y2="16.190001"
       gradientUnits="userSpaceOnUse"
       x2="62.988998"
       gradientTransform="matrix(0.64168,0,0,0.6402,137.4476,1016.4143)"
       y1="13.183"
       x1="62.988998">
      <stop
         id="stop6406"
         style="stop-color:#f9f9f9"
         offset="0" />
      <stop
         id="stop6408"
         style="stop-color:#c9c9c9"
         offset="1" />
    </linearGradient>
    <linearGradient
       inkscape:collect="always"
       xlink:href="#linearGradient4100-0"
       id="linearGradient3488"
       gradientUnits="userSpaceOnUse"
       gradientTransform="matrix(1.2380939,0,0,-0.80620134,-1492.1903,555.07031)"
       x1="103"
       y1="1027.3622"
       x2="103"
       y2="1018.3622" />
    <radialGradient
       inkscape:collect="always"
       xlink:href="#linearGradient4563"
       id="radialGradient4569"
       cx="203.5"
       cy="30.5"
       fx="203.5"
       fy="30.5"
       r="11.5"
       gradientTransform="matrix(1,0,0,0.13043478,0,26.521739)"
       gradientUnits="userSpaceOnUse" />
    <linearGradient
       inkscape:collect="always"
       id="linearGradient4563">
      <stop
         style="stop-color:#ffffff;stop-opacity:1;"
         offset="0"
         id="stop4565" />
      <stop
         style="stop-color:#ffffff;stop-opacity:0;"
         offset="1"
         id="stop4567" />
    </linearGradient>
    <radialGradient
       r="11.5"
       fy="30.5"
       fx="203.5"
       cy="30.5"
       cx="203.5"
       gradientTransform="matrix(1.2380939,0,0,0.10515669,-1607.3331,-293.73108)"
       gradientUnits="userSpaceOnUse"
       id="radialGradient4160"
       xlink:href="#linearGradient4563"
       inkscape:collect="always" />
  </defs>
  <sodipodi:namedview
     id="base"
     pagecolor="#ffffff"
     bordercolor="#666666"
     borderopacity="1.0"
     inkscape:pageopacity="0.0"
     inkscape:pageshadow="2"
     inkscape:zoom="8"
     inkscape:cx="31.141264"
     inkscape:cy="31.004827"
     inkscape:document-units="px"
     inkscape:current-layer="layer1"
     showgrid="false"
     fit-margin-top="0"
     fit-margin-left="0"
     fit-margin-right="0"
     fit-margin-bottom="0"
     inkscape:window-width="1920"
     inkscape:window-height="1043"
     inkscape:window-x="1920"
     inkscape:window-y="0"
     inkscape:window-maximized="1"
     showguides="true" />
  <metadata
     id="metadata4167">
    <rdf:RDF>
      <cc:Work
         rdf:about="">
        <dc:format>image/svg+xml</dc:format>
        <dc:type
           rdf:resource="http://purl.org/dc/dcmitype/StillImage" />
        <dc:title></dc:title>
      </cc:Work>
    </rdf:RDF>
  </metadata>
  <g
     inkscape:label="Layer 1"
     inkscape:groupmode="layer"
     id="layer1"
     transform="translate(1395.4286,319.06642)">
    <ellipse
       ry="3.6279068"
       rx="31.999989"
       cy="-260.69434"
       cx="-1363.4286"
       id="path6982-8"
       style="color:#000000;display:inline;overflow:visible;visibility:visible;opacity:0.4;fill:url(#radialGradient3460);fill-opacity:1;fill-rule:nonzero;stroke:none;stroke-width:0.49099016;marker:none;enable-background:accumulate" />
    <path
       inkscape:connector-curvature="0"
       id="path3912"
       d="m -1386.2173,-313.89978 c -0.6859,0 -0.9834,1.90773 -1.2382,3.92839 l -1.238,9.82101 c 0,0 -0.7351,5.89259 -0.7351,9.821 0,2.17633 0.5524,3.98281 1.2381,3.92839 l 24.7619,-1.9642 24.7619,1.9642 c 0.6856,0.0547 1.2381,-1.75206 1.2381,-3.92839 0,-3.92841 -0.7352,-9.821 -0.7352,-9.821 l -1.2382,-9.82101 c -0.2546,-2.02066 -0.552,-3.92839 -1.238,-3.92839 h -22.7886 z"
       style="fill:url(#radialGradient3462);fill-opacity:1;stroke:none;stroke-width:0.99999982" />
    <rect
       ry="0.80619919"
       y="-290.12064"
       x="-1389.4286"
       height="28.217045"
       width="51.999939"
       id="rect3916"
       style="fill:url(#linearGradient3464);fill-opacity:1;stroke:none;stroke-width:0.99999988" />
    <rect
       ry="0.80619919"
       y="-287.70206"
       x="-1385.7144"
       height="23.379841"
       width="44.571381"
       id="rect3918"
       style="fill:#1a1a1a;fill-opacity:1;stroke:none;stroke-width:0.99999988" />
    <rect
       ry="0.80619919"
       y="-286.89587"
       x="-1380.7618"
       height="3.1172888"
       width="34.66663"
       id="rect3920"
       style="fill:#4e1c04;fill-opacity:1;stroke:none;stroke-width:0.99999988" />
    <path
       inkscape:connector-curvature="0"
       id="path3922"
       d="m -1388.1905,-290.92691 c -0.3124,0 -0.5952,0.0781 -0.8125,0.20154 -0.2053,0.42287 -0.4256,0.95138 -0.4256,1.41087 0,-0.44665 0.5522,-0.80621 1.2381,-0.80621 h 49.5238 c 0.6858,0 1.2381,0.35956 1.2381,0.80621 0,-0.45949 -0.2203,-0.988 -0.4257,-1.41087 -0.2173,-0.12346 -0.5,-0.20154 -0.8124,-0.20154 z"
       style="opacity:0.3;fill:#ffffff;fill-opacity:1;stroke:none;stroke-width:0.99999988" />
    <rect
       style="fill:#8c3308;fill-opacity:1;stroke:none;stroke-width:0.99999988"
       id="rect3924"
       width="37.142815"
       height="3.2248054"
       x="-1382"
       y="-286.08963"
       ry="0.80619919" />
    <path
       sodipodi:nodetypes="sccssssssss"
       inkscape:connector-curvature="0"
       id="path3926"
       d="m -1382,-285.28349 h 25.9999 l 1.3413,-0.8062 h 9.8016 c 0.6859,0 1.2381,0.35958 1.2381,0.8062 v 2.41862 c 0,0.44662 -0.5522,0.8062 -1.2381,0.8062 H -1382 c -0.686,0 -1.2381,-0.35958 -1.2381,-0.8062 v -1.61242 c 0,-0.44664 0.5521,-0.8062 1.2381,-0.8062 z"
       style="fill:#c44d22;fill-opacity:1;stroke:none;stroke-width:0.99999988" />
    <g
       transform="matrix(1.2380939,0,0,0.80620136,-1492.1904,-1093.3893)"
       id="g3928"
       style="stroke-width:1.00092483">
      <path
         sodipodi:nodetypes="scccccssccs"
         inkscape:connector-curvature="0"
         id="path3930"
         d="m 88,1002.3622 c -0.553998,0 -1,0.446 -1,1 v 4 H 87.8125 98 121 v -3 c 0,-0.554 -0.446,-1 -1,-1 H 98 l -1,-1 z"
         style="fill:url(#linearGradient3466);fill-opacity:1;stroke:none;stroke-width:1.00092483" />
      <rect
         style="fill:url(#linearGradient3468);fill-opacity:1;stroke:none;stroke-width:1.00092483"
         id="rect3932"
         width="34"
         height="4"
         x="87"
         y="465"
         transform="translate(0,540.36218)"
         ry="0.99999738" />
      <path
         inkscape:connector-curvature="0"
         transform="translate(0,541.36218)"
         id="path3934"
         d="m 88,464 c -0.553999,0 -1,0.446 -1,1 v 1 c 0,-0.554 0.446001,-1 1,-1 h 32 c 0.554,0 1,0.446 1,1 v -1 c 0,-0.554 -0.446,-1 -1,-1 z"
         style="fill:#c75a28;fill-opacity:1;stroke:none;stroke-width:1.00092483" />
      <rect
         transform="translate(0,541.36218)"
         y="463"
         x="89"
         height="1"
         width="30"
         id="rect3936"
         style="fill:#f2f2f2;fill-opacity:1;stroke:none;stroke-width:1.00092483" />
    </g>
    <ellipse
       ry="8"
       rx="56"
       cy="136"
       cx="88"
       style="color:#000000;display:inline;overflow:visible;visibility:visible;opacity:0.3;fill:#000000;fill-opacity:1;fill-rule:nonzero;stroke:none;stroke-width:1.01470089;marker:none;filter:url(#filter7008-1-41);enable-background:accumulate"
       id="path6992-3"
       transform="matrix(0.46415329,0,0,0.08461559,-1404.2741,-273.41139)" />
    <ellipse
       ry="8"
       rx="56"
       cy="136"
       cx="88"
       transform="matrix(0.39594291,0,0,0.08461559,-1398.2715,-270.99279)"
       id="path4639"
       style="color:#000000;display:inline;overflow:visible;visibility:visible;opacity:0.5;fill:#000000;fill-opacity:1;fill-rule:nonzero;stroke:none;stroke-width:1.0276767;marker:none;filter:url(#filter4649);enable-background:accumulate" />
    <g
       transform="matrix(1.2380939,0,0,0.80620136,-1492.1904,-1092.583)"
       id="g3938"
       style="stroke-width:1.00092483">
      <path
         inkscape:connector-curvature="0"
         id="path3940"
         d="m 86.5,1005.2997 c -0.98188,0 -1.87629,0.3298 -2.46875,1.2187 -0.4132,0.62 -0.49403,1.1322 -0.59375,1.375 -0.16789,0.4088 -0.34768,0.9622 -0.4375,1.6875 v 19.7813 c 0,0.554 0.446,1 1,1 h 40 c 0.554,0 1,-0.446 1,-1 v -19.7813 c -0.0899,-0.7257 -0.26994,-1.2795 -0.4375,-1.6875 -0.0997,-0.2428 -0.18055,-0.755 -0.59375,-1.375 -0.59246,-0.8889 -1.48689,-1.2187 -2.46875,-1.2187 H 104 Z"
         style="opacity:0.05;fill:url(#linearGradient3470);fill-opacity:1;stroke:none;stroke-width:1.00092483" />
      <path
         inkscape:connector-curvature="0"
         id="path3942"
         d="m 86.5,1006.3309 c -0.5814,0 -1.29559,0.3339 -1.59375,0.7813 -0.29816,0.4473 -0.34063,0.7994 -0.5,1.1875 -0.21715,0.5287 -0.4272,1.0782 -0.4375,2.0625 v 20 c 0.0108,3e-4 0.0204,0 0.0312,0 h 40 c 0.0109,0 0.0205,3e-4 0.0312,0 v -20 c -0.01,-0.9847 -0.22053,-1.5343 -0.4375,-2.0625 -0.15937,-0.3881 -0.20184,-0.7402 -0.5,-1.1875 -0.29816,-0.4474 -1.01235,-0.7813 -1.59375,-0.7813 h -17.5 -17.5 z"
         style="opacity:0.15;fill:url(#linearGradient3472);fill-opacity:1;stroke:none;stroke-width:1.00092483" />
      <path
         inkscape:connector-curvature="0"
         style="fill:#d2d2d2;fill-opacity:1;stroke:none;stroke-width:1.00092483"
         d="m 86.5,467 c -0.788436,0 -0.79429,0.4311 -1.15625,1.3125 C 85.121997,468.8524 85.009423,469.0993 85,470 h 19 19 c -0.009,-0.9007 -0.122,-1.1476 -0.34375,-1.6875 C 122.29429,467.4311 122.28844,467 121.5,467 H 104 Z"
         transform="translate(0,540.36218)"
         id="path3944" />
      <rect
         style="fill:url(#linearGradient3474);fill-opacity:1;stroke:none;stroke-width:1.00092483"
         id="rect3948"
         width="38"
         height="24"
         x="85"
         y="1009.3622"
         ry="0.99999738" />
      <path
         inkscape:connector-curvature="0"
         style="opacity:0.4;fill:#ffffff;fill-opacity:1;stroke:none;stroke-width:1.00092483"
         d="m 86,468 c -0.237302,0 -0.453893,0.0817 -0.625,0.21875 -0.01369,0.0345 -0.01645,0.0577 -0.03125,0.0937 C 85.121997,468.8524 85.009423,469.0993 85,470 c 0,-0.554 0.446001,-1 1,-1 h 36 c 0.554,0 1,0.446 1,1 -0.009,-0.9007 -0.122,-1.1476 -0.34375,-1.6875 -0.0148,-0.036 -0.0176,-0.0592 -0.0312,-0.0937 C 122.45389,468.08165 122.2373,468 122,468 Z"
         transform="translate(0,540.36218)"
         id="path3950" />
      <path
         inkscape:connector-curvature="0"
         id="path3952"
         transform="translate(0,540.36218)"
         d="m 86,469 c -0.553999,0 -1,0.446 -1,1 v 22 c 0,0.554 0.446001,1 1,1 h 16.1875 l -9.5,-24 z"
         style="opacity:0.1;fill:url(#linearGradient3476);fill-opacity:1;stroke:none;stroke-width:1.00092483" />
      <path
         inkscape:connector-curvature="0"
         id="rect3958"
         transform="translate(-104,964.36218)"
         d="m 189,67 v 1 c 0,0.553999 0.446,1 1,1 h 36 c 0.554,0 1,-0.446001 1,-1 v -1 c 0,0.553999 -0.446,1 -1,1 h -36 c -0.554,0 -1,-0.446001 -1,-1 z"
         style="opacity:0.2;fill:url(#linearGradient3478);fill-opacity:1;stroke:none;stroke-width:1.00092483" />
      <ellipse
         ry="1.5"
         rx="11.5"
         cy="30.5"
         cx="203.5"
         id="path4561-9"
         style="color:#000000;display:inline;overflow:visible;visibility:visible;opacity:0.6;fill:url(#radialGradient4586);fill-opacity:1;fill-rule:nonzero;stroke:none;stroke-width:1.00092483;marker:none;enable-background:accumulate"
         transform="translate(-95,978.36218)" />
    </g>
    <path
       transform="matrix(1.2380939,0,0,0.80620136,-1492.1904,-1092.4217)"
       d="m 99,1015.9531 c -1.328288,0 -2.421875,1.0935 -2.421875,2.4219 v 7 c 0,1.3284 1.09333,2.4222 2.421875,2.4219 h 10 c 1.32829,0 2.42188,-1.0935 2.42188,-2.4219 v -7 c 0,-1.3284 -1.09333,-2.4222 -2.42188,-2.4219 z"
       id="path3971"
       style="opacity:0.1;fill:#000000;fill-opacity:1;stroke:none;stroke-width:1.00092483"
       inkscape:original="M 99 1016.8438 C 98.15884 1016.8438 97.46875 1017.5338 97.46875 1018.375 L 97.46875 1025.375 C 97.46875 1026.2162 98.15884 1026.9064 99 1026.9062 L 109 1026.9062 C 109.84116 1026.9062 110.53125 1026.2162 110.53125 1025.375 L 110.53125 1018.375 C 110.53125 1017.5338 109.84116 1016.8436 109 1016.8438 L 99 1016.8438 z "
       inkscape:radius="0.89076704"
       sodipodi:type="inkscape:offset" />
    <rect
       ry="1.6124007"
       y="-273.19043"
       x="-1372.0953"
       height="8.8682165"
       width="17.333315"
       id="rect3973"
       style="fill:url(#linearGradient3482);fill-opacity:1;stroke:none;stroke-width:0.99999988" />
    <rect
       ry="0.80620134"
       style="opacity:0.7;fill:url(#linearGradient3484);fill-opacity:1;stroke:none;stroke-width:0.99999988"
       id="rect3975"
       width="12.380939"
       height="5.6434069"
       x="-1369.619"
       y="-271.57803" />
    <rect
       style="opacity:0.6;fill:#000000;fill-opacity:1;stroke:none;stroke-width:0.99999988"
       id="rect3977"
       width="9.9047508"
       height="3.2248054"
       x="-1368.381"
       y="-269.96564"
       rx="0.61904693" />
    <rect
       rx="0.61904693"
       y="-270.77179"
       x="-1368.381"
       height="3.2248054"
       width="9.9047508"
       id="rect3979"
       style="fill:url(#linearGradient3486);fill-opacity:1;stroke:none;stroke-width:0.99999988" />
    <path
       inkscape:connector-curvature="0"
       id="path3981"
       d="m -1369.6191,-266.74086 v 0.8062 c 0,0.44664 0.5522,0.80621 1.2381,0.80621 h 9.9047 c 0.686,0 1.2382,-0.35957 1.2382,-0.80621 v -0.8062 c 0,0.44664 -0.5522,0.8062 -1.2382,0.8062 h -9.9047 c -0.6859,0 -1.2381,-0.35956 -1.2381,-0.8062 z"
       style="opacity:0.2;fill:#ffffff;fill-opacity:1;stroke:none;stroke-width:0.99999988" />
    <path
       inkscape:connector-curvature="0"
       id="path3983"
       d="m -1369.6191,-273.19046 c -1.3718,0 -2.4761,0.71913 -2.4761,1.6124 v 5.6434 c 0,0.89328 1.1043,1.61241 2.4761,1.61241 h 12.381 c 1.3718,0 2.4761,-0.71913 2.4761,-1.61241 v -5.6434 c 0,-0.89327 -1.1043,-1.6124 -2.4761,-1.6124 z m 0,0.27709 h 12.381 c 1.1466,0 2.0504,0.58868 2.0504,1.33531 v 5.6434 c 0,0.74663 -0.9038,1.33532 -2.0504,1.33524 h -12.381 c -1.1466,0 -2.0507,-0.58861 -2.0507,-1.33524 v -5.6434 c 0,-0.74663 0.9041,-1.33531 2.0507,-1.33531 z"
       style="opacity:0.5;fill:url(#linearGradient3488);fill-opacity:1;stroke:none;stroke-width:0.99999988" />
    <rect
       y="-321.06641"
       x="-1395.4286"
       height="64"
       width="63.999989"
       id="rect3985"
       style="opacity:0.2;fill:none;stroke:none;stroke-width:0.99999988" />
    <ellipse
       ry="1.2093019"
       rx="14.23808"
       cy="-290.52374"
       cx="-1355.381"
       id="path4561"
       style="color:#000000;display:inline;overflow:visible;visibility:visible;opacity:0.6;fill:url(#radialGradient4160);fill-opacity:1;fill-rule:nonzero;stroke:none;stroke-width:0.99999988;marker:none;enable-background:accumulate" />
  </g>
</svg>
