<?xml version="1.0" encoding="UTF-8"?>
<!-- Created with Inkscape (http://www.inkscape.org/) -->
<svg id="svg2817" width="64" height="64" version="1.0" xmlns="http://www.w3.org/2000/svg" xmlns:xlink="http://www.w3.org/1999/xlink">
 <defs id="defs2819">
  <linearGradient id="linearGradient2815" x1="44.995" x2="3.0052" y1="17.5" y2="17.5" gradientUnits="userSpaceOnUse" spreadMethod="reflect">
   <stop id="stop3277" style="stop-color:#fff;stop-opacity:0" offset="0"/>
   <stop id="stop3283" style="stop-color:#fff" offset=".245"/>
   <stop id="stop3285" style="stop-color:#fff" offset=".7735"/>
   <stop id="stop3279" style="stop-color:#fff;stop-opacity:0" offset="1"/>
  </linearGradient>
  <linearGradient id="linearGradient2813" x1="26" x2="26" y1="22" y2="8" gradientTransform="matrix(1.1307 0 0 1.0107 -3.1739 .064326)" gradientUnits="userSpaceOnUse">
   <stop id="stop3829" style="stop-color:#fff" offset="0"/>
   <stop id="stop4295" style="stop-color:#fff" offset=".30213"/>
   <stop id="stop4293" style="stop-color:#fff;stop-opacity:.6902" offset=".34361"/>
   <stop id="stop3832" style="stop-color:#fff;stop-opacity:0" offset="1"/>
  </linearGradient>
  <linearGradient id="linearGradient2811" x1="23.452" x2="43.007" y1="30.555" y2="45.934" gradientTransform="matrix(1.2822 0 0 1.1747 -6.0702 -5.3032)" gradientUnits="userSpaceOnUse">
   <stop id="stop4561" style="stop-color:#fff;stop-opacity:0" offset="0"/>
   <stop id="stop4563" style="stop-color:#fff;stop-opacity:0" offset="1"/>
  </linearGradient>
  <linearGradient id="linearGradient2809" x1="15.464" x2="15.464" y1="7.9757" y2="45.042" gradientUnits="userSpaceOnUse">
   <stop id="stop3297" style="stop-color:#c9af8b" offset="0"/>
   <stop id="stop3299" style="stop-color:#ad8757" offset=".23942"/>
   <stop id="stop3301" style="stop-color:#c2a57f" offset=".27582"/>
   <stop id="stop3303" style="stop-color:#9d7d53" offset="1"/>
  </linearGradient>
  <linearGradient id="linearGradient2807" x1="24.823" x2="24.997" y1="15.378" y2="37.277" gradientTransform="matrix(1.2822 0 0 1.5573 -6.0702 -15.291)" gradientUnits="userSpaceOnUse">
   <stop id="stop3201" style="stop-color:#dac197" offset="0"/>
   <stop id="stop3203" style="stop-color:#c1a581" offset=".23942"/>
   <stop id="stop3205" style="stop-color:#dbc298" offset=".27582"/>
   <stop id="stop3207" style="stop-color:#a68b60" offset="1"/>
  </linearGradient>
  <radialGradient id="radialGradient2805" cx="5" cy="41.5" r="5" gradientTransform="matrix(.59382 0 0 1.5367 41.141 -103.94)" gradientUnits="userSpaceOnUse" xlink:href="#linearGradient3681"/>
  <linearGradient id="linearGradient2803" x1="17.554" x2="17.554" y1="46" y2="35" gradientTransform="matrix(1.757 0 0 1.397 -17.394 -16.412)" gradientUnits="userSpaceOnUse">
   <stop id="stop3705" style="stop-opacity:0" offset="0"/>
   <stop id="stop3711" offset=".5"/>
   <stop id="stop3707" style="stop-opacity:0" offset="1"/>
  </linearGradient>
  <linearGradient id="linearGradient3681">
   <stop id="stop3683" offset="0"/>
   <stop id="stop3685" style="stop-opacity:0" offset="1"/>
  </linearGradient>
  <radialGradient id="radialGradient2801" cx="5" cy="41.5" r="5" gradientTransform="matrix(.59382 0 0 1.5367 -6.6595 -103.94)" gradientUnits="userSpaceOnUse" xlink:href="#linearGradient3681"/>
  <linearGradient id="linearGradient2789" x1="13.472" x2="57.726" y1="25.411" y2="25.411" gradientTransform="matrix(0 .71845 -.69452 0 51.285 15.158)" gradientUnits="userSpaceOnUse">
   <stop id="stop4224" style="stop-color:#fff" offset="0"/>
   <stop id="stop4226" style="stop-color:#fff;stop-opacity:0" offset="1"/>
  </linearGradient>
  <linearGradient id="linearGradient2787" x1="28.315" x2=".81572" y1="20.71" y2="20.71" gradientTransform="matrix(0 -.60241 -.58403 0 46.953 46.614)" gradientUnits="userSpaceOnUse">
   <stop id="stop2266" style="stop-color:#d7e866" offset="0"/>
   <stop id="stop2268" style="stop-color:#8cab2a" offset="1"/>
  </linearGradient>
 </defs>
 <g id="layer1" transform="translate(0,16)">
  <g id="g2791" transform="matrix(1.3386 0 0 1.3325 -.11956 -19.745)">
   <g id="g3305" transform="matrix(.99266 0 0 .97615 .27519 1.293)" style="opacity:.4">
    <rect id="rect2484" transform="scale(-1)" x="-3.6904" y="-47.848" width="2.9602" height="15.367" style="fill:url(#radialGradient2801)"/>
    <rect id="rect2486" x="3.6904" y="32.482" width="40.412" height="15.367" style="fill:url(#linearGradient2803)"/>
    <rect id="rect3444" transform="scale(1,-1)" x="44.11" y="-47.848" width="2.9602" height="15.367" style="fill:url(#radialGradient2805)"/>
   </g>
   <path id="path2488" d="m9.0107 8.5h29.498c1.722 0 2.4969-0.28655 2.9916 1l3.0017 8v25.674c0 1.5533 0.10293 1.316-1.6191 1.316h-37.765c-1.722 0-1.6191 0.23733-1.6191-1.316v-25.674l3.0017-8c0.48083-1.2606 0.78873-1 2.5107-1z" style="display:block;fill:url(#linearGradient2807);stroke-linecap:round;stroke-width:.75188;stroke:url(#linearGradient2809)"/>
   <path id="path2490" d="m9.9482 9.5129h27.653c1.6143 0 2.6134 0.55654 3.2895 2.086l2.3289 6.4197v23.145c0 1.4607-0.81876 2.1961-2.4331 2.1961h-33.733c-1.6143 0-2.2728-0.80883-2.2728-2.2695v-23.071l2.2538-6.5574c0.45076-1.1854 1.2996-1.9484 2.9139-1.9484z" style="display:block;fill:none;opacity:.50549;stroke-width:.74212;stroke:url(#linearGradient2811)"/>
   <path id="rect3326" d="m21.701 8.1501h4.5228v14.15h-1.3356-1.3674-1.1008-0.71895v-14.15z" style="fill:url(#linearGradient2813);opacity:.4"/>
   <path id="path3273" d="m3.5052 17.5h40.99" style="fill:none;opacity:.4;stroke-linecap:square;stroke-width:.75188;stroke:url(#linearGradient2815)"/>
  </g>
  <g id="g2783" transform="matrix(1.3386 0 0 1.3325 3.8961 -18.413)">
   <path id="path3288" d="m44.511 31.406-11.54 14.105-11.482-14.03h5.2328v-10.488h12.631v10.413h5.1585z" style="fill:url(#linearGradient2787);stroke-linecap:round;stroke-linejoin:round;stroke-width:.7445;stroke:#699536"/>
   <path id="path3290" d="m42.691 32.225-9.6917 12.05-9.6706-11.975h4.0582v-10.637h11.225v10.562h4.0794z" style="fill:none;opacity:.354;stroke-width:.74392;stroke:url(#linearGradient2789)"/>
  </g>
 </g>
</svg>
